<?xml version="1.0" encoding="UTF-8" standalone="no"?>
<!DOCTYPE svg PUBLIC "-//W3C//DTD SVG 1.1//EN"
 "http://www.w3.org/Graphics/SVG/1.1/DTD/svg11.dtd">
<!-- Generated by graphviz version 2.43.0 (0)
 -->
<!-- Title: %3 Pages: 1 -->
<svg width="2183pt" height="331pt"
 viewBox="0.00 0.00 2183.00 331.00" xmlns="http://www.w3.org/2000/svg" xmlns:xlink="http://www.w3.org/1999/xlink">
<g id="graph0" class="graph" transform="scale(1 1) rotate(0) translate(4 327)">
<title>%3</title>
<!-- 139858574663200 -->
<g id="node1" class="node">
<title>139858574663200</title>
<ellipse fill="green" stroke="black" cx="18" cy="-222" rx="18" ry="18"/>
</g>
<!-- 139858574660464 -->
<g id="node2" class="node">
<title>139858574660464</title>
<polygon fill="none" stroke="black" points="99,-240 72,-222 99,-204 126,-222 99,-240"/>
<text text-anchor="middle" x="99" y="-218.9" font-family="Times,serif" font-size="12.00">+</text>
</g>
<!-- 139858574663200&#45;&gt;139858574660464 -->
<g id="edge1" class="edge">
<title>139858574663200&#45;&gt;139858574660464</title>
<path fill="none" stroke="black" d="M36.14,-222C43.64,-222 52.75,-222 61.64,-222"/>
<polygon fill="black" stroke="black" points="61.87,-225.5 71.87,-222 61.87,-218.5 61.87,-225.5"/>
</g>
<!-- 139858575586688 -->
<g id="node3" class="node">
<title>139858575586688</title>
<polygon fill="none" stroke="black" points="189,-203 162,-185 189,-167 216,-185 189,-203"/>
<text text-anchor="middle" x="189" y="-181.9" font-family="Times,serif" font-size="12.00">X</text>
</g>
<!-- 139858574660464&#45;&gt;139858575586688 -->
<g id="edge3" class="edge">
<title>139858574660464&#45;&gt;139858575586688</title>
<path fill="none" stroke="black" d="M116.14,-215.21C129.17,-209.74 147.72,-201.93 162.72,-195.63"/>
<polygon fill="black" stroke="black" points="164.1,-198.85 171.96,-191.74 161.39,-192.39 164.1,-198.85"/>
</g>
<!-- 139858574662864 -->
<g id="node4" class="node">
<title>139858574662864</title>
<polygon fill="none" stroke="black" points="189,-277 162,-259 189,-241 216,-259 189,-277"/>
<text text-anchor="middle" x="189" y="-255.9" font-family="Times,serif" font-size="12.00">X</text>
</g>
<!-- 139858574660464&#45;&gt;139858574662864 -->
<g id="edge2" class="edge">
<title>139858574660464&#45;&gt;139858574662864</title>
<path fill="none" stroke="black" d="M116.14,-228.79C129.17,-234.26 147.72,-242.07 162.72,-248.37"/>
<polygon fill="black" stroke="black" points="161.39,-251.61 171.96,-252.26 164.1,-245.15 161.39,-251.61"/>
</g>
<!-- 139858575588224 -->
<g id="node5" class="node">
<title>139858575588224</title>
<polygon fill="none" stroke="black" points="279,-203 252,-185 279,-167 306,-185 279,-203"/>
<text text-anchor="middle" x="279" y="-181.9" font-family="Times,serif" font-size="12.00">X</text>
</g>
<!-- 139858575586688&#45;&gt;139858575588224 -->
<g id="edge5" class="edge">
<title>139858575586688&#45;&gt;139858575588224</title>
<path fill="none" stroke="black" d="M216.4,-185C224.39,-185 233.31,-185 241.82,-185"/>
<polygon fill="black" stroke="black" points="241.92,-188.5 251.92,-185 241.92,-181.5 241.92,-188.5"/>
</g>
<!-- 139858574661904 -->
<g id="node6" class="node">
<title>139858574661904</title>
<polygon fill="none" stroke="black" points="279,-277 252,-259 279,-241 306,-259 279,-277"/>
<text text-anchor="middle" x="279" y="-255.9" font-family="Times,serif" font-size="12.00">X</text>
</g>
<!-- 139858574662864&#45;&gt;139858574661904 -->
<g id="edge4" class="edge">
<title>139858574662864&#45;&gt;139858574661904</title>
<path fill="none" stroke="black" d="M216.4,-259C224.39,-259 233.31,-259 241.82,-259"/>
<polygon fill="black" stroke="black" points="241.92,-262.5 251.92,-259 241.92,-255.5 241.92,-262.5"/>
</g>
<!-- 139858575588272 -->
<g id="node8" class="node">
<title>139858575588272</title>
<polygon fill="none" stroke="black" points="517,-230 342,-230 342,-194 517,-194 517,-230"/>
<text text-anchor="middle" x="429.5" y="-208.9" font-family="Times,serif" font-size="12.00">IMPLEMENTACION_code</text>
</g>
<!-- 139858575588224&#45;&gt;139858575588272 -->
<g id="edge8" class="edge">
<title>139858575588224&#45;&gt;139858575588272</title>
<path fill="none" stroke="black" d="M300.65,-188.75C309.36,-190.34 320.19,-192.31 331.83,-194.42"/>
<polygon fill="black" stroke="black" points="331.3,-197.89 341.77,-196.23 332.56,-191 331.3,-197.89"/>
</g>
<!-- 139858574661376 -->
<g id="node7" class="node">
<title>139858574661376</title>
<polygon fill="none" stroke="black" points="760,-279 733,-261 760,-243 787,-261 760,-279"/>
<text text-anchor="middle" x="760" y="-257.9" font-family="Times,serif" font-size="12.00">+</text>
</g>
<!-- 139858574661904&#45;&gt;139858574661376 -->
<g id="edge7" class="edge">
<title>139858574661904&#45;&gt;139858574661376</title>
<path fill="none" stroke="black" d="M306.09,-259.11C386.46,-259.44 630.35,-260.46 722.88,-260.85"/>
<polygon fill="black" stroke="black" points="722.87,-264.35 732.88,-260.89 722.9,-257.35 722.87,-264.35"/>
</g>
<!-- 139858574660224 -->
<g id="node9" class="node">
<title>139858574660224</title>
<polygon fill="none" stroke="black" points="477,-323 382,-323 382,-287 477,-287 477,-323"/>
<text text-anchor="middle" x="429.5" y="-301.9" font-family="Times,serif" font-size="12.00">CONSTRUIR</text>
</g>
<!-- 139858574661904&#45;&gt;139858574660224 -->
<g id="edge6" class="edge">
<title>139858574661904&#45;&gt;139858574660224</title>
<path fill="none" stroke="black" d="M297.91,-264.55C316.24,-270.23 345.69,-279.35 371.99,-287.49"/>
<polygon fill="black" stroke="black" points="371.29,-290.94 381.88,-290.56 373.36,-284.26 371.29,-290.94"/>
</g>
<!-- 139858574661856 -->
<g id="node25" class="node">
<title>139858574661856</title>
<ellipse fill="orange" stroke="black" cx="850" cy="-290" rx="18" ry="18"/>
</g>
<!-- 139858574661376&#45;&gt;139858574661856 -->
<g id="edge11" class="edge">
<title>139858574661376&#45;&gt;139858574661856</title>
<path fill="none" stroke="black" d="M778.81,-266.87C791.5,-271.05 808.76,-276.74 822.99,-281.43"/>
<polygon fill="black" stroke="black" points="822.11,-284.82 832.7,-284.63 824.3,-278.18 822.11,-284.82"/>
</g>
<!-- 139858575586304 -->
<g id="node10" class="node">
<title>139858575586304</title>
<polygon fill="none" stroke="black" points="580,-229 553,-211 580,-193 607,-211 580,-229"/>
<text text-anchor="middle" x="580" y="-207.9" font-family="Times,serif" font-size="12.00">X</text>
</g>
<!-- 139858575588272&#45;&gt;139858575586304 -->
<g id="edge10" class="edge">
<title>139858575588272&#45;&gt;139858575586304</title>
<path fill="none" stroke="black" d="M517.31,-211.42C526.4,-211.35 535.24,-211.29 543.24,-211.24"/>
<polygon fill="black" stroke="black" points="543.27,-214.74 553.25,-211.17 543.22,-207.74 543.27,-214.74"/>
</g>
<!-- 139858574660224&#45;&gt;139858574662864 -->
<g id="edge9" class="edge">
<title>139858574660224&#45;&gt;139858574662864</title>
<path fill="none" stroke="black" d="M381.72,-303.82C345.73,-301.99 295.05,-297.4 252,-286 239.01,-282.56 225.24,-276.8 213.99,-271.48"/>
<polygon fill="black" stroke="black" points="215.35,-268.25 204.83,-266.99 212.26,-274.53 215.35,-268.25"/>
</g>
<!-- 139858575586304&#45;&gt;139858575588224 -->
<g id="edge12" class="edge">
<title>139858575586304&#45;&gt;139858575588224</title>
<path fill="none" stroke="black" d="M564.74,-203.09C552.5,-196.79 534.16,-188.45 517,-185 444.93,-170.5 358.01,-176.24 312.08,-181.03"/>
<polygon fill="black" stroke="black" points="311.41,-177.58 301.85,-182.15 312.17,-184.54 311.41,-177.58"/>
</g>
<!-- 139858575586448 -->
<g id="node11" class="node">
<title>139858575586448</title>
<polygon fill="none" stroke="black" points="670,-229 643,-211 670,-193 697,-211 670,-229"/>
<text text-anchor="middle" x="670" y="-207.9" font-family="Times,serif" font-size="12.00">X</text>
</g>
<!-- 139858575586304&#45;&gt;139858575586448 -->
<g id="edge13" class="edge">
<title>139858575586304&#45;&gt;139858575586448</title>
<path fill="none" stroke="black" d="M607.4,-211C615.39,-211 624.31,-211 632.82,-211"/>
<polygon fill="black" stroke="black" points="632.92,-214.5 642.92,-211 632.92,-207.5 632.92,-214.5"/>
</g>
<!-- 139858575586448&#45;&gt;139858574661376 -->
<g id="edge14" class="edge">
<title>139858575586448&#45;&gt;139858574661376</title>
<path fill="none" stroke="black" d="M685.14,-219.03C698.87,-226.83 719.94,-238.8 736.06,-247.97"/>
<polygon fill="black" stroke="black" points="734.47,-251.09 744.9,-252.99 737.93,-245 734.47,-251.09"/>
</g>
<!-- 139858593912432 -->
<g id="node12" class="node">
<title>139858593912432</title>
<polygon fill="none" stroke="black" points="760,-225 733,-207 760,-189 787,-207 760,-225"/>
<text text-anchor="middle" x="760" y="-203.9" font-family="Times,serif" font-size="12.00">X</text>
</g>
<!-- 139858575586448&#45;&gt;139858593912432 -->
<g id="edge15" class="edge">
<title>139858575586448&#45;&gt;139858593912432</title>
<path fill="none" stroke="black" d="M695.51,-209.89C704.48,-209.48 714.79,-209.01 724.47,-208.57"/>
<polygon fill="black" stroke="black" points="724.79,-212.06 734.62,-208.11 724.47,-205.07 724.79,-212.06"/>
</g>
<!-- 139858593912096 -->
<g id="node13" class="node">
<title>139858593912096</title>
<polygon fill="none" stroke="black" points="850,-197 823,-179 850,-161 877,-179 850,-197"/>
<text text-anchor="middle" x="850" y="-175.9" font-family="Times,serif" font-size="12.00">X</text>
</g>
<!-- 139858593912432&#45;&gt;139858593912096 -->
<g id="edge16" class="edge">
<title>139858593912432&#45;&gt;139858593912096</title>
<path fill="none" stroke="black" d="M778.81,-201.33C791.09,-197.42 807.66,-192.15 821.62,-187.71"/>
<polygon fill="black" stroke="black" points="822.75,-191.03 831.22,-184.66 820.63,-184.35 822.75,-191.03"/>
</g>
<!-- 139858593910848 -->
<g id="node14" class="node">
<title>139858593910848</title>
<polygon fill="none" stroke="black" points="1073,-197 913,-197 913,-161 1073,-161 1073,-197"/>
<text text-anchor="middle" x="993" y="-175.9" font-family="Times,serif" font-size="12.00">EJECUCION_PIPELINE</text>
</g>
<!-- 139858593912096&#45;&gt;139858593910848 -->
<g id="edge17" class="edge">
<title>139858593912096&#45;&gt;139858593910848</title>
<path fill="none" stroke="black" d="M877.19,-179C884.79,-179 893.55,-179 902.77,-179"/>
<polygon fill="black" stroke="black" points="902.93,-182.5 912.93,-179 902.93,-175.5 902.93,-182.5"/>
</g>
<!-- 139858593911136 -->
<g id="node15" class="node">
<title>139858593911136</title>
<polygon fill="none" stroke="black" points="1136,-197 1109,-179 1136,-161 1163,-179 1136,-197"/>
<text text-anchor="middle" x="1136" y="-175.9" font-family="Times,serif" font-size="12.00">X</text>
</g>
<!-- 139858593910848&#45;&gt;139858593911136 -->
<g id="edge18" class="edge">
<title>139858593910848&#45;&gt;139858593911136</title>
<path fill="none" stroke="black" d="M1073.16,-179C1082.15,-179 1090.95,-179 1098.96,-179"/>
<polygon fill="black" stroke="black" points="1098.99,-182.5 1108.99,-179 1098.99,-175.5 1098.99,-182.5"/>
</g>
<!-- 139858575218048 -->
<g id="node16" class="node">
<title>139858575218048</title>
<polygon fill="none" stroke="black" points="1226,-159 1199,-141 1226,-123 1253,-141 1226,-159"/>
<text text-anchor="middle" x="1226" y="-137.9" font-family="Times,serif" font-size="12.00">X</text>
</g>
<!-- 139858593911136&#45;&gt;139858575218048 -->
<g id="edge19" class="edge">
<title>139858593911136&#45;&gt;139858575218048</title>
<path fill="none" stroke="black" d="M1153.14,-172.03C1166.17,-166.41 1184.72,-158.39 1199.72,-151.92"/>
<polygon fill="black" stroke="black" points="1201.17,-155.1 1208.96,-147.93 1198.39,-148.68 1201.17,-155.1"/>
</g>
<!-- 139858594651584 -->
<g id="node17" class="node">
<title>139858594651584</title>
<polygon fill="none" stroke="black" points="1968,-121 1941,-103 1968,-85 1995,-103 1968,-121"/>
<text text-anchor="middle" x="1968" y="-99.9" font-family="Times,serif" font-size="12.00">X</text>
</g>
<!-- 139858593911136&#45;&gt;139858594651584 -->
<g id="edge20" class="edge">
<title>139858593911136&#45;&gt;139858594651584</title>
<path fill="none" stroke="black" d="M1156.77,-183.22C1194.13,-190.81 1277.76,-206 1349,-206 1349,-206 1349,-206 1789,-206 1855.86,-206 1920.15,-150.88 1949.85,-121.29"/>
<polygon fill="black" stroke="black" points="1952.47,-123.62 1956.97,-114.02 1947.47,-118.72 1952.47,-123.62"/>
</g>
<!-- 139858575219536 -->
<g id="node19" class="node">
<title>139858575219536</title>
<polygon fill="none" stroke="black" points="1411,-159 1289,-159 1289,-123 1411,-123 1411,-159"/>
<text text-anchor="middle" x="1350" y="-137.9" font-family="Times,serif" font-size="12.00">PLANIFICACION</text>
</g>
<!-- 139858575218048&#45;&gt;139858575219536 -->
<g id="edge22" class="edge">
<title>139858575218048&#45;&gt;139858575219536</title>
<path fill="none" stroke="black" d="M1253.17,-141C1260.8,-141 1269.53,-141 1278.53,-141"/>
<polygon fill="black" stroke="black" points="1278.78,-144.5 1288.78,-141 1278.78,-137.5 1278.78,-144.5"/>
</g>
<!-- 139858593911904 -->
<g id="node18" class="node">
<title>139858593911904</title>
<polygon fill="none" stroke="black" points="2058,-102 2031,-84 2058,-66 2085,-84 2058,-102"/>
<text text-anchor="middle" x="2058" y="-80.9" font-family="Times,serif" font-size="12.00">X</text>
</g>
<!-- 139858594651584&#45;&gt;139858593911904 -->
<g id="edge21" class="edge">
<title>139858594651584&#45;&gt;139858593911904</title>
<path fill="none" stroke="black" d="M1988.97,-98.69C2000.22,-96.26 2014.5,-93.18 2027.06,-90.46"/>
<polygon fill="black" stroke="black" points="2028.07,-93.83 2037.11,-88.29 2026.6,-86.98 2028.07,-93.83"/>
</g>
<!-- 139858593911904&#45;&gt;139858593912096 -->
<g id="edge23" class="edge">
<title>139858593911904&#45;&gt;139858593912096</title>
<path fill="none" stroke="black" d="M2041.16,-77.01C2010.49,-64.15 1940.6,-38 1879,-38 1135,-38 1135,-38 1135,-38 1024.56,-38 912.8,-124.6 869.61,-162.06"/>
<polygon fill="black" stroke="black" points="867.09,-159.62 861.91,-168.86 871.73,-164.87 867.09,-159.62"/>
</g>
<!-- 139858593911616 -->
<g id="node21" class="node">
<title>139858593911616</title>
<polygon fill="none" stroke="black" points="2148,-102 2121,-84 2148,-66 2175,-84 2148,-102"/>
<text text-anchor="middle" x="2148" y="-80.9" font-family="Times,serif" font-size="12.00">X</text>
</g>
<!-- 139858593911904&#45;&gt;139858593911616 -->
<g id="edge24" class="edge">
<title>139858593911904&#45;&gt;139858593911616</title>
<path fill="none" stroke="black" d="M2085.4,-84C2093.39,-84 2102.31,-84 2110.82,-84"/>
<polygon fill="black" stroke="black" points="2110.92,-87.5 2120.92,-84 2110.92,-80.5 2110.92,-87.5"/>
</g>
<!-- 139858575218720 -->
<g id="node20" class="node">
<title>139858575218720</title>
<polygon fill="none" stroke="black" points="1474,-159 1447,-141 1474,-123 1501,-141 1474,-159"/>
<text text-anchor="middle" x="1474" y="-137.9" font-family="Times,serif" font-size="12.00">X</text>
</g>
<!-- 139858575219536&#45;&gt;139858575218720 -->
<g id="edge25" class="edge">
<title>139858575219536&#45;&gt;139858575218720</title>
<path fill="none" stroke="black" d="M1411.29,-141C1419.97,-141 1428.67,-141 1436.69,-141"/>
<polygon fill="black" stroke="black" points="1436.77,-144.5 1446.77,-141 1436.77,-137.5 1436.77,-144.5"/>
</g>
<!-- 139858575220256 -->
<g id="node22" class="node">
<title>139858575220256</title>
<polygon fill="none" stroke="black" points="1788,-140 1761,-122 1788,-104 1815,-122 1788,-140"/>
<text text-anchor="middle" x="1788" y="-118.9" font-family="Times,serif" font-size="12.00">X</text>
</g>
<!-- 139858575218720&#45;&gt;139858575220256 -->
<g id="edge29" class="edge">
<title>139858575218720&#45;&gt;139858575220256</title>
<path fill="none" stroke="black" d="M1496.47,-137.78C1508.39,-136.1 1523.48,-134.17 1537,-133 1613.21,-126.42 1702.86,-123.69 1751.4,-122.62"/>
<polygon fill="black" stroke="black" points="1751.48,-126.12 1761.4,-122.41 1751.33,-119.12 1751.48,-126.12"/>
</g>
<!-- 139858575217760 -->
<g id="node23" class="node">
<title>139858575217760</title>
<polygon fill="none" stroke="black" points="1725,-178 1537,-178 1537,-142 1725,-142 1725,-178"/>
<text text-anchor="middle" x="1631" y="-156.9" font-family="Times,serif" font-size="12.00">SEGUIMIENTO_In Progress</text>
</g>
<!-- 139858575218720&#45;&gt;139858575217760 -->
<g id="edge28" class="edge">
<title>139858575218720&#45;&gt;139858575217760</title>
<path fill="none" stroke="black" d="M1497.21,-143.72C1505.54,-144.74 1515.65,-145.98 1526.53,-147.32"/>
<polygon fill="black" stroke="black" points="1526.36,-150.82 1536.72,-148.57 1527.22,-143.87 1526.36,-150.82"/>
</g>
<!-- 139858593911616&#45;&gt;139858575586688 -->
<g id="edge26" class="edge">
<title>139858593911616&#45;&gt;139858575586688</title>
<path fill="none" stroke="black" d="M2135.39,-74.03C2108.24,-51.78 2037.68,0 1969,0 428.5,0 428.5,0 428.5,0 322.41,0 234.96,-115.7 203.01,-164.1"/>
<polygon fill="black" stroke="black" points="200.03,-162.28 197.54,-172.57 205.91,-166.08 200.03,-162.28"/>
</g>
<!-- 139858593911616&#45;&gt;139858593912432 -->
<g id="edge27" class="edge">
<title>139858593911616&#45;&gt;139858593912432</title>
<path fill="none" stroke="black" d="M2140.56,-97.09C2120.75,-135.31 2056.68,-244 1969,-244 992,-244 992,-244 992,-244 918.27,-244 832.95,-225.4 789.55,-214.57"/>
<polygon fill="black" stroke="black" points="790.26,-211.14 779.7,-212.07 788.53,-217.92 790.26,-211.14"/>
</g>
<!-- 139858575220400 -->
<g id="node24" class="node">
<title>139858575220400</title>
<polygon fill="none" stroke="black" points="1878,-121 1851,-103 1878,-85 1905,-103 1878,-121"/>
<text text-anchor="middle" x="1878" y="-99.9" font-family="Times,serif" font-size="12.00">X</text>
</g>
<!-- 139858575220256&#45;&gt;139858575220400 -->
<g id="edge31" class="edge">
<title>139858575220256&#45;&gt;139858575220400</title>
<path fill="none" stroke="black" d="M1808.97,-117.69C1820.22,-115.26 1834.5,-112.18 1847.06,-109.46"/>
<polygon fill="black" stroke="black" points="1848.07,-112.83 1857.11,-107.29 1846.6,-105.98 1848.07,-112.83"/>
</g>
<!-- 139858575217760&#45;&gt;139858575220256 -->
<g id="edge30" class="edge">
<title>139858575217760&#45;&gt;139858575220256</title>
<path fill="none" stroke="black" d="M1705.87,-141.89C1724.31,-137.37 1743.04,-132.78 1757.84,-129.15"/>
<polygon fill="black" stroke="black" points="1758.99,-132.47 1767.87,-126.69 1757.32,-125.67 1758.99,-132.47"/>
</g>
<!-- 139858575220400&#45;&gt;139858575218048 -->
<g id="edge33" class="edge">
<title>139858575220400&#45;&gt;139858575218048</title>
<path fill="none" stroke="black" d="M1856.43,-99.19C1814.42,-91.75 1715.66,-76 1632,-76 1473,-76 1473,-76 1473,-76 1389.5,-76 1368.59,-88.75 1289,-114 1276.19,-118.06 1262.44,-123.89 1251.15,-129.09"/>
<polygon fill="black" stroke="black" points="1249.49,-126.01 1241.95,-133.44 1252.49,-132.33 1249.49,-126.01"/>
</g>
<!-- 139858575220400&#45;&gt;139858594651584 -->
<g id="edge32" class="edge">
<title>139858575220400&#45;&gt;139858594651584</title>
<path fill="none" stroke="black" d="M1905.4,-103C1913.39,-103 1922.31,-103 1930.82,-103"/>
<polygon fill="black" stroke="black" points="1930.92,-106.5 1940.92,-103 1930.92,-99.5 1930.92,-106.5"/>
</g>
</g>
</svg>
