<?xml version="1.0" encoding="UTF-8" standalone="no"?>
<!DOCTYPE svg PUBLIC "-//W3C//DTD SVG 1.1//EN"
 "http://www.w3.org/Graphics/SVG/1.1/DTD/svg11.dtd">
<!-- Generated by graphviz version 2.43.0 (0)
 -->
<!-- Title: %3 Pages: 1 -->
<svg width="2584pt" height="114pt"
 viewBox="0.00 0.00 2584.00 114.00" xmlns="http://www.w3.org/2000/svg" xmlns:xlink="http://www.w3.org/1999/xlink">
<g id="graph0" class="graph" transform="scale(1 1) rotate(0) translate(4 110)">
<title>%3</title>
<!-- 140026933415216 -->
<g id="node1" class="node">
<title>140026933415216</title>
<ellipse fill="green" stroke="black" cx="18" cy="-23" rx="18" ry="18"/>
</g>
<!-- 140026933412336 -->
<g id="node2" class="node">
<title>140026933412336</title>
<polygon fill="none" stroke="black" points="99,-41 72,-23 99,-5 126,-23 99,-41"/>
<text text-anchor="middle" x="99" y="-19.9" font-family="Times,serif" font-size="12.00">X</text>
</g>
<!-- 140026933415216&#45;&gt;140026933412336 -->
<g id="edge1" class="edge">
<title>140026933415216&#45;&gt;140026933412336</title>
<path fill="none" stroke="black" d="M36.14,-23C43.64,-23 52.75,-23 61.64,-23"/>
<polygon fill="black" stroke="black" points="61.87,-26.5 71.87,-23 61.87,-19.5 61.87,-26.5"/>
</g>
<!-- 140026933413488 -->
<g id="node3" class="node">
<title>140026933413488</title>
<polygon fill="none" stroke="black" points="189,-64 162,-46 189,-28 216,-46 189,-64"/>
<text text-anchor="middle" x="189" y="-42.9" font-family="Times,serif" font-size="12.00">X</text>
</g>
<!-- 140026933412336&#45;&gt;140026933413488 -->
<g id="edge2" class="edge">
<title>140026933412336&#45;&gt;140026933413488</title>
<path fill="none" stroke="black" d="M119.09,-27.99C130.82,-31.06 146.07,-35.04 159.24,-38.48"/>
<polygon fill="black" stroke="black" points="158.68,-41.96 169.24,-41.1 160.45,-35.18 158.68,-41.96"/>
</g>
<!-- 140026933414832 -->
<g id="node4" class="node">
<title>140026933414832</title>
<polygon fill="none" stroke="black" points="527,-41 500,-23 527,-5 554,-23 527,-41"/>
<text text-anchor="middle" x="527" y="-19.9" font-family="Times,serif" font-size="12.00">X</text>
</g>
<!-- 140026933412336&#45;&gt;140026933414832 -->
<g id="edge3" class="edge">
<title>140026933412336&#45;&gt;140026933414832</title>
<path fill="none" stroke="black" d="M123.24,-21.14C134.87,-20.31 149.17,-19.41 162,-19 296.15,-14.68 329.85,-14.68 464,-19 473.32,-19.3 483.42,-19.85 492.7,-20.46"/>
<polygon fill="black" stroke="black" points="492.54,-23.95 502.76,-21.14 493.02,-16.97 492.54,-23.95"/>
</g>
<!-- 140026933414880 -->
<g id="node6" class="node">
<title>140026933414880</title>
<polygon fill="none" stroke="black" points="374,-106 252,-106 252,-70 374,-70 374,-106"/>
<text text-anchor="middle" x="313" y="-84.9" font-family="Times,serif" font-size="12.00">PLANIFICACION</text>
</g>
<!-- 140026933413488&#45;&gt;140026933414880 -->
<g id="edge5" class="edge">
<title>140026933413488&#45;&gt;140026933414880</title>
<path fill="none" stroke="black" d="M207.22,-51.93C218.53,-55.82 234.1,-61.18 249.76,-66.57"/>
<polygon fill="black" stroke="black" points="248.9,-69.98 259.5,-69.93 251.18,-63.36 248.9,-69.98"/>
</g>
<!-- 140026936324256 -->
<g id="node5" class="node">
<title>140026936324256</title>
<polygon fill="none" stroke="black" points="617,-41 590,-23 617,-5 644,-23 617,-41"/>
<text text-anchor="middle" x="617" y="-19.9" font-family="Times,serif" font-size="12.00">X</text>
</g>
<!-- 140026933414832&#45;&gt;140026936324256 -->
<g id="edge4" class="edge">
<title>140026933414832&#45;&gt;140026936324256</title>
<path fill="none" stroke="black" d="M554.4,-23C562.39,-23 571.31,-23 579.82,-23"/>
<polygon fill="black" stroke="black" points="579.92,-26.5 589.92,-23 579.92,-19.5 579.92,-26.5"/>
</g>
<!-- 140026936324160 -->
<g id="node7" class="node">
<title>140026936324160</title>
<polygon fill="none" stroke="black" points="707,-64 680,-46 707,-28 734,-46 707,-64"/>
<text text-anchor="middle" x="707" y="-42.9" font-family="Times,serif" font-size="12.00">X</text>
</g>
<!-- 140026936324256&#45;&gt;140026936324160 -->
<g id="edge7" class="edge">
<title>140026936324256&#45;&gt;140026936324160</title>
<path fill="none" stroke="black" d="M637.09,-27.99C648.82,-31.06 664.07,-35.04 677.24,-38.48"/>
<polygon fill="black" stroke="black" points="676.68,-41.96 687.24,-41.1 678.45,-35.18 676.68,-41.96"/>
</g>
<!-- 140026933414304 -->
<g id="node8" class="node">
<title>140026933414304</title>
<polygon fill="none" stroke="black" points="437,-64 410,-46 437,-28 464,-46 437,-64"/>
<text text-anchor="middle" x="437" y="-42.9" font-family="Times,serif" font-size="12.00">X</text>
</g>
<!-- 140026933414880&#45;&gt;140026933414304 -->
<g id="edge6" class="edge">
<title>140026933414880&#45;&gt;140026933414304</title>
<path fill="none" stroke="black" d="M366.45,-69.94C381.08,-64.91 396.38,-59.64 408.89,-55.33"/>
<polygon fill="black" stroke="black" points="410.36,-58.53 418.67,-51.96 408.08,-51.91 410.36,-58.53"/>
</g>
<!-- 140026936324400 -->
<g id="node9" class="node">
<title>140026936324400</title>
<polygon fill="none" stroke="black" points="1021,-87 994,-69 1021,-51 1048,-69 1021,-87"/>
<text text-anchor="middle" x="1021" y="-65.9" font-family="Times,serif" font-size="12.00">X</text>
</g>
<!-- 140026936324160&#45;&gt;140026936324400 -->
<g id="edge11" class="edge">
<title>140026936324160&#45;&gt;140026936324400</title>
<path fill="none" stroke="black" d="M722.22,-54.21C734.44,-60.76 752.76,-69.41 770,-73 847.44,-89.13 941.3,-80.27 988.97,-73.82"/>
<polygon fill="black" stroke="black" points="989.55,-77.28 998.96,-72.42 988.57,-70.35 989.55,-77.28"/>
</g>
<!-- 140027760443888 -->
<g id="node10" class="node">
<title>140027760443888</title>
<polygon fill="none" stroke="black" points="958,-64 770,-64 770,-28 958,-28 958,-64"/>
<text text-anchor="middle" x="864" y="-42.9" font-family="Times,serif" font-size="12.00">SEGUIMIENTO_In Progress</text>
</g>
<!-- 140026936324160&#45;&gt;140027760443888 -->
<g id="edge10" class="edge">
<title>140026936324160&#45;&gt;140027760443888</title>
<path fill="none" stroke="black" d="M734.29,-46C741.78,-46 750.42,-46 759.6,-46"/>
<polygon fill="black" stroke="black" points="759.76,-49.5 769.76,-46 759.76,-42.5 759.76,-49.5"/>
</g>
<!-- 140026933414304&#45;&gt;140026933413488 -->
<g id="edge8" class="edge">
<title>140026933414304&#45;&gt;140026933413488</title>
<path fill="none" stroke="black" d="M409.86,-46C365.79,-46 276.59,-46 226.41,-46"/>
<polygon fill="black" stroke="black" points="226.33,-42.5 216.33,-46 226.33,-49.5 226.33,-42.5"/>
</g>
<!-- 140026933414304&#45;&gt;140026933414832 -->
<g id="edge9" class="edge">
<title>140026933414304&#45;&gt;140026933414832</title>
<path fill="none" stroke="black" d="M457.09,-41.01C468.82,-37.94 484.07,-33.96 497.24,-30.52"/>
<polygon fill="black" stroke="black" points="498.45,-33.82 507.24,-27.9 496.68,-27.04 498.45,-33.82"/>
</g>
<!-- 140027760443744 -->
<g id="node11" class="node">
<title>140027760443744</title>
<polygon fill="none" stroke="black" points="1259,-87 1084,-87 1084,-51 1259,-51 1259,-87"/>
<text text-anchor="middle" x="1171.5" y="-65.9" font-family="Times,serif" font-size="12.00">IMPLEMENTACION_code</text>
</g>
<!-- 140026936324400&#45;&gt;140027760443744 -->
<g id="edge13" class="edge">
<title>140026936324400&#45;&gt;140027760443744</title>
<path fill="none" stroke="black" d="M1048.21,-69C1055.73,-69 1064.4,-69 1073.59,-69"/>
<polygon fill="black" stroke="black" points="1073.73,-72.5 1083.73,-69 1073.72,-65.5 1073.73,-72.5"/>
</g>
<!-- 140027760443888&#45;&gt;140026936324400 -->
<g id="edge12" class="edge">
<title>140027760443888&#45;&gt;140026936324400</title>
<path fill="none" stroke="black" d="M958.29,-59.84C969.17,-61.46 979.61,-63.01 988.71,-64.36"/>
<polygon fill="black" stroke="black" points="988.32,-67.84 998.73,-65.84 989.35,-60.91 988.32,-67.84"/>
</g>
<!-- 140027760444800 -->
<g id="node12" class="node">
<title>140027760444800</title>
<polygon fill="none" stroke="black" points="1322,-87 1295,-69 1322,-51 1349,-69 1322,-87"/>
<text text-anchor="middle" x="1322" y="-65.9" font-family="Times,serif" font-size="12.00">X</text>
</g>
<!-- 140027760443744&#45;&gt;140027760444800 -->
<g id="edge14" class="edge">
<title>140027760443744&#45;&gt;140027760444800</title>
<path fill="none" stroke="black" d="M1259.31,-69C1268.21,-69 1276.87,-69 1284.74,-69"/>
<polygon fill="black" stroke="black" points="1284.94,-72.5 1294.94,-69 1284.94,-65.5 1284.94,-72.5"/>
</g>
<!-- 140027760444320 -->
<g id="node13" class="node">
<title>140027760444320</title>
<polygon fill="none" stroke="black" points="1616,-64 1589,-46 1616,-28 1643,-46 1616,-64"/>
<text text-anchor="middle" x="1616" y="-42.9" font-family="Times,serif" font-size="12.00">X</text>
</g>
<!-- 140027760444800&#45;&gt;140027760444320 -->
<g id="edge16" class="edge">
<title>140027760444800&#45;&gt;140027760444320</title>
<path fill="none" stroke="black" d="M1343.91,-72.42C1384.66,-78.41 1477.35,-88.76 1553,-73 1566.33,-70.22 1580.32,-64.42 1591.62,-58.9"/>
<polygon fill="black" stroke="black" points="1593.48,-61.88 1600.78,-54.21 1590.28,-55.65 1593.48,-61.88"/>
</g>
<!-- 140027760443552 -->
<g id="node14" class="node">
<title>140027760443552</title>
<polygon fill="none" stroke="black" points="1553,-64 1385,-64 1385,-28 1553,-28 1553,-64"/>
<text text-anchor="middle" x="1469" y="-42.9" font-family="Times,serif" font-size="12.00">IMPLEMENTACION_test</text>
</g>
<!-- 140027760444800&#45;&gt;140027760443552 -->
<g id="edge15" class="edge">
<title>140027760444800&#45;&gt;140027760443552</title>
<path fill="none" stroke="black" d="M1344.08,-65.66C1352.71,-64.29 1363.34,-62.6 1374.71,-60.8"/>
<polygon fill="black" stroke="black" points="1375.54,-64.21 1384.87,-59.19 1374.44,-57.3 1375.54,-64.21"/>
</g>
<!-- 140026936324880 -->
<g id="node15" class="node">
<title>140026936324880</title>
<polygon fill="none" stroke="black" points="1706,-41 1679,-23 1706,-5 1733,-23 1706,-41"/>
<text text-anchor="middle" x="1706" y="-19.9" font-family="Times,serif" font-size="12.00">X</text>
</g>
<!-- 140027760444320&#45;&gt;140026936324880 -->
<g id="edge18" class="edge">
<title>140027760444320&#45;&gt;140026936324880</title>
<path fill="none" stroke="black" d="M1636.09,-41.01C1647.82,-37.94 1663.07,-33.96 1676.24,-30.52"/>
<polygon fill="black" stroke="black" points="1677.45,-33.82 1686.24,-27.9 1675.68,-27.04 1677.45,-33.82"/>
</g>
<!-- 140027760443552&#45;&gt;140027760444320 -->
<g id="edge17" class="edge">
<title>140027760443552&#45;&gt;140027760444320</title>
<path fill="none" stroke="black" d="M1553.09,-46C1561.96,-46 1570.62,-46 1578.51,-46"/>
<polygon fill="black" stroke="black" points="1578.75,-49.5 1588.75,-46 1578.75,-42.5 1578.75,-49.5"/>
</g>
<!-- 140026936324880&#45;&gt;140026936324256 -->
<g id="edge19" class="edge">
<title>140026936324880&#45;&gt;140026936324256</title>
<path fill="none" stroke="black" d="M1684,-19.56C1642.99,-13.14 1549.32,0 1470,0 863,0 863,0 863,0 785.91,0 695.77,-11.43 649.28,-18.17"/>
<polygon fill="black" stroke="black" points="648.62,-14.73 639.24,-19.66 649.64,-21.66 648.62,-14.73"/>
</g>
<!-- 140027760446144 -->
<g id="node16" class="node">
<title>140027760446144</title>
<polygon fill="none" stroke="black" points="1929,-41 1769,-41 1769,-5 1929,-5 1929,-41"/>
<text text-anchor="middle" x="1849" y="-19.9" font-family="Times,serif" font-size="12.00">EJECUCION_PIPELINE</text>
</g>
<!-- 140026936324880&#45;&gt;140027760446144 -->
<g id="edge20" class="edge">
<title>140026936324880&#45;&gt;140027760446144</title>
<path fill="none" stroke="black" d="M1733.19,-23C1740.79,-23 1749.55,-23 1758.77,-23"/>
<polygon fill="black" stroke="black" points="1758.93,-26.5 1768.93,-23 1758.93,-19.5 1758.93,-26.5"/>
</g>
<!-- 140026936557184 -->
<g id="node17" class="node">
<title>140026936557184</title>
<polygon fill="none" stroke="black" points="2060,-41 1965,-41 1965,-5 2060,-5 2060,-41"/>
<text text-anchor="middle" x="2012.5" y="-19.9" font-family="Times,serif" font-size="12.00">CONSTRUIR</text>
</g>
<!-- 140027760446144&#45;&gt;140026936557184 -->
<g id="edge21" class="edge">
<title>140027760446144&#45;&gt;140026936557184</title>
<path fill="none" stroke="black" d="M1929.33,-23C1937.86,-23 1946.4,-23 1954.59,-23"/>
<polygon fill="black" stroke="black" points="1954.74,-26.5 1964.74,-23 1954.74,-19.5 1954.74,-26.5"/>
</g>
<!-- 140026936557136 -->
<g id="node18" class="node">
<title>140026936557136</title>
<polygon fill="none" stroke="black" points="2175,-41 2096,-41 2096,-5 2175,-5 2175,-41"/>
<text text-anchor="middle" x="2135.5" y="-19.9" font-family="Times,serif" font-size="12.00">PRUEBAS</text>
</g>
<!-- 140026936557184&#45;&gt;140026936557136 -->
<g id="edge22" class="edge">
<title>140026936557184&#45;&gt;140026936557136</title>
<path fill="none" stroke="black" d="M2060.28,-23C2068.6,-23 2077.29,-23 2085.67,-23"/>
<polygon fill="black" stroke="black" points="2085.68,-26.5 2095.68,-23 2085.68,-19.5 2085.68,-26.5"/>
</g>
<!-- 140026936642672 -->
<g id="node19" class="node">
<title>140026936642672</title>
<polygon fill="none" stroke="black" points="2366,-41 2211,-41 2211,-5 2366,-5 2366,-41"/>
<text text-anchor="middle" x="2288.5" y="-19.9" font-family="Times,serif" font-size="12.00">CONSTRUIR_IMAGEN</text>
</g>
<!-- 140026936557136&#45;&gt;140026936642672 -->
<g id="edge23" class="edge">
<title>140026936557136&#45;&gt;140026936642672</title>
<path fill="none" stroke="black" d="M2175.39,-23C2183.32,-23 2191.97,-23 2200.83,-23"/>
<polygon fill="black" stroke="black" points="2200.89,-26.5 2210.89,-23 2200.89,-19.5 2200.89,-26.5"/>
</g>
<!-- 140026936643056 -->
<g id="node20" class="node">
<title>140026936643056</title>
<polygon fill="none" stroke="black" points="2504,-41 2402,-41 2402,-5 2504,-5 2504,-41"/>
<text text-anchor="middle" x="2453" y="-19.9" font-family="Times,serif" font-size="12.00">DESPLIEGUE</text>
</g>
<!-- 140026936642672&#45;&gt;140026936643056 -->
<g id="edge24" class="edge">
<title>140026936642672&#45;&gt;140026936643056</title>
<path fill="none" stroke="black" d="M2366.47,-23C2374.89,-23 2383.37,-23 2391.55,-23"/>
<polygon fill="black" stroke="black" points="2391.73,-26.5 2401.73,-23 2391.73,-19.5 2391.73,-26.5"/>
</g>
<!-- 140026933412288 -->
<g id="node21" class="node">
<title>140026933412288</title>
<ellipse fill="orange" stroke="black" cx="2558" cy="-23" rx="18" ry="18"/>
</g>
<!-- 140026936643056&#45;&gt;140026933412288 -->
<g id="edge25" class="edge">
<title>140026936643056&#45;&gt;140026933412288</title>
<path fill="none" stroke="black" d="M2504.29,-23C2513.14,-23 2522.04,-23 2529.93,-23"/>
<polygon fill="black" stroke="black" points="2529.98,-26.5 2539.98,-23 2529.98,-19.5 2529.98,-26.5"/>
</g>
</g>
</svg>
