<?xml version="1.0" encoding="UTF-8" standalone="no"?>
<!DOCTYPE svg PUBLIC "-//W3C//DTD SVG 1.1//EN"
 "http://www.w3.org/Graphics/SVG/1.1/DTD/svg11.dtd">
<!-- Generated by graphviz version 2.43.0 (0)
 -->
<!-- Title: %3 Pages: 1 -->
<svg width="2404pt" height="132pt"
 viewBox="0.00 0.00 2404.00 132.00" xmlns="http://www.w3.org/2000/svg" xmlns:xlink="http://www.w3.org/1999/xlink">
<g id="graph0" class="graph" transform="scale(1 1) rotate(0) translate(4 128)">
<title>%3</title>
<!-- 140402662692032 -->
<g id="node1" class="node">
<title>140402662692032</title>
<ellipse fill="green" stroke="black" cx="18" cy="-41" rx="18" ry="18"/>
</g>
<!-- 140402662692320 -->
<g id="node2" class="node">
<title>140402662692320</title>
<polygon fill="none" stroke="black" points="99,-59 72,-41 99,-23 126,-41 99,-59"/>
<text text-anchor="middle" x="99" y="-37.9" font-family="Times,serif" font-size="12.00">X</text>
</g>
<!-- 140402662692032&#45;&gt;140402662692320 -->
<g id="edge1" class="edge">
<title>140402662692032&#45;&gt;140402662692320</title>
<path fill="none" stroke="black" d="M36.14,-41C43.64,-41 52.75,-41 61.64,-41"/>
<polygon fill="black" stroke="black" points="61.87,-44.5 71.87,-41 61.87,-37.5 61.87,-44.5"/>
</g>
<!-- 140402662691552 -->
<g id="node3" class="node">
<title>140402662691552</title>
<polygon fill="none" stroke="black" points="189,-82 162,-64 189,-46 216,-64 189,-82"/>
<text text-anchor="middle" x="189" y="-60.9" font-family="Times,serif" font-size="12.00">X</text>
</g>
<!-- 140402662692320&#45;&gt;140402662691552 -->
<g id="edge2" class="edge">
<title>140402662692320&#45;&gt;140402662691552</title>
<path fill="none" stroke="black" d="M119.09,-45.99C130.82,-49.06 146.07,-53.04 159.24,-56.48"/>
<polygon fill="black" stroke="black" points="158.68,-59.96 169.24,-59.1 160.45,-53.18 158.68,-59.96"/>
</g>
<!-- 140402662694096 -->
<g id="node4" class="node">
<title>140402662694096</title>
<polygon fill="none" stroke="black" points="527,-59 500,-41 527,-23 554,-41 527,-59"/>
<text text-anchor="middle" x="527" y="-37.9" font-family="Times,serif" font-size="12.00">X</text>
</g>
<!-- 140402662692320&#45;&gt;140402662694096 -->
<g id="edge3" class="edge">
<title>140402662692320&#45;&gt;140402662694096</title>
<path fill="none" stroke="black" d="M123.24,-39.14C134.87,-38.31 149.17,-37.41 162,-37 296.15,-32.68 329.85,-32.68 464,-37 473.32,-37.3 483.42,-37.85 492.7,-38.46"/>
<polygon fill="black" stroke="black" points="492.54,-41.95 502.76,-39.14 493.02,-34.97 492.54,-41.95"/>
</g>
<!-- 140402662692896 -->
<g id="node6" class="node">
<title>140402662692896</title>
<polygon fill="none" stroke="black" points="374,-124 252,-124 252,-88 374,-88 374,-124"/>
<text text-anchor="middle" x="313" y="-102.9" font-family="Times,serif" font-size="12.00">PLANIFICACION</text>
</g>
<!-- 140402662691552&#45;&gt;140402662692896 -->
<g id="edge5" class="edge">
<title>140402662691552&#45;&gt;140402662692896</title>
<path fill="none" stroke="black" d="M207.22,-69.93C218.53,-73.82 234.1,-79.18 249.76,-84.57"/>
<polygon fill="black" stroke="black" points="248.9,-87.98 259.5,-87.93 251.18,-81.36 248.9,-87.98"/>
</g>
<!-- 140403434638016 -->
<g id="node5" class="node">
<title>140403434638016</title>
<polygon fill="none" stroke="black" points="778,-59 590,-59 590,-23 778,-23 778,-59"/>
<text text-anchor="middle" x="684" y="-37.9" font-family="Times,serif" font-size="12.00">SEGUIMIENTO_In Progress</text>
</g>
<!-- 140402662694096&#45;&gt;140403434638016 -->
<g id="edge4" class="edge">
<title>140402662694096&#45;&gt;140403434638016</title>
<path fill="none" stroke="black" d="M554.29,-41C561.78,-41 570.42,-41 579.6,-41"/>
<polygon fill="black" stroke="black" points="579.76,-44.5 589.76,-41 579.76,-37.5 579.76,-44.5"/>
</g>
<!-- 140403434635712 -->
<g id="node8" class="node">
<title>140403434635712</title>
<polygon fill="none" stroke="black" points="989,-59 814,-59 814,-23 989,-23 989,-59"/>
<text text-anchor="middle" x="901.5" y="-37.9" font-family="Times,serif" font-size="12.00">IMPLEMENTACION_code</text>
</g>
<!-- 140403434638016&#45;&gt;140403434635712 -->
<g id="edge7" class="edge">
<title>140403434638016&#45;&gt;140403434635712</title>
<path fill="none" stroke="black" d="M778.27,-41C786.68,-41 795.21,-41 803.65,-41"/>
<polygon fill="black" stroke="black" points="803.89,-44.5 813.89,-41 803.89,-37.5 803.89,-44.5"/>
</g>
<!-- 140402662694144 -->
<g id="node7" class="node">
<title>140402662694144</title>
<polygon fill="none" stroke="black" points="437,-82 410,-64 437,-46 464,-64 437,-82"/>
<text text-anchor="middle" x="437" y="-60.9" font-family="Times,serif" font-size="12.00">X</text>
</g>
<!-- 140402662692896&#45;&gt;140402662694144 -->
<g id="edge6" class="edge">
<title>140402662692896&#45;&gt;140402662694144</title>
<path fill="none" stroke="black" d="M366.45,-87.94C381.08,-82.91 396.38,-77.64 408.89,-73.33"/>
<polygon fill="black" stroke="black" points="410.36,-76.53 418.67,-69.96 408.08,-69.91 410.36,-76.53"/>
</g>
<!-- 140402662694144&#45;&gt;140402662691552 -->
<g id="edge8" class="edge">
<title>140402662694144&#45;&gt;140402662691552</title>
<path fill="none" stroke="black" d="M409.86,-64C365.79,-64 276.59,-64 226.41,-64"/>
<polygon fill="black" stroke="black" points="226.33,-60.5 216.33,-64 226.33,-67.5 226.33,-60.5"/>
</g>
<!-- 140402662694144&#45;&gt;140402662694096 -->
<g id="edge9" class="edge">
<title>140402662694144&#45;&gt;140402662694096</title>
<path fill="none" stroke="black" d="M457.09,-59.01C468.82,-55.94 484.07,-51.96 497.24,-48.52"/>
<polygon fill="black" stroke="black" points="498.45,-51.82 507.24,-45.9 496.68,-45.04 498.45,-51.82"/>
</g>
<!-- 140403434635856 -->
<g id="node9" class="node">
<title>140403434635856</title>
<polygon fill="none" stroke="black" points="1052,-59 1025,-41 1052,-23 1079,-41 1052,-59"/>
<text text-anchor="middle" x="1052" y="-37.9" font-family="Times,serif" font-size="12.00">X</text>
</g>
<!-- 140403434635712&#45;&gt;140403434635856 -->
<g id="edge10" class="edge">
<title>140403434635712&#45;&gt;140403434635856</title>
<path fill="none" stroke="black" d="M989.31,-41C998.21,-41 1006.87,-41 1014.74,-41"/>
<polygon fill="black" stroke="black" points="1014.94,-44.5 1024.94,-41 1014.94,-37.5 1014.94,-44.5"/>
</g>
<!-- 140403434635952 -->
<g id="node10" class="node">
<title>140403434635952</title>
<polygon fill="none" stroke="black" points="1346,-59 1319,-41 1346,-23 1373,-41 1346,-59"/>
<text text-anchor="middle" x="1346" y="-37.9" font-family="Times,serif" font-size="12.00">X</text>
</g>
<!-- 140403434635856&#45;&gt;140403434635952 -->
<g id="edge12" class="edge">
<title>140403434635856&#45;&gt;140403434635952</title>
<path fill="none" stroke="black" d="M1076.24,-42.86C1087.87,-43.69 1102.17,-44.59 1115,-45 1189.63,-47.4 1208.37,-47.4 1283,-45 1292.32,-44.7 1302.42,-44.15 1311.7,-43.54"/>
<polygon fill="black" stroke="black" points="1312.02,-47.03 1321.76,-42.86 1311.54,-40.05 1312.02,-47.03"/>
</g>
<!-- 140403434638208 -->
<g id="node11" class="node">
<title>140403434638208</title>
<polygon fill="none" stroke="black" points="1283,-36 1115,-36 1115,0 1283,0 1283,-36"/>
<text text-anchor="middle" x="1199" y="-14.9" font-family="Times,serif" font-size="12.00">IMPLEMENTACION_test</text>
</g>
<!-- 140403434635856&#45;&gt;140403434638208 -->
<g id="edge11" class="edge">
<title>140403434635856&#45;&gt;140403434638208</title>
<path fill="none" stroke="black" d="M1074.08,-37.66C1082.71,-36.29 1093.34,-34.6 1104.71,-32.8"/>
<polygon fill="black" stroke="black" points="1105.54,-36.21 1114.87,-31.19 1104.44,-29.3 1105.54,-36.21"/>
</g>
<!-- 140403434638160 -->
<g id="node12" class="node">
<title>140403434638160</title>
<polygon fill="none" stroke="black" points="1436,-59 1409,-41 1436,-23 1463,-41 1436,-59"/>
<text text-anchor="middle" x="1436" y="-37.9" font-family="Times,serif" font-size="12.00">X</text>
</g>
<!-- 140403434635952&#45;&gt;140403434638160 -->
<g id="edge14" class="edge">
<title>140403434635952&#45;&gt;140403434638160</title>
<path fill="none" stroke="black" d="M1373.4,-41C1381.39,-41 1390.31,-41 1398.82,-41"/>
<polygon fill="black" stroke="black" points="1398.92,-44.5 1408.92,-41 1398.92,-37.5 1398.92,-44.5"/>
</g>
<!-- 140403434638208&#45;&gt;140403434635952 -->
<g id="edge13" class="edge">
<title>140403434638208&#45;&gt;140403434635952</title>
<path fill="none" stroke="black" d="M1283.09,-31.18C1293.91,-32.9 1304.41,-34.56 1313.6,-36.02"/>
<polygon fill="black" stroke="black" points="1313.3,-39.52 1323.72,-37.62 1314.39,-32.6 1313.3,-39.52"/>
</g>
<!-- 140403434636864 -->
<g id="node13" class="node">
<title>140403434636864</title>
<polygon fill="none" stroke="black" points="1659,-82 1499,-82 1499,-46 1659,-46 1659,-82"/>
<text text-anchor="middle" x="1579" y="-60.9" font-family="Times,serif" font-size="12.00">EJECUCION_PIPELINE</text>
</g>
<!-- 140403434638160&#45;&gt;140403434636864 -->
<g id="edge15" class="edge">
<title>140403434638160&#45;&gt;140403434636864</title>
<path fill="none" stroke="black" d="M1458.11,-44.44C1466.78,-45.86 1477.46,-47.6 1488.84,-49.46"/>
<polygon fill="black" stroke="black" points="1488.56,-52.96 1498.99,-51.11 1489.68,-46.05 1488.56,-52.96"/>
</g>
<!-- 140402662660320 -->
<g id="node14" class="node">
<title>140402662660320</title>
<polygon fill="none" stroke="black" points="1790,-82 1695,-82 1695,-46 1790,-46 1790,-82"/>
<text text-anchor="middle" x="1742.5" y="-60.9" font-family="Times,serif" font-size="12.00">CONSTRUIR</text>
</g>
<!-- 140403434636864&#45;&gt;140402662660320 -->
<g id="edge16" class="edge">
<title>140403434636864&#45;&gt;140402662660320</title>
<path fill="none" stroke="black" d="M1659.33,-64C1667.86,-64 1676.4,-64 1684.59,-64"/>
<polygon fill="black" stroke="black" points="1684.74,-67.5 1694.74,-64 1684.74,-60.5 1684.74,-67.5"/>
</g>
<!-- 140402662659312 -->
<g id="node15" class="node">
<title>140402662659312</title>
<polygon fill="none" stroke="black" points="1905,-82 1826,-82 1826,-46 1905,-46 1905,-82"/>
<text text-anchor="middle" x="1865.5" y="-60.9" font-family="Times,serif" font-size="12.00">PRUEBAS</text>
</g>
<!-- 140402662660320&#45;&gt;140402662659312 -->
<g id="edge17" class="edge">
<title>140402662660320&#45;&gt;140402662659312</title>
<path fill="none" stroke="black" d="M1790.28,-64C1798.6,-64 1807.29,-64 1815.67,-64"/>
<polygon fill="black" stroke="black" points="1815.68,-67.5 1825.68,-64 1815.68,-60.5 1815.68,-67.5"/>
</g>
<!-- 140402662661952 -->
<g id="node16" class="node">
<title>140402662661952</title>
<polygon fill="none" stroke="black" points="2096,-82 1941,-82 1941,-46 2096,-46 2096,-82"/>
<text text-anchor="middle" x="2018.5" y="-60.9" font-family="Times,serif" font-size="12.00">CONSTRUIR_IMAGEN</text>
</g>
<!-- 140402662659312&#45;&gt;140402662661952 -->
<g id="edge18" class="edge">
<title>140402662659312&#45;&gt;140402662661952</title>
<path fill="none" stroke="black" d="M1905.39,-64C1913.32,-64 1921.97,-64 1930.83,-64"/>
<polygon fill="black" stroke="black" points="1930.89,-67.5 1940.89,-64 1930.89,-60.5 1930.89,-67.5"/>
</g>
<!-- 140403434637920 -->
<g id="node17" class="node">
<title>140403434637920</title>
<polygon fill="none" stroke="black" points="2159,-59 2132,-41 2159,-23 2186,-41 2159,-59"/>
<text text-anchor="middle" x="2159" y="-37.9" font-family="Times,serif" font-size="12.00">X</text>
</g>
<!-- 140402662661952&#45;&gt;140403434637920 -->
<g id="edge19" class="edge">
<title>140402662661952&#45;&gt;140403434637920</title>
<path fill="none" stroke="black" d="M2096.04,-51.29C2107.04,-49.46 2117.79,-47.68 2127.17,-46.12"/>
<polygon fill="black" stroke="black" points="2127.82,-49.56 2137.11,-44.47 2126.67,-42.65 2127.82,-49.56"/>
</g>
<!-- 140403434637920&#45;&gt;140403434638160 -->
<g id="edge20" class="edge">
<title>140403434637920&#45;&gt;140403434638160</title>
<path fill="none" stroke="black" d="M2136.11,-38.09C2087.63,-31.9 1967.52,-18 1866.5,-18 1741.5,-18 1741.5,-18 1741.5,-18 1642.1,-18 1524.96,-30.34 1469.39,-36.94"/>
<polygon fill="black" stroke="black" points="1468.63,-33.51 1459.12,-38.18 1469.46,-40.46 1468.63,-33.51"/>
</g>
<!-- 140402662659840 -->
<g id="node18" class="node">
<title>140402662659840</title>
<polygon fill="none" stroke="black" points="2324,-59 2222,-59 2222,-23 2324,-23 2324,-59"/>
<text text-anchor="middle" x="2273" y="-37.9" font-family="Times,serif" font-size="12.00">DESPLIEGUE</text>
</g>
<!-- 140403434637920&#45;&gt;140402662659840 -->
<g id="edge21" class="edge">
<title>140403434637920&#45;&gt;140402662659840</title>
<path fill="none" stroke="black" d="M2186.26,-41C2193.96,-41 2202.73,-41 2211.64,-41"/>
<polygon fill="black" stroke="black" points="2211.71,-44.5 2221.71,-41 2211.71,-37.5 2211.71,-44.5"/>
</g>
<!-- 140402662692560 -->
<g id="node19" class="node">
<title>140402662692560</title>
<ellipse fill="orange" stroke="black" cx="2378" cy="-41" rx="18" ry="18"/>
</g>
<!-- 140402662659840&#45;&gt;140402662692560 -->
<g id="edge22" class="edge">
<title>140402662659840&#45;&gt;140402662692560</title>
<path fill="none" stroke="black" d="M2324.29,-41C2333.14,-41 2342.04,-41 2349.93,-41"/>
<polygon fill="black" stroke="black" points="2349.98,-44.5 2359.98,-41 2349.98,-37.5 2349.98,-44.5"/>
</g>
</g>
</svg>
