<?xml version="1.0" encoding="UTF-8" standalone="no"?>
<!DOCTYPE svg PUBLIC "-//W3C//DTD SVG 1.1//EN"
 "http://www.w3.org/Graphics/SVG/1.1/DTD/svg11.dtd">
<!-- Generated by graphviz version 2.43.0 (0)
 -->
<!-- Title: %3 Pages: 1 -->
<svg width="2404pt" height="132pt"
 viewBox="0.00 0.00 2404.00 132.00" xmlns="http://www.w3.org/2000/svg" xmlns:xlink="http://www.w3.org/1999/xlink">
<g id="graph0" class="graph" transform="scale(1 1) rotate(0) translate(4 128)">
<title>%3</title>
<!-- 140192078249168 -->
<g id="node1" class="node">
<title>140192078249168</title>
<ellipse fill="green" stroke="black" cx="18" cy="-41" rx="18" ry="18"/>
</g>
<!-- 140192078248784 -->
<g id="node2" class="node">
<title>140192078248784</title>
<polygon fill="none" stroke="black" points="99,-59 72,-41 99,-23 126,-41 99,-59"/>
<text text-anchor="middle" x="99" y="-37.9" font-family="Times,serif" font-size="12.00">X</text>
</g>
<!-- 140192078249168&#45;&gt;140192078248784 -->
<g id="edge1" class="edge">
<title>140192078249168&#45;&gt;140192078248784</title>
<path fill="none" stroke="black" d="M36.14,-41C43.64,-41 52.75,-41 61.64,-41"/>
<polygon fill="black" stroke="black" points="61.87,-44.5 71.87,-41 61.87,-37.5 61.87,-44.5"/>
</g>
<!-- 140192078248304 -->
<g id="node3" class="node">
<title>140192078248304</title>
<polygon fill="none" stroke="black" points="189,-82 162,-64 189,-46 216,-64 189,-82"/>
<text text-anchor="middle" x="189" y="-60.9" font-family="Times,serif" font-size="12.00">X</text>
</g>
<!-- 140192078248784&#45;&gt;140192078248304 -->
<g id="edge2" class="edge">
<title>140192078248784&#45;&gt;140192078248304</title>
<path fill="none" stroke="black" d="M119.09,-45.99C130.82,-49.06 146.07,-53.04 159.24,-56.48"/>
<polygon fill="black" stroke="black" points="158.68,-59.96 169.24,-59.1 160.45,-53.18 158.68,-59.96"/>
</g>
<!-- 140192078248688 -->
<g id="node4" class="node">
<title>140192078248688</title>
<polygon fill="none" stroke="black" points="527,-59 500,-41 527,-23 554,-41 527,-59"/>
<text text-anchor="middle" x="527" y="-37.9" font-family="Times,serif" font-size="12.00">X</text>
</g>
<!-- 140192078248784&#45;&gt;140192078248688 -->
<g id="edge3" class="edge">
<title>140192078248784&#45;&gt;140192078248688</title>
<path fill="none" stroke="black" d="M123.24,-39.14C134.87,-38.31 149.17,-37.41 162,-37 296.15,-32.68 329.85,-32.68 464,-37 473.32,-37.3 483.42,-37.85 492.7,-38.46"/>
<polygon fill="black" stroke="black" points="492.54,-41.95 502.76,-39.14 493.02,-34.97 492.54,-41.95"/>
</g>
<!-- 140192078248352 -->
<g id="node6" class="node">
<title>140192078248352</title>
<polygon fill="none" stroke="black" points="374,-124 252,-124 252,-88 374,-88 374,-124"/>
<text text-anchor="middle" x="313" y="-102.9" font-family="Times,serif" font-size="12.00">PLANIFICACION</text>
</g>
<!-- 140192078248304&#45;&gt;140192078248352 -->
<g id="edge5" class="edge">
<title>140192078248304&#45;&gt;140192078248352</title>
<path fill="none" stroke="black" d="M207.22,-69.93C218.53,-73.82 234.1,-79.18 249.76,-84.57"/>
<polygon fill="black" stroke="black" points="248.9,-87.98 259.5,-87.93 251.18,-81.36 248.9,-87.98"/>
</g>
<!-- 140192078628656 -->
<g id="node5" class="node">
<title>140192078628656</title>
<polygon fill="none" stroke="black" points="617,-59 590,-41 617,-23 644,-41 617,-59"/>
<text text-anchor="middle" x="617" y="-37.9" font-family="Times,serif" font-size="12.00">X</text>
</g>
<!-- 140192078248688&#45;&gt;140192078628656 -->
<g id="edge4" class="edge">
<title>140192078248688&#45;&gt;140192078628656</title>
<path fill="none" stroke="black" d="M554.4,-41C562.39,-41 571.31,-41 579.82,-41"/>
<polygon fill="black" stroke="black" points="579.92,-44.5 589.92,-41 579.92,-37.5 579.92,-44.5"/>
</g>
<!-- 140192078628320 -->
<g id="node7" class="node">
<title>140192078628320</title>
<polygon fill="none" stroke="black" points="931,-59 904,-41 931,-23 958,-41 931,-59"/>
<text text-anchor="middle" x="931" y="-37.9" font-family="Times,serif" font-size="12.00">X</text>
</g>
<!-- 140192078628656&#45;&gt;140192078628320 -->
<g id="edge8" class="edge">
<title>140192078628656&#45;&gt;140192078628320</title>
<path fill="none" stroke="black" d="M641.24,-42.86C652.87,-43.69 667.17,-44.59 680,-45 763.51,-47.69 784.49,-47.69 868,-45 877.32,-44.7 887.42,-44.15 896.7,-43.54"/>
<polygon fill="black" stroke="black" points="897.02,-47.03 906.76,-42.86 896.54,-40.05 897.02,-47.03"/>
</g>
<!-- 140192078148176 -->
<g id="node9" class="node">
<title>140192078148176</title>
<polygon fill="none" stroke="black" points="868,-36 680,-36 680,0 868,0 868,-36"/>
<text text-anchor="middle" x="774" y="-14.9" font-family="Times,serif" font-size="12.00">SEGUIMIENTO_In Progress</text>
</g>
<!-- 140192078628656&#45;&gt;140192078148176 -->
<g id="edge7" class="edge">
<title>140192078628656&#45;&gt;140192078148176</title>
<path fill="none" stroke="black" d="M639.55,-37.8C648.04,-36.54 658.46,-35 669.68,-33.33"/>
<polygon fill="black" stroke="black" points="670.36,-36.77 679.73,-31.84 669.33,-29.85 670.36,-36.77"/>
</g>
<!-- 140192078248448 -->
<g id="node8" class="node">
<title>140192078248448</title>
<polygon fill="none" stroke="black" points="437,-82 410,-64 437,-46 464,-64 437,-82"/>
<text text-anchor="middle" x="437" y="-60.9" font-family="Times,serif" font-size="12.00">X</text>
</g>
<!-- 140192078248352&#45;&gt;140192078248448 -->
<g id="edge6" class="edge">
<title>140192078248352&#45;&gt;140192078248448</title>
<path fill="none" stroke="black" d="M366.45,-87.94C381.08,-82.91 396.38,-77.64 408.89,-73.33"/>
<polygon fill="black" stroke="black" points="410.36,-76.53 418.67,-69.96 408.08,-69.91 410.36,-76.53"/>
</g>
<!-- 140192078150768 -->
<g id="node10" class="node">
<title>140192078150768</title>
<polygon fill="none" stroke="black" points="1169,-59 994,-59 994,-23 1169,-23 1169,-59"/>
<text text-anchor="middle" x="1081.5" y="-37.9" font-family="Times,serif" font-size="12.00">IMPLEMENTACION_code</text>
</g>
<!-- 140192078628320&#45;&gt;140192078150768 -->
<g id="edge12" class="edge">
<title>140192078628320&#45;&gt;140192078150768</title>
<path fill="none" stroke="black" d="M958.21,-41C965.73,-41 974.4,-41 983.59,-41"/>
<polygon fill="black" stroke="black" points="983.73,-44.5 993.73,-41 983.72,-37.5 983.73,-44.5"/>
</g>
<!-- 140192078248448&#45;&gt;140192078248304 -->
<g id="edge10" class="edge">
<title>140192078248448&#45;&gt;140192078248304</title>
<path fill="none" stroke="black" d="M409.86,-64C365.79,-64 276.59,-64 226.41,-64"/>
<polygon fill="black" stroke="black" points="226.33,-60.5 216.33,-64 226.33,-67.5 226.33,-60.5"/>
</g>
<!-- 140192078248448&#45;&gt;140192078248688 -->
<g id="edge9" class="edge">
<title>140192078248448&#45;&gt;140192078248688</title>
<path fill="none" stroke="black" d="M457.09,-59.01C468.82,-55.94 484.07,-51.96 497.24,-48.52"/>
<polygon fill="black" stroke="black" points="498.45,-51.82 507.24,-45.9 496.68,-45.04 498.45,-51.82"/>
</g>
<!-- 140192078148176&#45;&gt;140192078628320 -->
<g id="edge11" class="edge">
<title>140192078148176&#45;&gt;140192078628320</title>
<path fill="none" stroke="black" d="M868.29,-31.84C879.17,-33.46 889.61,-35.01 898.71,-36.36"/>
<polygon fill="black" stroke="black" points="898.32,-39.84 908.73,-37.84 899.35,-32.91 898.32,-39.84"/>
</g>
<!-- 140192078168320 -->
<g id="node11" class="node">
<title>140192078168320</title>
<polygon fill="none" stroke="black" points="1232,-59 1205,-41 1232,-23 1259,-41 1232,-59"/>
<text text-anchor="middle" x="1232" y="-37.9" font-family="Times,serif" font-size="12.00">X</text>
</g>
<!-- 140192078150768&#45;&gt;140192078168320 -->
<g id="edge13" class="edge">
<title>140192078150768&#45;&gt;140192078168320</title>
<path fill="none" stroke="black" d="M1169.31,-41C1178.21,-41 1186.87,-41 1194.74,-41"/>
<polygon fill="black" stroke="black" points="1194.94,-44.5 1204.94,-41 1194.94,-37.5 1194.94,-44.5"/>
</g>
<!-- 140192078168368 -->
<g id="node12" class="node">
<title>140192078168368</title>
<polygon fill="none" stroke="black" points="1526,-59 1499,-41 1526,-23 1553,-41 1526,-59"/>
<text text-anchor="middle" x="1526" y="-37.9" font-family="Times,serif" font-size="12.00">X</text>
</g>
<!-- 140192078168320&#45;&gt;140192078168368 -->
<g id="edge15" class="edge">
<title>140192078168320&#45;&gt;140192078168368</title>
<path fill="none" stroke="black" d="M1256.24,-42.86C1267.87,-43.69 1282.17,-44.59 1295,-45 1369.63,-47.4 1388.37,-47.4 1463,-45 1472.32,-44.7 1482.42,-44.15 1491.7,-43.54"/>
<polygon fill="black" stroke="black" points="1492.02,-47.03 1501.76,-42.86 1491.54,-40.05 1492.02,-47.03"/>
</g>
<!-- 140192078168656 -->
<g id="node13" class="node">
<title>140192078168656</title>
<polygon fill="none" stroke="black" points="1463,-36 1295,-36 1295,0 1463,0 1463,-36"/>
<text text-anchor="middle" x="1379" y="-14.9" font-family="Times,serif" font-size="12.00">IMPLEMENTACION_test</text>
</g>
<!-- 140192078168320&#45;&gt;140192078168656 -->
<g id="edge14" class="edge">
<title>140192078168320&#45;&gt;140192078168656</title>
<path fill="none" stroke="black" d="M1254.08,-37.66C1262.71,-36.29 1273.34,-34.6 1284.71,-32.8"/>
<polygon fill="black" stroke="black" points="1285.54,-36.21 1294.87,-31.19 1284.44,-29.3 1285.54,-36.21"/>
</g>
<!-- 140192078252064 -->
<g id="node14" class="node">
<title>140192078252064</title>
<polygon fill="none" stroke="black" points="1749,-59 1589,-59 1589,-23 1749,-23 1749,-59"/>
<text text-anchor="middle" x="1669" y="-37.9" font-family="Times,serif" font-size="12.00">EJECUCION_PIPELINE</text>
</g>
<!-- 140192078168368&#45;&gt;140192078252064 -->
<g id="edge17" class="edge">
<title>140192078168368&#45;&gt;140192078252064</title>
<path fill="none" stroke="black" d="M1553.19,-41C1560.79,-41 1569.55,-41 1578.77,-41"/>
<polygon fill="black" stroke="black" points="1578.93,-44.5 1588.93,-41 1578.93,-37.5 1578.93,-44.5"/>
</g>
<!-- 140192078168656&#45;&gt;140192078168368 -->
<g id="edge16" class="edge">
<title>140192078168656&#45;&gt;140192078168368</title>
<path fill="none" stroke="black" d="M1463.09,-31.18C1473.91,-32.9 1484.41,-34.56 1493.6,-36.02"/>
<polygon fill="black" stroke="black" points="1493.3,-39.52 1503.72,-37.62 1494.39,-32.6 1493.3,-39.52"/>
</g>
<!-- 140192078168608 -->
<g id="node15" class="node">
<title>140192078168608</title>
<polygon fill="none" stroke="black" points="1880,-59 1785,-59 1785,-23 1880,-23 1880,-59"/>
<text text-anchor="middle" x="1832.5" y="-37.9" font-family="Times,serif" font-size="12.00">CONSTRUIR</text>
</g>
<!-- 140192078252064&#45;&gt;140192078168608 -->
<g id="edge18" class="edge">
<title>140192078252064&#45;&gt;140192078168608</title>
<path fill="none" stroke="black" d="M1749.33,-41C1757.86,-41 1766.4,-41 1774.59,-41"/>
<polygon fill="black" stroke="black" points="1774.74,-44.5 1784.74,-41 1774.74,-37.5 1774.74,-44.5"/>
</g>
<!-- 140192078250576 -->
<g id="node16" class="node">
<title>140192078250576</title>
<polygon fill="none" stroke="black" points="1995,-59 1916,-59 1916,-23 1995,-23 1995,-59"/>
<text text-anchor="middle" x="1955.5" y="-37.9" font-family="Times,serif" font-size="12.00">PRUEBAS</text>
</g>
<!-- 140192078168608&#45;&gt;140192078250576 -->
<g id="edge19" class="edge">
<title>140192078168608&#45;&gt;140192078250576</title>
<path fill="none" stroke="black" d="M1880.28,-41C1888.6,-41 1897.29,-41 1905.67,-41"/>
<polygon fill="black" stroke="black" points="1905.68,-44.5 1915.68,-41 1905.68,-37.5 1905.68,-44.5"/>
</g>
<!-- 140192078250912 -->
<g id="node17" class="node">
<title>140192078250912</title>
<polygon fill="none" stroke="black" points="2186,-59 2031,-59 2031,-23 2186,-23 2186,-59"/>
<text text-anchor="middle" x="2108.5" y="-37.9" font-family="Times,serif" font-size="12.00">CONSTRUIR_IMAGEN</text>
</g>
<!-- 140192078250576&#45;&gt;140192078250912 -->
<g id="edge20" class="edge">
<title>140192078250576&#45;&gt;140192078250912</title>
<path fill="none" stroke="black" d="M1995.39,-41C2003.32,-41 2011.97,-41 2020.83,-41"/>
<polygon fill="black" stroke="black" points="2020.89,-44.5 2030.89,-41 2020.89,-37.5 2020.89,-44.5"/>
</g>
<!-- 140192078251104 -->
<g id="node18" class="node">
<title>140192078251104</title>
<polygon fill="none" stroke="black" points="2324,-59 2222,-59 2222,-23 2324,-23 2324,-59"/>
<text text-anchor="middle" x="2273" y="-37.9" font-family="Times,serif" font-size="12.00">DESPLIEGUE</text>
</g>
<!-- 140192078250912&#45;&gt;140192078251104 -->
<g id="edge21" class="edge">
<title>140192078250912&#45;&gt;140192078251104</title>
<path fill="none" stroke="black" d="M2186.47,-41C2194.89,-41 2203.37,-41 2211.55,-41"/>
<polygon fill="black" stroke="black" points="2211.73,-44.5 2221.73,-41 2211.73,-37.5 2211.73,-44.5"/>
</g>
<!-- 140192078247728 -->
<g id="node19" class="node">
<title>140192078247728</title>
<ellipse fill="orange" stroke="black" cx="2378" cy="-41" rx="18" ry="18"/>
</g>
<!-- 140192078251104&#45;&gt;140192078247728 -->
<g id="edge22" class="edge">
<title>140192078251104&#45;&gt;140192078247728</title>
<path fill="none" stroke="black" d="M2324.29,-41C2333.14,-41 2342.04,-41 2349.93,-41"/>
<polygon fill="black" stroke="black" points="2349.98,-44.5 2359.98,-41 2349.98,-37.5 2349.98,-44.5"/>
</g>
</g>
</svg>
