<?xml version="1.0" encoding="UTF-8" standalone="no"?>
<!DOCTYPE svg PUBLIC "-//W3C//DTD SVG 1.1//EN"
 "http://www.w3.org/Graphics/SVG/1.1/DTD/svg11.dtd">
<!-- Generated by graphviz version 2.43.0 (0)
 -->
<!-- Title: %3 Pages: 1 -->
<svg width="2200pt" height="132pt"
 viewBox="0.00 0.00 2200.00 132.00" xmlns="http://www.w3.org/2000/svg" xmlns:xlink="http://www.w3.org/1999/xlink">
<g id="graph0" class="graph" transform="scale(1 1) rotate(0) translate(4 128)">
<title>%3</title>
<!-- 140197976458240 -->
<g id="node1" class="node">
<title>140197976458240</title>
<ellipse fill="green" stroke="black" cx="18" cy="-41" rx="18" ry="18"/>
</g>
<!-- 140197976459344 -->
<g id="node2" class="node">
<title>140197976459344</title>
<polygon fill="none" stroke="black" points="99,-59 72,-41 99,-23 126,-41 99,-59"/>
<text text-anchor="middle" x="99" y="-37.9" font-family="Times,serif" font-size="12.00">X</text>
</g>
<!-- 140197976458240&#45;&gt;140197976459344 -->
<g id="edge1" class="edge">
<title>140197976458240&#45;&gt;140197976459344</title>
<path fill="none" stroke="black" d="M36.14,-41C43.64,-41 52.75,-41 61.64,-41"/>
<polygon fill="black" stroke="black" points="61.87,-44.5 71.87,-41 61.87,-37.5 61.87,-44.5"/>
</g>
<!-- 140197976458144 -->
<g id="node3" class="node">
<title>140197976458144</title>
<polygon fill="none" stroke="black" points="189,-82 162,-64 189,-46 216,-64 189,-82"/>
<text text-anchor="middle" x="189" y="-60.9" font-family="Times,serif" font-size="12.00">X</text>
</g>
<!-- 140197976459344&#45;&gt;140197976458144 -->
<g id="edge2" class="edge">
<title>140197976459344&#45;&gt;140197976458144</title>
<path fill="none" stroke="black" d="M119.09,-45.99C130.82,-49.06 146.07,-53.04 159.24,-56.48"/>
<polygon fill="black" stroke="black" points="158.68,-59.96 169.24,-59.1 160.45,-53.18 158.68,-59.96"/>
</g>
<!-- 140197976461024 -->
<g id="node4" class="node">
<title>140197976461024</title>
<polygon fill="none" stroke="black" points="527,-59 500,-41 527,-23 554,-41 527,-59"/>
<text text-anchor="middle" x="527" y="-37.9" font-family="Times,serif" font-size="12.00">X</text>
</g>
<!-- 140197976459344&#45;&gt;140197976461024 -->
<g id="edge3" class="edge">
<title>140197976459344&#45;&gt;140197976461024</title>
<path fill="none" stroke="black" d="M123.24,-39.14C134.87,-38.31 149.17,-37.41 162,-37 296.15,-32.68 329.85,-32.68 464,-37 473.32,-37.3 483.42,-37.85 492.7,-38.46"/>
<polygon fill="black" stroke="black" points="492.54,-41.95 502.76,-39.14 493.02,-34.97 492.54,-41.95"/>
</g>
<!-- 140197975646752 -->
<g id="node6" class="node">
<title>140197975646752</title>
<polygon fill="none" stroke="black" points="374,-124 252,-124 252,-88 374,-88 374,-124"/>
<text text-anchor="middle" x="313" y="-102.9" font-family="Times,serif" font-size="12.00">PLANIFICACION</text>
</g>
<!-- 140197976458144&#45;&gt;140197975646752 -->
<g id="edge5" class="edge">
<title>140197976458144&#45;&gt;140197975646752</title>
<path fill="none" stroke="black" d="M207.22,-69.93C218.53,-73.82 234.1,-79.18 249.76,-84.57"/>
<polygon fill="black" stroke="black" points="248.9,-87.98 259.5,-87.93 251.18,-81.36 248.9,-87.98"/>
</g>
<!-- 140197976795792 -->
<g id="node5" class="node">
<title>140197976795792</title>
<polygon fill="none" stroke="black" points="617,-59 590,-41 617,-23 644,-41 617,-59"/>
<text text-anchor="middle" x="617" y="-37.9" font-family="Times,serif" font-size="12.00">X</text>
</g>
<!-- 140197976461024&#45;&gt;140197976795792 -->
<g id="edge4" class="edge">
<title>140197976461024&#45;&gt;140197976795792</title>
<path fill="none" stroke="black" d="M554.4,-41C562.39,-41 571.31,-41 579.82,-41"/>
<polygon fill="black" stroke="black" points="579.92,-44.5 589.92,-41 579.92,-37.5 579.92,-44.5"/>
</g>
<!-- 140197976794160 -->
<g id="node7" class="node">
<title>140197976794160</title>
<polygon fill="none" stroke="black" points="931,-59 904,-41 931,-23 958,-41 931,-59"/>
<text text-anchor="middle" x="931" y="-37.9" font-family="Times,serif" font-size="12.00">X</text>
</g>
<!-- 140197976795792&#45;&gt;140197976794160 -->
<g id="edge8" class="edge">
<title>140197976795792&#45;&gt;140197976794160</title>
<path fill="none" stroke="black" d="M641.24,-42.86C652.87,-43.69 667.17,-44.59 680,-45 763.51,-47.69 784.49,-47.69 868,-45 877.32,-44.7 887.42,-44.15 896.7,-43.54"/>
<polygon fill="black" stroke="black" points="897.02,-47.03 906.76,-42.86 896.54,-40.05 897.02,-47.03"/>
</g>
<!-- 140197976794592 -->
<g id="node9" class="node">
<title>140197976794592</title>
<polygon fill="none" stroke="black" points="868,-36 680,-36 680,0 868,0 868,-36"/>
<text text-anchor="middle" x="774" y="-14.9" font-family="Times,serif" font-size="12.00">SEGUIMIENTO_In Progress</text>
</g>
<!-- 140197976795792&#45;&gt;140197976794592 -->
<g id="edge7" class="edge">
<title>140197976795792&#45;&gt;140197976794592</title>
<path fill="none" stroke="black" d="M639.55,-37.8C648.04,-36.54 658.46,-35 669.68,-33.33"/>
<polygon fill="black" stroke="black" points="670.36,-36.77 679.73,-31.84 669.33,-29.85 670.36,-36.77"/>
</g>
<!-- 140197976458720 -->
<g id="node8" class="node">
<title>140197976458720</title>
<polygon fill="none" stroke="black" points="437,-82 410,-64 437,-46 464,-64 437,-82"/>
<text text-anchor="middle" x="437" y="-60.9" font-family="Times,serif" font-size="12.00">X</text>
</g>
<!-- 140197975646752&#45;&gt;140197976458720 -->
<g id="edge6" class="edge">
<title>140197975646752&#45;&gt;140197976458720</title>
<path fill="none" stroke="black" d="M366.45,-87.94C381.08,-82.91 396.38,-77.64 408.89,-73.33"/>
<polygon fill="black" stroke="black" points="410.36,-76.53 418.67,-69.96 408.08,-69.91 410.36,-76.53"/>
</g>
<!-- 140197976796032 -->
<g id="node10" class="node">
<title>140197976796032</title>
<polygon fill="none" stroke="black" points="1169,-59 994,-59 994,-23 1169,-23 1169,-59"/>
<text text-anchor="middle" x="1081.5" y="-37.9" font-family="Times,serif" font-size="12.00">IMPLEMENTACION_code</text>
</g>
<!-- 140197976794160&#45;&gt;140197976796032 -->
<g id="edge12" class="edge">
<title>140197976794160&#45;&gt;140197976796032</title>
<path fill="none" stroke="black" d="M958.21,-41C965.73,-41 974.4,-41 983.59,-41"/>
<polygon fill="black" stroke="black" points="983.73,-44.5 993.73,-41 983.72,-37.5 983.73,-44.5"/>
</g>
<!-- 140197976458720&#45;&gt;140197976458144 -->
<g id="edge10" class="edge">
<title>140197976458720&#45;&gt;140197976458144</title>
<path fill="none" stroke="black" d="M409.86,-64C365.79,-64 276.59,-64 226.41,-64"/>
<polygon fill="black" stroke="black" points="226.33,-60.5 216.33,-64 226.33,-67.5 226.33,-60.5"/>
</g>
<!-- 140197976458720&#45;&gt;140197976461024 -->
<g id="edge9" class="edge">
<title>140197976458720&#45;&gt;140197976461024</title>
<path fill="none" stroke="black" d="M457.09,-59.01C468.82,-55.94 484.07,-51.96 497.24,-48.52"/>
<polygon fill="black" stroke="black" points="498.45,-51.82 507.24,-45.9 496.68,-45.04 498.45,-51.82"/>
</g>
<!-- 140197976794592&#45;&gt;140197976794160 -->
<g id="edge11" class="edge">
<title>140197976794592&#45;&gt;140197976794160</title>
<path fill="none" stroke="black" d="M868.29,-31.84C879.17,-33.46 889.61,-35.01 898.71,-36.36"/>
<polygon fill="black" stroke="black" points="898.32,-39.84 908.73,-37.84 899.35,-32.91 898.32,-39.84"/>
</g>
<!-- 140197976795264 -->
<g id="node11" class="node">
<title>140197976795264</title>
<polygon fill="none" stroke="black" points="1232,-59 1205,-41 1232,-23 1259,-41 1232,-59"/>
<text text-anchor="middle" x="1232" y="-37.9" font-family="Times,serif" font-size="12.00">X</text>
</g>
<!-- 140197976796032&#45;&gt;140197976795264 -->
<g id="edge13" class="edge">
<title>140197976796032&#45;&gt;140197976795264</title>
<path fill="none" stroke="black" d="M1169.31,-41C1178.21,-41 1186.87,-41 1194.74,-41"/>
<polygon fill="black" stroke="black" points="1194.94,-44.5 1204.94,-41 1194.94,-37.5 1194.94,-44.5"/>
</g>
<!-- 140197976793824 -->
<g id="node12" class="node">
<title>140197976793824</title>
<polygon fill="none" stroke="black" points="1455,-82 1295,-82 1295,-46 1455,-46 1455,-82"/>
<text text-anchor="middle" x="1375" y="-60.9" font-family="Times,serif" font-size="12.00">EJECUCION_PIPELINE</text>
</g>
<!-- 140197976795264&#45;&gt;140197976793824 -->
<g id="edge14" class="edge">
<title>140197976795264&#45;&gt;140197976793824</title>
<path fill="none" stroke="black" d="M1254.11,-44.44C1262.78,-45.86 1273.46,-47.6 1284.84,-49.46"/>
<polygon fill="black" stroke="black" points="1284.56,-52.96 1294.99,-51.11 1285.68,-46.05 1284.56,-52.96"/>
</g>
<!-- 140197976796224 -->
<g id="node13" class="node">
<title>140197976796224</title>
<polygon fill="none" stroke="black" points="1586,-82 1491,-82 1491,-46 1586,-46 1586,-82"/>
<text text-anchor="middle" x="1538.5" y="-60.9" font-family="Times,serif" font-size="12.00">CONSTRUIR</text>
</g>
<!-- 140197976793824&#45;&gt;140197976796224 -->
<g id="edge15" class="edge">
<title>140197976793824&#45;&gt;140197976796224</title>
<path fill="none" stroke="black" d="M1455.33,-64C1463.86,-64 1472.4,-64 1480.59,-64"/>
<polygon fill="black" stroke="black" points="1480.74,-67.5 1490.74,-64 1480.74,-60.5 1480.74,-67.5"/>
</g>
<!-- 140197812889824 -->
<g id="node14" class="node">
<title>140197812889824</title>
<polygon fill="none" stroke="black" points="1701,-82 1622,-82 1622,-46 1701,-46 1701,-82"/>
<text text-anchor="middle" x="1661.5" y="-60.9" font-family="Times,serif" font-size="12.00">PRUEBAS</text>
</g>
<!-- 140197976796224&#45;&gt;140197812889824 -->
<g id="edge16" class="edge">
<title>140197976796224&#45;&gt;140197812889824</title>
<path fill="none" stroke="black" d="M1586.28,-64C1594.6,-64 1603.29,-64 1611.67,-64"/>
<polygon fill="black" stroke="black" points="1611.68,-67.5 1621.68,-64 1611.68,-60.5 1611.68,-67.5"/>
</g>
<!-- 140197976794928 -->
<g id="node15" class="node">
<title>140197976794928</title>
<polygon fill="none" stroke="black" points="1892,-82 1737,-82 1737,-46 1892,-46 1892,-82"/>
<text text-anchor="middle" x="1814.5" y="-60.9" font-family="Times,serif" font-size="12.00">CONSTRUIR_IMAGEN</text>
</g>
<!-- 140197812889824&#45;&gt;140197976794928 -->
<g id="edge17" class="edge">
<title>140197812889824&#45;&gt;140197976794928</title>
<path fill="none" stroke="black" d="M1701.39,-64C1709.32,-64 1717.97,-64 1726.83,-64"/>
<polygon fill="black" stroke="black" points="1726.89,-67.5 1736.89,-64 1726.89,-60.5 1726.89,-67.5"/>
</g>
<!-- 140197976795360 -->
<g id="node16" class="node">
<title>140197976795360</title>
<polygon fill="none" stroke="black" points="1955,-59 1928,-41 1955,-23 1982,-41 1955,-59"/>
<text text-anchor="middle" x="1955" y="-37.9" font-family="Times,serif" font-size="12.00">X</text>
</g>
<!-- 140197976794928&#45;&gt;140197976795360 -->
<g id="edge18" class="edge">
<title>140197976794928&#45;&gt;140197976795360</title>
<path fill="none" stroke="black" d="M1892.04,-51.29C1903.04,-49.46 1913.79,-47.68 1923.17,-46.12"/>
<polygon fill="black" stroke="black" points="1923.82,-49.56 1933.11,-44.47 1922.67,-42.65 1923.82,-49.56"/>
</g>
<!-- 140197976795360&#45;&gt;140197976795264 -->
<g id="edge19" class="edge">
<title>140197976795360&#45;&gt;140197976795264</title>
<path fill="none" stroke="black" d="M1932.11,-38.09C1883.63,-31.9 1763.52,-18 1662.5,-18 1537.5,-18 1537.5,-18 1537.5,-18 1438.1,-18 1320.96,-30.34 1265.39,-36.94"/>
<polygon fill="black" stroke="black" points="1264.63,-33.51 1255.12,-38.18 1265.46,-40.46 1264.63,-33.51"/>
</g>
<!-- 140197976434912 -->
<g id="node17" class="node">
<title>140197976434912</title>
<polygon fill="none" stroke="black" points="2120,-59 2018,-59 2018,-23 2120,-23 2120,-59"/>
<text text-anchor="middle" x="2069" y="-37.9" font-family="Times,serif" font-size="12.00">DESPLIEGUE</text>
</g>
<!-- 140197976795360&#45;&gt;140197976434912 -->
<g id="edge20" class="edge">
<title>140197976795360&#45;&gt;140197976434912</title>
<path fill="none" stroke="black" d="M1982.26,-41C1989.96,-41 1998.73,-41 2007.64,-41"/>
<polygon fill="black" stroke="black" points="2007.71,-44.5 2017.71,-41 2007.71,-37.5 2007.71,-44.5"/>
</g>
<!-- 140197976458864 -->
<g id="node18" class="node">
<title>140197976458864</title>
<ellipse fill="orange" stroke="black" cx="2174" cy="-41" rx="18" ry="18"/>
</g>
<!-- 140197976434912&#45;&gt;140197976458864 -->
<g id="edge21" class="edge">
<title>140197976434912&#45;&gt;140197976458864</title>
<path fill="none" stroke="black" d="M2120.29,-41C2129.14,-41 2138.04,-41 2145.93,-41"/>
<polygon fill="black" stroke="black" points="2145.98,-44.5 2155.98,-41 2145.98,-37.5 2145.98,-44.5"/>
</g>
</g>
</svg>
