<?xml version="1.0" encoding="UTF-8" standalone="no"?>
<!DOCTYPE svg PUBLIC "-//W3C//DTD SVG 1.1//EN"
 "http://www.w3.org/Graphics/SVG/1.1/DTD/svg11.dtd">
<!-- Generated by graphviz version 2.43.0 (0)
 -->
<!-- Title: %3 Pages: 1 -->
<svg width="2615pt" height="432pt"
 viewBox="0.00 0.00 2615.00 432.00" xmlns="http://www.w3.org/2000/svg" xmlns:xlink="http://www.w3.org/1999/xlink">
<g id="graph0" class="graph" transform="scale(1 1) rotate(0) translate(4 428)">
<title>%3</title>
<!-- 140192078627456 -->
<g id="node1" class="node">
<title>140192078627456</title>
<ellipse fill="green" stroke="black" cx="18" cy="-23" rx="18" ry="18"/>
</g>
<!-- 140192078626880 -->
<g id="node2" class="node">
<title>140192078626880</title>
<polygon fill="none" stroke="black" points="99,-41 72,-23 99,-5 126,-23 99,-41"/>
<text text-anchor="middle" x="99" y="-19.9" font-family="Times,serif" font-size="12.00">X</text>
</g>
<!-- 140192078627456&#45;&gt;140192078626880 -->
<g id="edge1" class="edge">
<title>140192078627456&#45;&gt;140192078626880</title>
<path fill="none" stroke="black" d="M36.14,-23C43.64,-23 52.75,-23 61.64,-23"/>
<polygon fill="black" stroke="black" points="61.87,-26.5 71.87,-23 61.87,-19.5 61.87,-26.5"/>
</g>
<!-- 140192078629616 -->
<g id="node3" class="node">
<title>140192078629616</title>
<polygon fill="none" stroke="black" points="284,-64 162,-64 162,-28 284,-28 284,-64"/>
<text text-anchor="middle" x="223" y="-42.9" font-family="Times,serif" font-size="12.00">PLANIFICACION</text>
</g>
<!-- 140192078626880&#45;&gt;140192078629616 -->
<g id="edge2" class="edge">
<title>140192078626880&#45;&gt;140192078629616</title>
<path fill="none" stroke="black" d="M120.42,-26.85C129.29,-28.52 140.25,-30.59 151.65,-32.74"/>
<polygon fill="black" stroke="black" points="151.28,-36.23 161.75,-34.64 152.57,-29.35 151.28,-36.23"/>
</g>
<!-- 140192078629712 -->
<g id="node4" class="node">
<title>140192078629712</title>
<polygon fill="none" stroke="black" points="347,-64 320,-46 347,-28 374,-46 347,-64"/>
<text text-anchor="middle" x="347" y="-42.9" font-family="Times,serif" font-size="12.00">X</text>
</g>
<!-- 140192078629616&#45;&gt;140192078629712 -->
<g id="edge3" class="edge">
<title>140192078629616&#45;&gt;140192078629712</title>
<path fill="none" stroke="black" d="M284.29,-46C292.97,-46 301.67,-46 309.69,-46"/>
<polygon fill="black" stroke="black" points="309.77,-49.5 319.77,-46 309.77,-42.5 309.77,-49.5"/>
</g>
<!-- 140192079360976 -->
<g id="node5" class="node">
<title>140192079360976</title>
<polygon fill="none" stroke="black" points="437,-106 410,-88 437,-70 464,-88 437,-106"/>
<text text-anchor="middle" x="437" y="-84.9" font-family="Times,serif" font-size="12.00">X</text>
</g>
<!-- 140192078629712&#45;&gt;140192079360976 -->
<g id="edge4" class="edge">
<title>140192078629712&#45;&gt;140192079360976</title>
<path fill="none" stroke="black" d="M363.33,-53.32C376.58,-59.64 395.97,-68.9 411.39,-76.26"/>
<polygon fill="black" stroke="black" points="410.31,-79.62 420.85,-80.77 413.33,-73.3 410.31,-79.62"/>
</g>
<!-- 140192078629808 -->
<g id="node6" class="node">
<title>140192078629808</title>
<polygon fill="none" stroke="black" points="2418,-64 2391,-46 2418,-28 2445,-46 2418,-64"/>
<text text-anchor="middle" x="2418" y="-42.9" font-family="Times,serif" font-size="12.00">X</text>
</g>
<!-- 140192078629712&#45;&gt;140192078629808 -->
<g id="edge5" class="edge">
<title>140192078629712&#45;&gt;140192078629808</title>
<path fill="none" stroke="black" d="M372.76,-45.09C407.14,-43.91 471.29,-42 526,-42 526,-42 526,-42 2239,-42 2288.58,-42 2345.91,-43.57 2381.82,-44.74"/>
<polygon fill="black" stroke="black" points="2382.13,-48.26 2392.24,-45.09 2382.36,-41.26 2382.13,-48.26"/>
</g>
<!-- 140192079362128 -->
<g id="node7" class="node">
<title>140192079362128</title>
<polygon fill="none" stroke="black" points="527,-148 500,-130 527,-112 554,-130 527,-148"/>
<text text-anchor="middle" x="527" y="-126.9" font-family="Times,serif" font-size="12.00">X</text>
</g>
<!-- 140192079360976&#45;&gt;140192079362128 -->
<g id="edge7" class="edge">
<title>140192079360976&#45;&gt;140192079362128</title>
<path fill="none" stroke="black" d="M453.33,-95.32C466.58,-101.64 485.97,-110.9 501.39,-118.26"/>
<polygon fill="black" stroke="black" points="500.31,-121.62 510.85,-122.77 503.33,-115.3 500.31,-121.62"/>
</g>
<!-- 140192078629568 -->
<g id="node8" class="node">
<title>140192078629568</title>
<polygon fill="none" stroke="black" points="2508,-41 2481,-23 2508,-5 2535,-23 2508,-41"/>
<text text-anchor="middle" x="2508" y="-19.9" font-family="Times,serif" font-size="12.00">X</text>
</g>
<!-- 140192078629808&#45;&gt;140192078629568 -->
<g id="edge6" class="edge">
<title>140192078629808&#45;&gt;140192078629568</title>
<path fill="none" stroke="black" d="M2438.09,-41.01C2449.82,-37.94 2465.07,-33.96 2478.24,-30.52"/>
<polygon fill="black" stroke="black" points="2479.45,-33.82 2488.24,-27.9 2477.68,-27.04 2479.45,-33.82"/>
</g>
<!-- 140192079361456 -->
<g id="node9" class="node">
<title>140192079361456</title>
<polygon fill="none" stroke="black" points="617,-224 590,-206 617,-188 644,-206 617,-224"/>
<text text-anchor="middle" x="617" y="-202.9" font-family="Times,serif" font-size="12.00">X</text>
</g>
<!-- 140192079362128&#45;&gt;140192079361456 -->
<g id="edge10" class="edge">
<title>140192079362128&#45;&gt;140192079361456</title>
<path fill="none" stroke="black" d="M539.5,-139.94C554,-152.45 579.12,-174.15 596.6,-189.25"/>
<polygon fill="black" stroke="black" points="594.64,-192.17 604.49,-196.06 599.21,-186.88 594.64,-192.17"/>
</g>
<!-- 140192079361552 -->
<g id="node10" class="node">
<title>140192079361552</title>
<polygon fill="none" stroke="black" points="932,-148 783,-148 783,-112 932,-112 932,-148"/>
<text text-anchor="middle" x="857.5" y="-126.9" font-family="Times,serif" font-size="12.00">SEGUIMIENTO_Done</text>
</g>
<!-- 140192079362128&#45;&gt;140192079361552 -->
<g id="edge9" class="edge">
<title>140192079362128&#45;&gt;140192079361552</title>
<path fill="none" stroke="black" d="M554.05,-130C600.7,-130 700.35,-130 772.54,-130"/>
<polygon fill="black" stroke="black" points="772.99,-133.5 782.99,-130 772.99,-126.5 772.99,-133.5"/>
</g>
<!-- 140192078629568&#45;&gt;140192078626880 -->
<g id="edge8" class="edge">
<title>140192078629568&#45;&gt;140192078626880</title>
<path fill="none" stroke="black" d="M2487.09,-18.73C2454.3,-12.08 2386.8,0 2329,0 346,0 346,0 346,0 268.6,0 178.09,-11.43 131.41,-18.17"/>
<polygon fill="black" stroke="black" points="130.71,-14.74 121.33,-19.66 131.73,-21.66 130.71,-14.74"/>
</g>
<!-- 140192078628320 -->
<g id="node32" class="node">
<title>140192078628320</title>
<ellipse fill="orange" stroke="black" cx="2589" cy="-23" rx="18" ry="18"/>
</g>
<!-- 140192078629568&#45;&gt;140192078628320 -->
<g id="edge11" class="edge">
<title>140192078629568&#45;&gt;140192078628320</title>
<path fill="none" stroke="black" d="M2535.31,-23C2543.42,-23 2552.37,-23 2560.56,-23"/>
<polygon fill="black" stroke="black" points="2560.75,-26.5 2570.75,-23 2560.75,-19.5 2560.75,-26.5"/>
</g>
<!-- 140192079363232 -->
<g id="node11" class="node">
<title>140192079363232</title>
<polygon fill="none" stroke="black" points="707,-270 680,-252 707,-234 734,-252 707,-270"/>
<text text-anchor="middle" x="707" y="-248.9" font-family="Times,serif" font-size="12.00">X</text>
</g>
<!-- 140192079361456&#45;&gt;140192079363232 -->
<g id="edge14" class="edge">
<title>140192079361456&#45;&gt;140192079363232</title>
<path fill="none" stroke="black" d="M632.93,-213.8C646.41,-220.85 666.48,-231.34 682.18,-239.55"/>
<polygon fill="black" stroke="black" points="680.81,-242.78 691.29,-244.31 684.05,-236.58 680.81,-242.78"/>
</g>
<!-- 140192079362848 -->
<g id="node13" class="node">
<title>140192079362848</title>
<polygon fill="none" stroke="black" points="1169,-232 981,-232 981,-196 1169,-196 1169,-232"/>
<text text-anchor="middle" x="1075" y="-210.9" font-family="Times,serif" font-size="12.00">SEGUIMIENTO_In Progress</text>
</g>
<!-- 140192079361456&#45;&gt;140192079362848 -->
<g id="edge13" class="edge">
<title>140192079361456&#45;&gt;140192079362848</title>
<path fill="none" stroke="black" d="M643.49,-206.45C704.91,-207.52 863.84,-210.31 970.45,-212.18"/>
<polygon fill="black" stroke="black" points="970.54,-215.69 980.6,-212.36 970.66,-208.69 970.54,-215.69"/>
</g>
<!-- 140192079362464 -->
<g id="node12" class="node">
<title>140192079362464</title>
<polygon fill="none" stroke="black" points="2238,-148 2211,-130 2238,-112 2265,-130 2238,-148"/>
<text text-anchor="middle" x="2238" y="-126.9" font-family="Times,serif" font-size="12.00">X</text>
</g>
<!-- 140192079361552&#45;&gt;140192079362464 -->
<g id="edge12" class="edge">
<title>140192079361552&#45;&gt;140192079362464</title>
<path fill="none" stroke="black" d="M932,-128.75C1007.14,-127.57 1127.2,-126 1231,-126 1231,-126 1231,-126 2059,-126 2108.58,-126 2165.91,-127.57 2201.82,-128.74"/>
<polygon fill="black" stroke="black" points="2202.13,-132.26 2212.24,-129.09 2202.36,-125.26 2202.13,-132.26"/>
</g>
<!-- 140192079363184 -->
<g id="node16" class="node">
<title>140192079363184</title>
<polygon fill="none" stroke="black" points="945,-312 770,-312 770,-276 945,-276 945,-312"/>
<text text-anchor="middle" x="857.5" y="-290.9" font-family="Times,serif" font-size="12.00">IMPLEMENTACION_code</text>
</g>
<!-- 140192079363232&#45;&gt;140192079363184 -->
<g id="edge17" class="edge">
<title>140192079363232&#45;&gt;140192079363184</title>
<path fill="none" stroke="black" d="M726.51,-257.23C740.87,-261.3 761.79,-267.21 782.67,-273.12"/>
<polygon fill="black" stroke="black" points="781.99,-276.56 792.56,-275.92 783.89,-269.83 781.99,-276.56"/>
</g>
<!-- 140192079361792 -->
<g id="node15" class="node">
<title>140192079361792</title>
<polygon fill="none" stroke="black" points="2328,-106 2301,-88 2328,-70 2355,-88 2328,-106"/>
<text text-anchor="middle" x="2328" y="-84.9" font-family="Times,serif" font-size="12.00">X</text>
</g>
<!-- 140192079362464&#45;&gt;140192079361792 -->
<g id="edge15" class="edge">
<title>140192079362464&#45;&gt;140192079361792</title>
<path fill="none" stroke="black" d="M2254.33,-122.68C2267.58,-116.36 2286.97,-107.1 2302.39,-99.74"/>
<polygon fill="black" stroke="black" points="2304.33,-102.7 2311.85,-95.23 2301.31,-96.38 2304.33,-102.7"/>
</g>
<!-- 140192079363808 -->
<g id="node14" class="node">
<title>140192079363808</title>
<polygon fill="none" stroke="black" points="1232,-290 1205,-272 1232,-254 1259,-272 1232,-290"/>
<text text-anchor="middle" x="1232" y="-268.9" font-family="Times,serif" font-size="12.00">X</text>
</g>
<!-- 140192079362848&#45;&gt;140192079363808 -->
<g id="edge16" class="edge">
<title>140192079362848&#45;&gt;140192079363808</title>
<path fill="none" stroke="black" d="M1132.84,-232.05C1144.85,-236.12 1157.4,-240.55 1169,-245 1181.46,-249.78 1195.08,-255.64 1206.38,-260.68"/>
<polygon fill="black" stroke="black" points="1205.06,-263.92 1215.62,-264.84 1207.94,-257.54 1205.06,-263.92"/>
</g>
<!-- 140192079363136 -->
<g id="node17" class="node">
<title>140192079363136</title>
<polygon fill="none" stroke="black" points="1322,-295 1295,-277 1322,-259 1349,-277 1322,-295"/>
<text text-anchor="middle" x="1322" y="-273.9" font-family="Times,serif" font-size="12.00">X</text>
</g>
<!-- 140192079363808&#45;&gt;140192079363136 -->
<g id="edge20" class="edge">
<title>140192079363808&#45;&gt;140192079363136</title>
<path fill="none" stroke="black" d="M1257.05,-273.37C1266.26,-273.89 1276.96,-274.5 1286.94,-275.06"/>
<polygon fill="black" stroke="black" points="1286.8,-278.56 1296.98,-275.64 1287.2,-271.57 1286.8,-278.56"/>
</g>
<!-- 140192079361792&#45;&gt;140192079360976 -->
<g id="edge18" class="edge">
<title>140192079361792&#45;&gt;140192079360976</title>
<path fill="none" stroke="black" d="M2302.24,-87.09C2267.86,-85.91 2203.71,-84 2149,-84 616,-84 616,-84 616,-84 566.42,-84 509.09,-85.57 473.18,-86.74"/>
<polygon fill="black" stroke="black" points="472.64,-83.26 462.76,-87.09 472.87,-90.26 472.64,-83.26"/>
</g>
<!-- 140192079361792&#45;&gt;140192078629808 -->
<g id="edge19" class="edge">
<title>140192079361792&#45;&gt;140192078629808</title>
<path fill="none" stroke="black" d="M2344.33,-80.68C2357.58,-74.36 2376.97,-65.1 2392.39,-57.74"/>
<polygon fill="black" stroke="black" points="2394.33,-60.7 2401.85,-53.23 2391.31,-54.38 2394.33,-60.7"/>
</g>
<!-- 140192079362368 -->
<g id="node18" class="node">
<title>140192079362368</title>
<polygon fill="none" stroke="black" points="1075,-290 1048,-272 1075,-254 1102,-272 1075,-290"/>
<text text-anchor="middle" x="1075" y="-268.9" font-family="Times,serif" font-size="12.00">X</text>
</g>
<!-- 140192079363184&#45;&gt;140192079362368 -->
<g id="edge21" class="edge">
<title>140192079363184&#45;&gt;140192079362368</title>
<path fill="none" stroke="black" d="M945.22,-285.15C978.99,-281.7 1015.63,-277.96 1041.16,-275.35"/>
<polygon fill="black" stroke="black" points="1041.79,-278.81 1051.38,-274.31 1041.08,-271.84 1041.79,-278.81"/>
</g>
<!-- 140192079362320 -->
<g id="node19" class="node">
<title>140192079362320</title>
<polygon fill="none" stroke="black" points="2148,-278 2121,-260 2148,-242 2175,-260 2148,-278"/>
<text text-anchor="middle" x="2148" y="-256.9" font-family="Times,serif" font-size="12.00">X</text>
</g>
<!-- 140192079363136&#45;&gt;140192079362320 -->
<g id="edge25" class="edge">
<title>140192079363136&#45;&gt;140192079362320</title>
<path fill="none" stroke="black" d="M1330.17,-289.79C1351.29,-325.55 1417.04,-424 1501,-424 1501,-424 1501,-424 1969,-424 2051.6,-424 2112.3,-327.3 2136.03,-282.41"/>
<polygon fill="black" stroke="black" points="2139.19,-283.91 2140.65,-273.42 2132.97,-280.71 2139.19,-283.91"/>
</g>
<!-- 140192079361600 -->
<g id="node20" class="node">
<title>140192079361600</title>
<polygon fill="none" stroke="black" points="1412,-295 1385,-277 1412,-259 1439,-277 1412,-295"/>
<text text-anchor="middle" x="1412" y="-273.9" font-family="Times,serif" font-size="12.00">+</text>
</g>
<!-- 140192079363136&#45;&gt;140192079361600 -->
<g id="edge24" class="edge">
<title>140192079363136&#45;&gt;140192079361600</title>
<path fill="none" stroke="black" d="M1349.4,-277C1357.39,-277 1366.31,-277 1374.82,-277"/>
<polygon fill="black" stroke="black" points="1374.92,-280.5 1384.92,-277 1374.92,-273.5 1374.92,-280.5"/>
</g>
<!-- 140192079362368&#45;&gt;140192079363232 -->
<g id="edge22" class="edge">
<title>140192079362368&#45;&gt;140192079363232</title>
<path fill="none" stroke="black" d="M1049.95,-270.69C986.77,-267.23 815.94,-257.9 742.41,-253.88"/>
<polygon fill="black" stroke="black" points="742.47,-250.38 732.3,-253.33 742.09,-257.37 742.47,-250.38"/>
</g>
<!-- 140192079362368&#45;&gt;140192079363808 -->
<g id="edge23" class="edge">
<title>140192079362368&#45;&gt;140192079363808</title>
<path fill="none" stroke="black" d="M1102.29,-272C1127.64,-272 1166.23,-272 1194.54,-272"/>
<polygon fill="black" stroke="black" points="1194.84,-275.5 1204.84,-272 1194.84,-268.5 1194.84,-275.5"/>
</g>
<!-- 140192079362320&#45;&gt;140192079362464 -->
<g id="edge26" class="edge">
<title>140192079362320&#45;&gt;140192079362464</title>
<path fill="none" stroke="black" d="M2157.12,-248C2172.18,-225.75 2204.6,-177.86 2223.17,-150.42"/>
<polygon fill="black" stroke="black" points="2226.19,-152.21 2228.9,-141.97 2220.39,-148.29 2226.19,-152.21"/>
</g>
<!-- 140192079361888 -->
<g id="node21" class="node">
<title>140192079361888</title>
<polygon fill="none" stroke="black" points="1502,-312 1475,-294 1502,-276 1529,-294 1502,-312"/>
<text text-anchor="middle" x="1502" y="-290.9" font-family="Times,serif" font-size="12.00">X</text>
</g>
<!-- 140192079361600&#45;&gt;140192079361888 -->
<g id="edge27" class="edge">
<title>140192079361600&#45;&gt;140192079361888</title>
<path fill="none" stroke="black" d="M1433.41,-280.94C1444.52,-283.09 1458.47,-285.78 1470.81,-288.17"/>
<polygon fill="black" stroke="black" points="1470.22,-291.62 1480.7,-290.08 1471.55,-284.75 1470.22,-291.62"/>
</g>
<!-- 140192080084944 -->
<g id="node22" class="node">
<title>140192080084944</title>
<polygon fill="none" stroke="black" points="1502,-243 1475,-225 1502,-207 1529,-225 1502,-243"/>
<text text-anchor="middle" x="1502" y="-221.9" font-family="Times,serif" font-size="12.00">X</text>
</g>
<!-- 140192079361600&#45;&gt;140192080084944 -->
<g id="edge28" class="edge">
<title>140192079361600&#45;&gt;140192080084944</title>
<path fill="none" stroke="black" d="M1427.14,-268.65C1440.95,-260.49 1462.19,-247.94 1478.35,-238.38"/>
<polygon fill="black" stroke="black" points="1480.36,-241.26 1487.19,-233.16 1476.8,-235.24 1480.36,-241.26"/>
</g>
<!-- 140192078168272 -->
<g id="node23" class="node">
<title>140192078168272</title>
<polygon fill="none" stroke="black" points="1592,-358 1565,-340 1592,-322 1619,-340 1592,-358"/>
<text text-anchor="middle" x="1592" y="-336.9" font-family="Times,serif" font-size="12.00">X</text>
</g>
<!-- 140192079361888&#45;&gt;140192078168272 -->
<g id="edge29" class="edge">
<title>140192079361888&#45;&gt;140192078168272</title>
<path fill="none" stroke="black" d="M1517.93,-301.8C1531.41,-308.85 1551.48,-319.34 1567.18,-327.55"/>
<polygon fill="black" stroke="black" points="1565.81,-330.78 1576.29,-332.31 1569.05,-324.58 1565.81,-330.78"/>
</g>
<!-- 140191138219728 -->
<g id="node24" class="node">
<title>140191138219728</title>
<polygon fill="none" stroke="black" points="1968,-312 1941,-294 1968,-276 1995,-294 1968,-312"/>
<text text-anchor="middle" x="1968" y="-290.9" font-family="Times,serif" font-size="12.00">X</text>
</g>
<!-- 140192079361888&#45;&gt;140191138219728 -->
<g id="edge30" class="edge">
<title>140192079361888&#45;&gt;140191138219728</title>
<path fill="none" stroke="black" d="M1529.28,-294C1607.74,-294 1840.48,-294 1930.7,-294"/>
<polygon fill="black" stroke="black" points="1930.73,-297.5 1940.73,-294 1930.73,-290.5 1930.73,-297.5"/>
</g>
<!-- 140192080084128 -->
<g id="node25" class="node">
<title>140192080084128</title>
<polygon fill="none" stroke="black" points="1592,-243 1565,-225 1592,-207 1619,-225 1592,-243"/>
<text text-anchor="middle" x="1592" y="-221.9" font-family="Times,serif" font-size="12.00">X</text>
</g>
<!-- 140192080084944&#45;&gt;140192080084128 -->
<g id="edge31" class="edge">
<title>140192080084944&#45;&gt;140192080084128</title>
<path fill="none" stroke="black" d="M1529.4,-225C1537.39,-225 1546.31,-225 1554.82,-225"/>
<polygon fill="black" stroke="black" points="1554.92,-228.5 1564.92,-225 1554.92,-221.5 1554.92,-228.5"/>
</g>
<!-- 140192080083360 -->
<g id="node26" class="node">
<title>140192080083360</title>
<polygon fill="none" stroke="black" points="1968,-243 1941,-225 1968,-207 1995,-225 1968,-243"/>
<text text-anchor="middle" x="1968" y="-221.9" font-family="Times,serif" font-size="12.00">X</text>
</g>
<!-- 140192080084944&#45;&gt;140192080083360 -->
<g id="edge32" class="edge">
<title>140192080084944&#45;&gt;140192080083360</title>
<path fill="none" stroke="black" d="M1517.22,-216.79C1529.44,-210.24 1547.76,-201.59 1565,-198 1712.94,-167.19 1757.06,-167.19 1905,-198 1918.33,-200.78 1932.32,-206.58 1943.62,-212.1"/>
<polygon fill="black" stroke="black" points="1942.28,-215.35 1952.78,-216.79 1945.48,-209.12 1942.28,-215.35"/>
</g>
<!-- 140192078168608 -->
<g id="node29" class="node">
<title>140192078168608</title>
<polygon fill="none" stroke="black" points="1782.5,-396 1687.5,-396 1687.5,-360 1782.5,-360 1782.5,-396"/>
<text text-anchor="middle" x="1735" y="-374.9" font-family="Times,serif" font-size="12.00">CONSTRUIR</text>
</g>
<!-- 140192078168272&#45;&gt;140192078168608 -->
<g id="edge34" class="edge">
<title>140192078168272&#45;&gt;140192078168608</title>
<path fill="none" stroke="black" d="M1611.72,-345.05C1628.5,-349.57 1654.01,-356.44 1677.39,-362.74"/>
<polygon fill="black" stroke="black" points="1676.68,-366.18 1687.24,-365.4 1678.5,-359.42 1676.68,-366.18"/>
</g>
<!-- 140192079362512 -->
<g id="node27" class="node">
<title>140192079362512</title>
<polygon fill="none" stroke="black" points="2058,-278 2031,-260 2058,-242 2085,-260 2058,-278"/>
<text text-anchor="middle" x="2058" y="-256.9" font-family="Times,serif" font-size="12.00">+</text>
</g>
<!-- 140191138219728&#45;&gt;140192079362512 -->
<g id="edge33" class="edge">
<title>140191138219728&#45;&gt;140192079362512</title>
<path fill="none" stroke="black" d="M1985.55,-287.6C1998.34,-282.67 2016.26,-275.74 2030.96,-270.06"/>
<polygon fill="black" stroke="black" points="2032.46,-273.24 2040.52,-266.37 2029.93,-266.71 2032.46,-273.24"/>
</g>
<!-- 140192080083312 -->
<g id="node28" class="node">
<title>140192080083312</title>
<polygon fill="none" stroke="black" points="1815,-266 1655,-266 1655,-230 1815,-230 1815,-266"/>
<text text-anchor="middle" x="1735" y="-244.9" font-family="Times,serif" font-size="12.00">EJECUCION_PIPELINE</text>
</g>
<!-- 140192080084128&#45;&gt;140192080083312 -->
<g id="edge36" class="edge">
<title>140192080084128&#45;&gt;140192080083312</title>
<path fill="none" stroke="black" d="M1614.11,-228.44C1622.78,-229.86 1633.46,-231.6 1644.84,-233.46"/>
<polygon fill="black" stroke="black" points="1644.56,-236.96 1654.99,-235.11 1645.68,-230.05 1644.56,-236.96"/>
</g>
<!-- 140192080083360&#45;&gt;140192079362512 -->
<g id="edge35" class="edge">
<title>140192080083360&#45;&gt;140192079362512</title>
<path fill="none" stroke="black" d="M1985.55,-231.58C1998.34,-236.67 2016.26,-243.8 2030.96,-249.64"/>
<polygon fill="black" stroke="black" points="2029.94,-253 2040.52,-253.45 2032.52,-246.5 2029.94,-253"/>
</g>
<!-- 140192079362512&#45;&gt;140192079362320 -->
<g id="edge37" class="edge">
<title>140192079362512&#45;&gt;140192079362320</title>
<path fill="none" stroke="black" d="M2085.4,-260C2093.39,-260 2102.31,-260 2110.82,-260"/>
<polygon fill="black" stroke="black" points="2110.92,-263.5 2120.92,-260 2110.92,-256.5 2110.92,-263.5"/>
</g>
<!-- 140192080083408 -->
<g id="node31" class="node">
<title>140192080083408</title>
<polygon fill="none" stroke="black" points="1878,-243 1851,-225 1878,-207 1905,-225 1878,-243"/>
<text text-anchor="middle" x="1878" y="-221.9" font-family="Times,serif" font-size="12.00">X</text>
</g>
<!-- 140192080083312&#45;&gt;140192080083408 -->
<g id="edge39" class="edge">
<title>140192080083312&#45;&gt;140192080083408</title>
<path fill="none" stroke="black" d="M1815.16,-235.09C1825.98,-233.32 1836.54,-231.6 1845.77,-230.09"/>
<polygon fill="black" stroke="black" points="1846.63,-233.5 1855.94,-228.44 1845.51,-226.59 1846.63,-233.5"/>
</g>
<!-- 140192078168176 -->
<g id="node30" class="node">
<title>140192078168176</title>
<polygon fill="none" stroke="black" points="1878,-358 1851,-340 1878,-322 1905,-340 1878,-358"/>
<text text-anchor="middle" x="1878" y="-336.9" font-family="Times,serif" font-size="12.00">X</text>
</g>
<!-- 140192078168608&#45;&gt;140192078168176 -->
<g id="edge38" class="edge">
<title>140192078168608&#45;&gt;140192078168176</title>
<path fill="none" stroke="black" d="M1782.56,-365.45C1804.35,-359.58 1829.61,-352.77 1848.52,-347.68"/>
<polygon fill="black" stroke="black" points="1849.56,-351.02 1858.31,-345.04 1847.74,-344.26 1849.56,-351.02"/>
</g>
<!-- 140192078168176&#45;&gt;140192078168272 -->
<g id="edge42" class="edge">
<title>140192078168176&#45;&gt;140192078168272</title>
<path fill="none" stroke="black" d="M1850.85,-340C1799.97,-340 1687.55,-340 1629.41,-340"/>
<polygon fill="black" stroke="black" points="1629.21,-336.5 1619.21,-340 1629.21,-343.5 1629.21,-336.5"/>
</g>
<!-- 140192078168176&#45;&gt;140191138219728 -->
<g id="edge43" class="edge">
<title>140192078168176&#45;&gt;140191138219728</title>
<path fill="none" stroke="black" d="M1893.93,-332.2C1907.41,-325.15 1927.48,-314.66 1943.18,-306.45"/>
<polygon fill="black" stroke="black" points="1945.05,-309.42 1952.29,-301.69 1941.81,-303.22 1945.05,-309.42"/>
</g>
<!-- 140192080083408&#45;&gt;140192080084128 -->
<g id="edge41" class="edge">
<title>140192080083408&#45;&gt;140192080084128</title>
<path fill="none" stroke="black" d="M1853.76,-223.14C1842.13,-222.31 1827.83,-221.41 1815,-221 1743.93,-218.71 1726.07,-218.71 1655,-221 1645.68,-221.3 1635.58,-221.85 1626.3,-222.46"/>
<polygon fill="black" stroke="black" points="1625.98,-218.97 1616.24,-223.14 1626.46,-225.95 1625.98,-218.97"/>
</g>
<!-- 140192080083408&#45;&gt;140192080083360 -->
<g id="edge40" class="edge">
<title>140192080083408&#45;&gt;140192080083360</title>
<path fill="none" stroke="black" d="M1905.4,-225C1913.39,-225 1922.31,-225 1930.82,-225"/>
<polygon fill="black" stroke="black" points="1930.92,-228.5 1940.92,-225 1930.92,-221.5 1930.92,-228.5"/>
</g>
</g>
</svg>
