<?xml version="1.0" encoding="UTF-8" standalone="no"?>
<!DOCTYPE svg PUBLIC "-//W3C//DTD SVG 1.1//EN"
 "http://www.w3.org/Graphics/SVG/1.1/DTD/svg11.dtd">
<!-- Generated by graphviz version 2.43.0 (0)
 -->
<!-- Title: %3 Pages: 1 -->
<svg width="2345pt" height="332pt"
 viewBox="0.00 0.00 2345.00 332.00" xmlns="http://www.w3.org/2000/svg" xmlns:xlink="http://www.w3.org/1999/xlink">
<g id="graph0" class="graph" transform="scale(1 1) rotate(0) translate(4 328)">
<title>%3</title>
<!-- 139691346094832 -->
<g id="node1" class="node">
<title>139691346094832</title>
<ellipse fill="green" stroke="black" cx="18" cy="-23" rx="18" ry="18"/>
</g>
<!-- 139691346095264 -->
<g id="node2" class="node">
<title>139691346095264</title>
<polygon fill="none" stroke="black" points="99,-41 72,-23 99,-5 126,-23 99,-41"/>
<text text-anchor="middle" x="99" y="-19.9" font-family="Times,serif" font-size="12.00">X</text>
</g>
<!-- 139691346094832&#45;&gt;139691346095264 -->
<g id="edge1" class="edge">
<title>139691346094832&#45;&gt;139691346095264</title>
<path fill="none" stroke="black" d="M36.14,-23C43.64,-23 52.75,-23 61.64,-23"/>
<polygon fill="black" stroke="black" points="61.87,-26.5 71.87,-23 61.87,-19.5 61.87,-26.5"/>
</g>
<!-- 139691346093008 -->
<g id="node3" class="node">
<title>139691346093008</title>
<polygon fill="none" stroke="black" points="284,-64 162,-64 162,-28 284,-28 284,-64"/>
<text text-anchor="middle" x="223" y="-42.9" font-family="Times,serif" font-size="12.00">PLANIFICACION</text>
</g>
<!-- 139691346095264&#45;&gt;139691346093008 -->
<g id="edge2" class="edge">
<title>139691346095264&#45;&gt;139691346093008</title>
<path fill="none" stroke="black" d="M120.42,-26.85C129.29,-28.52 140.25,-30.59 151.65,-32.74"/>
<polygon fill="black" stroke="black" points="151.28,-36.23 161.75,-34.64 152.57,-29.35 151.28,-36.23"/>
</g>
<!-- 139691346092528 -->
<g id="node4" class="node">
<title>139691346092528</title>
<polygon fill="none" stroke="black" points="347,-64 320,-46 347,-28 374,-46 347,-64"/>
<text text-anchor="middle" x="347" y="-42.9" font-family="Times,serif" font-size="12.00">X</text>
</g>
<!-- 139691346093008&#45;&gt;139691346092528 -->
<g id="edge3" class="edge">
<title>139691346093008&#45;&gt;139691346092528</title>
<path fill="none" stroke="black" d="M284.29,-46C292.97,-46 301.67,-46 309.69,-46"/>
<polygon fill="black" stroke="black" points="309.77,-49.5 319.77,-46 309.77,-42.5 309.77,-49.5"/>
</g>
<!-- 139691346092960 -->
<g id="node5" class="node">
<title>139691346092960</title>
<polygon fill="none" stroke="black" points="437,-106 410,-88 437,-70 464,-88 437,-106"/>
<text text-anchor="middle" x="437" y="-84.9" font-family="Times,serif" font-size="12.00">X</text>
</g>
<!-- 139691346092528&#45;&gt;139691346092960 -->
<g id="edge4" class="edge">
<title>139691346092528&#45;&gt;139691346092960</title>
<path fill="none" stroke="black" d="M363.33,-53.32C376.58,-59.64 395.97,-68.9 411.39,-76.26"/>
<polygon fill="black" stroke="black" points="410.31,-79.62 420.85,-80.77 413.33,-73.3 410.31,-79.62"/>
</g>
<!-- 139691346094064 -->
<g id="node6" class="node">
<title>139691346094064</title>
<polygon fill="none" stroke="black" points="2148,-64 2121,-46 2148,-28 2175,-46 2148,-64"/>
<text text-anchor="middle" x="2148" y="-42.9" font-family="Times,serif" font-size="12.00">X</text>
</g>
<!-- 139691346092528&#45;&gt;139691346094064 -->
<g id="edge5" class="edge">
<title>139691346092528&#45;&gt;139691346094064</title>
<path fill="none" stroke="black" d="M372.76,-45.09C407.14,-43.91 471.29,-42 526,-42 526,-42 526,-42 1969,-42 2018.58,-42 2075.91,-43.57 2111.82,-44.74"/>
<polygon fill="black" stroke="black" points="2112.13,-48.26 2122.24,-45.09 2112.36,-41.26 2112.13,-48.26"/>
</g>
<!-- 139691346095120 -->
<g id="node7" class="node">
<title>139691346095120</title>
<polygon fill="none" stroke="black" points="527,-175 500,-157 527,-139 554,-157 527,-175"/>
<text text-anchor="middle" x="527" y="-153.9" font-family="Times,serif" font-size="12.00">X</text>
</g>
<!-- 139691346092960&#45;&gt;139691346095120 -->
<g id="edge7" class="edge">
<title>139691346092960&#45;&gt;139691346095120</title>
<path fill="none" stroke="black" d="M450.24,-97.59C464.55,-108.82 488.48,-127.58 505.61,-141.01"/>
<polygon fill="black" stroke="black" points="503.84,-144.07 513.87,-147.49 508.16,-138.56 503.84,-144.07"/>
</g>
<!-- 139691346093872 -->
<g id="node8" class="node">
<title>139691346093872</title>
<polygon fill="none" stroke="black" points="2238,-41 2211,-23 2238,-5 2265,-23 2238,-41"/>
<text text-anchor="middle" x="2238" y="-19.9" font-family="Times,serif" font-size="12.00">X</text>
</g>
<!-- 139691346094064&#45;&gt;139691346093872 -->
<g id="edge6" class="edge">
<title>139691346094064&#45;&gt;139691346093872</title>
<path fill="none" stroke="black" d="M2168.09,-41.01C2179.82,-37.94 2195.07,-33.96 2208.24,-30.52"/>
<polygon fill="black" stroke="black" points="2209.45,-33.82 2218.24,-27.9 2207.68,-27.04 2209.45,-33.82"/>
</g>
<!-- 139691346094016 -->
<g id="node9" class="node">
<title>139691346094016</title>
<polygon fill="none" stroke="black" points="778,-256 590,-256 590,-220 778,-220 778,-256"/>
<text text-anchor="middle" x="684" y="-234.9" font-family="Times,serif" font-size="12.00">SEGUIMIENTO_In Progress</text>
</g>
<!-- 139691346095120&#45;&gt;139691346094016 -->
<g id="edge9" class="edge">
<title>139691346095120&#45;&gt;139691346094016</title>
<path fill="none" stroke="black" d="M537.89,-168.12C549.31,-180.31 569.2,-199.65 590,-211 593.21,-212.75 596.56,-214.41 599.98,-215.96"/>
<polygon fill="black" stroke="black" points="598.62,-219.18 609.2,-219.84 601.34,-212.73 598.62,-219.18"/>
</g>
<!-- 139691346094880 -->
<g id="node10" class="node">
<title>139691346094880</title>
<polygon fill="none" stroke="black" points="758.5,-202 609.5,-202 609.5,-166 758.5,-166 758.5,-202"/>
<text text-anchor="middle" x="684" y="-180.9" font-family="Times,serif" font-size="12.00">SEGUIMIENTO_Done</text>
</g>
<!-- 139691346095120&#45;&gt;139691346094880 -->
<g id="edge11" class="edge">
<title>139691346095120&#45;&gt;139691346094880</title>
<path fill="none" stroke="black" d="M548.9,-160.64C562.21,-162.96 580.42,-166.13 599.12,-169.39"/>
<polygon fill="black" stroke="black" points="598.78,-172.88 609.23,-171.15 599.98,-165.99 598.78,-172.88"/>
</g>
<!-- 139691346093104 -->
<g id="node11" class="node">
<title>139691346093104</title>
<polygon fill="none" stroke="black" points="731.5,-148 636.5,-148 636.5,-112 731.5,-112 731.5,-148"/>
<text text-anchor="middle" x="684" y="-126.9" font-family="Times,serif" font-size="12.00">CONSTRUIR</text>
</g>
<!-- 139691346095120&#45;&gt;139691346093104 -->
<g id="edge10" class="edge">
<title>139691346095120&#45;&gt;139691346093104</title>
<path fill="none" stroke="black" d="M548.9,-153.36C568.69,-149.91 599.29,-144.58 626.27,-139.88"/>
<polygon fill="black" stroke="black" points="627.15,-143.28 636.4,-138.12 625.95,-136.39 627.15,-143.28"/>
</g>
<!-- 139691346093872&#45;&gt;139691346095264 -->
<g id="edge8" class="edge">
<title>139691346093872&#45;&gt;139691346095264</title>
<path fill="none" stroke="black" d="M2217.09,-18.73C2184.3,-12.08 2116.8,0 2059,0 346,0 346,0 346,0 268.6,0 178.09,-11.43 131.41,-18.17"/>
<polygon fill="black" stroke="black" points="130.71,-14.74 121.33,-19.66 131.73,-21.66 130.71,-14.74"/>
</g>
<!-- 139691346095360 -->
<g id="node24" class="node">
<title>139691346095360</title>
<ellipse fill="orange" stroke="black" cx="2319" cy="-23" rx="18" ry="18"/>
</g>
<!-- 139691346093872&#45;&gt;139691346095360 -->
<g id="edge12" class="edge">
<title>139691346093872&#45;&gt;139691346095360</title>
<path fill="none" stroke="black" d="M2265.31,-23C2273.42,-23 2282.37,-23 2290.56,-23"/>
<polygon fill="black" stroke="black" points="2290.75,-26.5 2300.75,-23 2290.75,-19.5 2290.75,-26.5"/>
</g>
<!-- 139691346093680 -->
<g id="node12" class="node">
<title>139691346093680</title>
<polygon fill="none" stroke="black" points="841,-201 814,-183 841,-165 868,-183 841,-201"/>
<text text-anchor="middle" x="841" y="-179.9" font-family="Times,serif" font-size="12.00">X</text>
</g>
<!-- 139691346094016&#45;&gt;139691346093680 -->
<g id="edge13" class="edge">
<title>139691346094016&#45;&gt;139691346093680</title>
<path fill="none" stroke="black" d="M751.42,-219.97C760.42,-217.16 769.48,-214.14 778,-211 790.68,-206.32 804.42,-200.23 815.73,-194.92"/>
<polygon fill="black" stroke="black" points="817.45,-197.98 824.96,-190.52 814.43,-191.67 817.45,-197.98"/>
</g>
<!-- 139691346094880&#45;&gt;139691346093680 -->
<g id="edge15" class="edge">
<title>139691346094880&#45;&gt;139691346093680</title>
<path fill="none" stroke="black" d="M758.87,-183.52C774.5,-183.42 790.32,-183.32 803.79,-183.23"/>
<polygon fill="black" stroke="black" points="804.07,-186.73 814.05,-183.17 804.02,-179.73 804.07,-186.73"/>
</g>
<!-- 139691346093104&#45;&gt;139691346093680 -->
<g id="edge14" class="edge">
<title>139691346093104&#45;&gt;139691346093680</title>
<path fill="none" stroke="black" d="M731.69,-142.42C746.6,-146.69 763.1,-151.73 778,-157 790.43,-161.39 803.95,-166.97 815.19,-171.83"/>
<polygon fill="black" stroke="black" points="813.83,-175.06 824.4,-175.87 816.65,-168.65 813.83,-175.06"/>
</g>
<!-- 139691346093728 -->
<g id="node13" class="node">
<title>139691346093728</title>
<polygon fill="none" stroke="black" points="931,-200 904,-182 931,-164 958,-182 931,-200"/>
<text text-anchor="middle" x="931" y="-178.9" font-family="Times,serif" font-size="12.00">X</text>
</g>
<!-- 139691346093680&#45;&gt;139691346093728 -->
<g id="edge16" class="edge">
<title>139691346093680&#45;&gt;139691346093728</title>
<path fill="none" stroke="black" d="M867.93,-182.71C876.16,-182.61 885.42,-182.51 894.22,-182.41"/>
<polygon fill="black" stroke="black" points="894.3,-185.91 904.26,-182.29 894.22,-178.91 894.3,-185.91"/>
</g>
<!-- 139691346092912 -->
<g id="node14" class="node">
<title>139691346092912</title>
<polygon fill="none" stroke="black" points="1021,-200 994,-182 1021,-164 1048,-182 1021,-200"/>
<text text-anchor="middle" x="1021" y="-178.9" font-family="Times,serif" font-size="12.00">X</text>
</g>
<!-- 139691346093728&#45;&gt;139691346092912 -->
<g id="edge17" class="edge">
<title>139691346093728&#45;&gt;139691346092912</title>
<path fill="none" stroke="black" d="M958.4,-182C966.39,-182 975.31,-182 983.82,-182"/>
<polygon fill="black" stroke="black" points="983.92,-185.5 993.92,-182 983.92,-178.5 983.92,-185.5"/>
</g>
<!-- 139691346093536 -->
<g id="node15" class="node">
<title>139691346093536</title>
<polygon fill="none" stroke="black" points="1968,-152 1941,-134 1968,-116 1995,-134 1968,-152"/>
<text text-anchor="middle" x="1968" y="-130.9" font-family="Times,serif" font-size="12.00">X</text>
</g>
<!-- 139691346093728&#45;&gt;139691346093536 -->
<g id="edge18" class="edge">
<title>139691346093728&#45;&gt;139691346093536</title>
<path fill="none" stroke="black" d="M946.92,-174.33C959.25,-168.29 977.37,-160.05 994,-155 1044.13,-139.77 1057.61,-134 1110,-134 1110,-134 1110,-134 1736,-134 1804.69,-134 1884.86,-134 1930.41,-134"/>
<polygon fill="black" stroke="black" points="1930.67,-137.5 1940.67,-134 1930.67,-130.5 1930.67,-137.5"/>
</g>
<!-- 139691346095504 -->
<g id="node16" class="node">
<title>139691346095504</title>
<polygon fill="none" stroke="black" points="1111,-240 1084,-222 1111,-204 1138,-222 1111,-240"/>
<text text-anchor="middle" x="1111" y="-218.9" font-family="Times,serif" font-size="12.00">X</text>
</g>
<!-- 139691346092912&#45;&gt;139691346095504 -->
<g id="edge20" class="edge">
<title>139691346092912&#45;&gt;139691346095504</title>
<path fill="none" stroke="black" d="M1037.73,-189.15C1050.87,-195.12 1069.84,-203.75 1085.05,-210.66"/>
<polygon fill="black" stroke="black" points="1083.85,-213.96 1094.4,-214.91 1086.75,-207.59 1083.85,-213.96"/>
</g>
<!-- 139691346092096 -->
<g id="node17" class="node">
<title>139691346092096</title>
<polygon fill="none" stroke="black" points="2058,-106 2031,-88 2058,-70 2085,-88 2058,-106"/>
<text text-anchor="middle" x="2058" y="-84.9" font-family="Times,serif" font-size="12.00">X</text>
</g>
<!-- 139691346093536&#45;&gt;139691346092096 -->
<g id="edge19" class="edge">
<title>139691346093536&#45;&gt;139691346092096</title>
<path fill="none" stroke="black" d="M1983.93,-126.2C1997.41,-119.15 2017.48,-108.66 2033.18,-100.45"/>
<polygon fill="black" stroke="black" points="2035.05,-103.42 2042.29,-95.69 2031.81,-97.22 2035.05,-103.42"/>
</g>
<!-- 139691346092672 -->
<g id="node18" class="node">
<title>139691346092672</title>
<polygon fill="none" stroke="black" points="1201,-282 1174,-264 1201,-246 1228,-264 1201,-282"/>
<text text-anchor="middle" x="1201" y="-260.9" font-family="Times,serif" font-size="12.00">X</text>
</g>
<!-- 139691346095504&#45;&gt;139691346092672 -->
<g id="edge23" class="edge">
<title>139691346095504&#45;&gt;139691346092672</title>
<path fill="none" stroke="black" d="M1127.33,-229.32C1140.58,-235.64 1159.97,-244.9 1175.39,-252.26"/>
<polygon fill="black" stroke="black" points="1174.31,-255.62 1184.85,-256.77 1177.33,-249.3 1174.31,-255.62"/>
</g>
<!-- 139691346093296 -->
<g id="node19" class="node">
<title>139691346093296</title>
<polygon fill="none" stroke="black" points="1592,-240 1565,-222 1592,-204 1619,-222 1592,-240"/>
<text text-anchor="middle" x="1592" y="-218.9" font-family="Times,serif" font-size="12.00">X</text>
</g>
<!-- 139691346095504&#45;&gt;139691346093296 -->
<g id="edge24" class="edge">
<title>139691346095504&#45;&gt;139691346093296</title>
<path fill="none" stroke="black" d="M1138.09,-222C1218.46,-222 1462.35,-222 1554.88,-222"/>
<polygon fill="black" stroke="black" points="1554.88,-225.5 1564.88,-222 1554.88,-218.5 1554.88,-225.5"/>
</g>
<!-- 139691346092096&#45;&gt;139691346092960 -->
<g id="edge22" class="edge">
<title>139691346092096&#45;&gt;139691346092960</title>
<path fill="none" stroke="black" d="M2032.24,-87.09C1997.86,-85.91 1933.71,-84 1879,-84 683,-84 683,-84 683,-84 608.25,-84 520.69,-85.88 473.12,-87.07"/>
<polygon fill="black" stroke="black" points="472.95,-83.57 463.04,-87.32 473.12,-90.57 472.95,-83.57"/>
</g>
<!-- 139691346092096&#45;&gt;139691346094064 -->
<g id="edge21" class="edge">
<title>139691346092096&#45;&gt;139691346094064</title>
<path fill="none" stroke="black" d="M2074.33,-80.68C2087.58,-74.36 2106.97,-65.1 2122.39,-57.74"/>
<polygon fill="black" stroke="black" points="2124.33,-60.7 2131.85,-53.23 2121.31,-54.38 2124.33,-60.7"/>
</g>
<!-- 139691346096032 -->
<g id="node20" class="node">
<title>139691346096032</title>
<polygon fill="none" stroke="black" points="1439,-324 1264,-324 1264,-288 1439,-288 1439,-324"/>
<text text-anchor="middle" x="1351.5" y="-302.9" font-family="Times,serif" font-size="12.00">IMPLEMENTACION_code</text>
</g>
<!-- 139691346092672&#45;&gt;139691346096032 -->
<g id="edge26" class="edge">
<title>139691346092672&#45;&gt;139691346096032</title>
<path fill="none" stroke="black" d="M1220.51,-269.23C1234.87,-273.3 1255.79,-279.21 1276.67,-285.12"/>
<polygon fill="black" stroke="black" points="1275.99,-288.56 1286.56,-287.92 1277.89,-281.83 1275.99,-288.56"/>
</g>
<!-- 139691346253184 -->
<g id="node21" class="node">
<title>139691346253184</title>
<polygon fill="none" stroke="black" points="1815,-240 1655,-240 1655,-204 1815,-204 1815,-240"/>
<text text-anchor="middle" x="1735" y="-218.9" font-family="Times,serif" font-size="12.00">EJECUCION_PIPELINE</text>
</g>
<!-- 139691346093296&#45;&gt;139691346253184 -->
<g id="edge25" class="edge">
<title>139691346093296&#45;&gt;139691346253184</title>
<path fill="none" stroke="black" d="M1619.19,-222C1626.79,-222 1635.55,-222 1644.77,-222"/>
<polygon fill="black" stroke="black" points="1644.93,-225.5 1654.93,-222 1644.93,-218.5 1644.93,-225.5"/>
</g>
<!-- 139691346093344 -->
<g id="node22" class="node">
<title>139691346093344</title>
<polygon fill="none" stroke="black" points="1502,-282 1475,-264 1502,-246 1529,-264 1502,-282"/>
<text text-anchor="middle" x="1502" y="-260.9" font-family="Times,serif" font-size="12.00">X</text>
</g>
<!-- 139691346096032&#45;&gt;139691346093344 -->
<g id="edge27" class="edge">
<title>139691346096032&#45;&gt;139691346093344</title>
<path fill="none" stroke="black" d="M1416.34,-287.94C1436.07,-282.36 1456.8,-276.5 1472.81,-271.97"/>
<polygon fill="black" stroke="black" points="1473.93,-275.29 1482.6,-269.21 1472.02,-268.56 1473.93,-275.29"/>
</g>
<!-- 139691346093824 -->
<g id="node23" class="node">
<title>139691346093824</title>
<polygon fill="none" stroke="black" points="1878,-198 1851,-180 1878,-162 1905,-180 1878,-198"/>
<text text-anchor="middle" x="1878" y="-176.9" font-family="Times,serif" font-size="12.00">X</text>
</g>
<!-- 139691346253184&#45;&gt;139691346093824 -->
<g id="edge28" class="edge">
<title>139691346253184&#45;&gt;139691346093824</title>
<path fill="none" stroke="black" d="M1796.61,-203.94C1814.93,-198.49 1834.15,-192.76 1849.21,-188.28"/>
<polygon fill="black" stroke="black" points="1850.32,-191.6 1858.9,-185.39 1848.32,-184.89 1850.32,-191.6"/>
</g>
<!-- 139691346093344&#45;&gt;139691346092672 -->
<g id="edge31" class="edge">
<title>139691346093344&#45;&gt;139691346092672</title>
<path fill="none" stroke="black" d="M1474.84,-264C1421.36,-264 1299.45,-264 1238.33,-264"/>
<polygon fill="black" stroke="black" points="1238.01,-260.5 1228.01,-264 1238.01,-267.5 1238.01,-260.5"/>
</g>
<!-- 139691346093344&#45;&gt;139691346093296 -->
<g id="edge32" class="edge">
<title>139691346093344&#45;&gt;139691346093296</title>
<path fill="none" stroke="black" d="M1518.33,-256.68C1531.58,-250.36 1550.97,-241.1 1566.39,-233.74"/>
<polygon fill="black" stroke="black" points="1568.33,-236.7 1575.85,-229.23 1565.31,-230.38 1568.33,-236.7"/>
</g>
<!-- 139691346093824&#45;&gt;139691346092912 -->
<g id="edge29" class="edge">
<title>139691346093824&#45;&gt;139691346092912</title>
<path fill="none" stroke="black" d="M1851.54,-179.4C1801.85,-178.29 1688.42,-176 1593,-176 1200,-176 1200,-176 1200,-176 1150.12,-176 1092.43,-178.38 1056.57,-180.14"/>
<polygon fill="black" stroke="black" points="1055.99,-176.67 1046.18,-180.67 1056.34,-183.66 1055.99,-176.67"/>
</g>
<!-- 139691346093824&#45;&gt;139691346093536 -->
<g id="edge30" class="edge">
<title>139691346093824&#45;&gt;139691346093536</title>
<path fill="none" stroke="black" d="M1893.93,-172.2C1907.41,-165.15 1927.48,-154.66 1943.18,-146.45"/>
<polygon fill="black" stroke="black" points="1945.05,-149.42 1952.29,-141.69 1941.81,-143.22 1945.05,-149.42"/>
</g>
</g>
</svg>
