<?xml version="1.0" encoding="UTF-8" standalone="no"?>
<!DOCTYPE svg PUBLIC "-//W3C//DTD SVG 1.1//EN"
 "http://www.w3.org/Graphics/SVG/1.1/DTD/svg11.dtd">
<!-- Generated by graphviz version 2.43.0 (0)
 -->
<!-- Title: %3 Pages: 1 -->
<svg width="2584pt" height="132pt"
 viewBox="0.00 0.00 2584.00 132.00" xmlns="http://www.w3.org/2000/svg" xmlns:xlink="http://www.w3.org/1999/xlink">
<g id="graph0" class="graph" transform="scale(1 1) rotate(0) translate(4 128)">
<title>%3</title>
<!-- 139739016018480 -->
<g id="node1" class="node">
<title>139739016018480</title>
<ellipse fill="green" stroke="black" cx="18" cy="-41" rx="18" ry="18"/>
</g>
<!-- 139739016019920 -->
<g id="node2" class="node">
<title>139739016019920</title>
<polygon fill="none" stroke="black" points="99,-59 72,-41 99,-23 126,-41 99,-59"/>
<text text-anchor="middle" x="99" y="-37.9" font-family="Times,serif" font-size="12.00">X</text>
</g>
<!-- 139739016018480&#45;&gt;139739016019920 -->
<g id="edge1" class="edge">
<title>139739016018480&#45;&gt;139739016019920</title>
<path fill="none" stroke="black" d="M36.14,-41C43.64,-41 52.75,-41 61.64,-41"/>
<polygon fill="black" stroke="black" points="61.87,-44.5 71.87,-41 61.87,-37.5 61.87,-44.5"/>
</g>
<!-- 139739016018720 -->
<g id="node3" class="node">
<title>139739016018720</title>
<polygon fill="none" stroke="black" points="189,-82 162,-64 189,-46 216,-64 189,-82"/>
<text text-anchor="middle" x="189" y="-60.9" font-family="Times,serif" font-size="12.00">X</text>
</g>
<!-- 139739016019920&#45;&gt;139739016018720 -->
<g id="edge2" class="edge">
<title>139739016019920&#45;&gt;139739016018720</title>
<path fill="none" stroke="black" d="M119.09,-45.99C130.82,-49.06 146.07,-53.04 159.24,-56.48"/>
<polygon fill="black" stroke="black" points="158.68,-59.96 169.24,-59.1 160.45,-53.18 158.68,-59.96"/>
</g>
<!-- 139739016017232 -->
<g id="node4" class="node">
<title>139739016017232</title>
<polygon fill="none" stroke="black" points="527,-59 500,-41 527,-23 554,-41 527,-59"/>
<text text-anchor="middle" x="527" y="-37.9" font-family="Times,serif" font-size="12.00">X</text>
</g>
<!-- 139739016019920&#45;&gt;139739016017232 -->
<g id="edge3" class="edge">
<title>139739016019920&#45;&gt;139739016017232</title>
<path fill="none" stroke="black" d="M123.24,-39.14C134.87,-38.31 149.17,-37.41 162,-37 296.15,-32.68 329.85,-32.68 464,-37 473.32,-37.3 483.42,-37.85 492.7,-38.46"/>
<polygon fill="black" stroke="black" points="492.54,-41.95 502.76,-39.14 493.02,-34.97 492.54,-41.95"/>
</g>
<!-- 139739016017808 -->
<g id="node6" class="node">
<title>139739016017808</title>
<polygon fill="none" stroke="black" points="374,-124 252,-124 252,-88 374,-88 374,-124"/>
<text text-anchor="middle" x="313" y="-102.9" font-family="Times,serif" font-size="12.00">PLANIFICACION</text>
</g>
<!-- 139739016018720&#45;&gt;139739016017808 -->
<g id="edge5" class="edge">
<title>139739016018720&#45;&gt;139739016017808</title>
<path fill="none" stroke="black" d="M207.22,-69.93C218.53,-73.82 234.1,-79.18 249.76,-84.57"/>
<polygon fill="black" stroke="black" points="248.9,-87.98 259.5,-87.93 251.18,-81.36 248.9,-87.98"/>
</g>
<!-- 139739016018144 -->
<g id="node5" class="node">
<title>139739016018144</title>
<polygon fill="none" stroke="black" points="778,-59 590,-59 590,-23 778,-23 778,-59"/>
<text text-anchor="middle" x="684" y="-37.9" font-family="Times,serif" font-size="12.00">SEGUIMIENTO_In Progress</text>
</g>
<!-- 139739016017232&#45;&gt;139739016018144 -->
<g id="edge4" class="edge">
<title>139739016017232&#45;&gt;139739016018144</title>
<path fill="none" stroke="black" d="M554.29,-41C561.78,-41 570.42,-41 579.6,-41"/>
<polygon fill="black" stroke="black" points="579.76,-44.5 589.76,-41 579.76,-37.5 579.76,-44.5"/>
</g>
<!-- 139739016016224 -->
<g id="node8" class="node">
<title>139739016016224</title>
<polygon fill="none" stroke="black" points="989,-59 814,-59 814,-23 989,-23 989,-59"/>
<text text-anchor="middle" x="901.5" y="-37.9" font-family="Times,serif" font-size="12.00">IMPLEMENTACION_code</text>
</g>
<!-- 139739016018144&#45;&gt;139739016016224 -->
<g id="edge7" class="edge">
<title>139739016018144&#45;&gt;139739016016224</title>
<path fill="none" stroke="black" d="M778.27,-41C786.68,-41 795.21,-41 803.65,-41"/>
<polygon fill="black" stroke="black" points="803.89,-44.5 813.89,-41 803.89,-37.5 803.89,-44.5"/>
</g>
<!-- 139739016019632 -->
<g id="node7" class="node">
<title>139739016019632</title>
<polygon fill="none" stroke="black" points="437,-82 410,-64 437,-46 464,-64 437,-82"/>
<text text-anchor="middle" x="437" y="-60.9" font-family="Times,serif" font-size="12.00">X</text>
</g>
<!-- 139739016017808&#45;&gt;139739016019632 -->
<g id="edge6" class="edge">
<title>139739016017808&#45;&gt;139739016019632</title>
<path fill="none" stroke="black" d="M366.45,-87.94C381.08,-82.91 396.38,-77.64 408.89,-73.33"/>
<polygon fill="black" stroke="black" points="410.36,-76.53 418.67,-69.96 408.08,-69.91 410.36,-76.53"/>
</g>
<!-- 139739016019632&#45;&gt;139739016018720 -->
<g id="edge8" class="edge">
<title>139739016019632&#45;&gt;139739016018720</title>
<path fill="none" stroke="black" d="M409.86,-64C365.79,-64 276.59,-64 226.41,-64"/>
<polygon fill="black" stroke="black" points="226.33,-60.5 216.33,-64 226.33,-67.5 226.33,-60.5"/>
</g>
<!-- 139739016019632&#45;&gt;139739016017232 -->
<g id="edge9" class="edge">
<title>139739016019632&#45;&gt;139739016017232</title>
<path fill="none" stroke="black" d="M457.09,-59.01C468.82,-55.94 484.07,-51.96 497.24,-48.52"/>
<polygon fill="black" stroke="black" points="498.45,-51.82 507.24,-45.9 496.68,-45.04 498.45,-51.82"/>
</g>
<!-- 139739016017568 -->
<g id="node9" class="node">
<title>139739016017568</title>
<polygon fill="none" stroke="black" points="1052,-59 1025,-41 1052,-23 1079,-41 1052,-59"/>
<text text-anchor="middle" x="1052" y="-37.9" font-family="Times,serif" font-size="12.00">X</text>
</g>
<!-- 139739016016224&#45;&gt;139739016017568 -->
<g id="edge10" class="edge">
<title>139739016016224&#45;&gt;139739016017568</title>
<path fill="none" stroke="black" d="M989.31,-41C998.21,-41 1006.87,-41 1014.74,-41"/>
<polygon fill="black" stroke="black" points="1014.94,-44.5 1024.94,-41 1014.94,-37.5 1014.94,-44.5"/>
</g>
<!-- 139739016018096 -->
<g id="node10" class="node">
<title>139739016018096</title>
<polygon fill="none" stroke="black" points="1346,-59 1319,-41 1346,-23 1373,-41 1346,-59"/>
<text text-anchor="middle" x="1346" y="-37.9" font-family="Times,serif" font-size="12.00">X</text>
</g>
<!-- 139739016017568&#45;&gt;139739016018096 -->
<g id="edge12" class="edge">
<title>139739016017568&#45;&gt;139739016018096</title>
<path fill="none" stroke="black" d="M1076.24,-42.86C1087.87,-43.69 1102.17,-44.59 1115,-45 1189.63,-47.4 1208.37,-47.4 1283,-45 1292.32,-44.7 1302.42,-44.15 1311.7,-43.54"/>
<polygon fill="black" stroke="black" points="1312.02,-47.03 1321.76,-42.86 1311.54,-40.05 1312.02,-47.03"/>
</g>
<!-- 139739016016896 -->
<g id="node11" class="node">
<title>139739016016896</title>
<polygon fill="none" stroke="black" points="1283,-36 1115,-36 1115,0 1283,0 1283,-36"/>
<text text-anchor="middle" x="1199" y="-14.9" font-family="Times,serif" font-size="12.00">IMPLEMENTACION_test</text>
</g>
<!-- 139739016017568&#45;&gt;139739016016896 -->
<g id="edge11" class="edge">
<title>139739016017568&#45;&gt;139739016016896</title>
<path fill="none" stroke="black" d="M1074.08,-37.66C1082.71,-36.29 1093.34,-34.6 1104.71,-32.8"/>
<polygon fill="black" stroke="black" points="1105.54,-36.21 1114.87,-31.19 1104.44,-29.3 1105.54,-36.21"/>
</g>
<!-- 139739015958976 -->
<g id="node12" class="node">
<title>139739015958976</title>
<polygon fill="none" stroke="black" points="1436,-59 1409,-41 1436,-23 1463,-41 1436,-59"/>
<text text-anchor="middle" x="1436" y="-37.9" font-family="Times,serif" font-size="12.00">X</text>
</g>
<!-- 139739016018096&#45;&gt;139739015958976 -->
<g id="edge14" class="edge">
<title>139739016018096&#45;&gt;139739015958976</title>
<path fill="none" stroke="black" d="M1373.4,-41C1381.39,-41 1390.31,-41 1398.82,-41"/>
<polygon fill="black" stroke="black" points="1398.92,-44.5 1408.92,-41 1398.92,-37.5 1398.92,-44.5"/>
</g>
<!-- 139739016016896&#45;&gt;139739016018096 -->
<g id="edge13" class="edge">
<title>139739016016896&#45;&gt;139739016018096</title>
<path fill="none" stroke="black" d="M1283.09,-31.18C1293.91,-32.9 1304.41,-34.56 1313.6,-36.02"/>
<polygon fill="black" stroke="black" points="1313.3,-39.52 1323.72,-37.62 1314.39,-32.6 1313.3,-39.52"/>
</g>
<!-- 139739015960800 -->
<g id="node13" class="node">
<title>139739015960800</title>
<polygon fill="none" stroke="black" points="1526,-82 1499,-64 1526,-46 1553,-64 1526,-82"/>
<text text-anchor="middle" x="1526" y="-60.9" font-family="Times,serif" font-size="12.00">X</text>
</g>
<!-- 139739015958976&#45;&gt;139739015960800 -->
<g id="edge15" class="edge">
<title>139739015958976&#45;&gt;139739015960800</title>
<path fill="none" stroke="black" d="M1456.09,-45.99C1467.82,-49.06 1483.07,-53.04 1496.24,-56.48"/>
<polygon fill="black" stroke="black" points="1495.68,-59.96 1506.24,-59.1 1497.45,-53.18 1495.68,-59.96"/>
</g>
<!-- 139739015959744 -->
<g id="node14" class="node">
<title>139739015959744</title>
<polygon fill="none" stroke="black" points="1749,-124 1589,-124 1589,-88 1749,-88 1749,-124"/>
<text text-anchor="middle" x="1669" y="-102.9" font-family="Times,serif" font-size="12.00">EJECUCION_PIPELINE</text>
</g>
<!-- 139739015960800&#45;&gt;139739015959744 -->
<g id="edge16" class="edge">
<title>139739015960800&#45;&gt;139739015959744</title>
<path fill="none" stroke="black" d="M1545.14,-69.4C1558.7,-73.44 1578.16,-79.24 1597.62,-85.04"/>
<polygon fill="black" stroke="black" points="1596.87,-88.46 1607.45,-87.96 1598.87,-81.75 1596.87,-88.46"/>
</g>
<!-- 139739015961424 -->
<g id="node15" class="node">
<title>139739015961424</title>
<polygon fill="none" stroke="black" points="1880,-124 1785,-124 1785,-88 1880,-88 1880,-124"/>
<text text-anchor="middle" x="1832.5" y="-102.9" font-family="Times,serif" font-size="12.00">CONSTRUIR</text>
</g>
<!-- 139739015959744&#45;&gt;139739015961424 -->
<g id="edge17" class="edge">
<title>139739015959744&#45;&gt;139739015961424</title>
<path fill="none" stroke="black" d="M1749.33,-106C1757.86,-106 1766.4,-106 1774.59,-106"/>
<polygon fill="black" stroke="black" points="1774.74,-109.5 1784.74,-106 1774.74,-102.5 1774.74,-109.5"/>
</g>
<!-- 139739015962384 -->
<g id="node16" class="node">
<title>139739015962384</title>
<polygon fill="none" stroke="black" points="1995,-124 1916,-124 1916,-88 1995,-88 1995,-124"/>
<text text-anchor="middle" x="1955.5" y="-102.9" font-family="Times,serif" font-size="12.00">PRUEBAS</text>
</g>
<!-- 139739015961424&#45;&gt;139739015962384 -->
<g id="edge18" class="edge">
<title>139739015961424&#45;&gt;139739015962384</title>
<path fill="none" stroke="black" d="M1880.28,-106C1888.6,-106 1897.29,-106 1905.67,-106"/>
<polygon fill="black" stroke="black" points="1905.68,-109.5 1915.68,-106 1905.68,-102.5 1905.68,-109.5"/>
</g>
<!-- 139739015958784 -->
<g id="node17" class="node">
<title>139739015958784</title>
<polygon fill="none" stroke="black" points="2186,-124 2031,-124 2031,-88 2186,-88 2186,-124"/>
<text text-anchor="middle" x="2108.5" y="-102.9" font-family="Times,serif" font-size="12.00">CONSTRUIR_IMAGEN</text>
</g>
<!-- 139739015962384&#45;&gt;139739015958784 -->
<g id="edge19" class="edge">
<title>139739015962384&#45;&gt;139739015958784</title>
<path fill="none" stroke="black" d="M1995.39,-106C2003.32,-106 2011.97,-106 2020.83,-106"/>
<polygon fill="black" stroke="black" points="2020.89,-109.5 2030.89,-106 2020.89,-102.5 2020.89,-109.5"/>
</g>
<!-- 139739015962576 -->
<g id="node18" class="node">
<title>139739015962576</title>
<polygon fill="none" stroke="black" points="2249,-82 2222,-64 2249,-46 2276,-64 2249,-82"/>
<text text-anchor="middle" x="2249" y="-60.9" font-family="Times,serif" font-size="12.00">X</text>
</g>
<!-- 139739015958784&#45;&gt;139739015962576 -->
<g id="edge20" class="edge">
<title>139739015958784&#45;&gt;139739015962576</title>
<path fill="none" stroke="black" d="M2169.04,-87.94C2186.74,-82.58 2205.3,-76.95 2219.98,-72.5"/>
<polygon fill="black" stroke="black" points="2221.36,-75.74 2229.91,-69.49 2219.33,-69.04 2221.36,-75.74"/>
</g>
<!-- 139739015962576&#45;&gt;139739015960800 -->
<g id="edge21" class="edge">
<title>139739015962576&#45;&gt;139739015960800</title>
<path fill="none" stroke="black" d="M2222.66,-63.42C2172.06,-62.31 2054.94,-60 1956.5,-60 1831.5,-60 1831.5,-60 1831.5,-60 1734.15,-60 1619.31,-62.07 1562.5,-63.23"/>
<polygon fill="black" stroke="black" points="1562.19,-59.74 1552.26,-63.44 1562.33,-66.74 1562.19,-59.74"/>
</g>
<!-- 139739015959360 -->
<g id="node19" class="node">
<title>139739015959360</title>
<polygon fill="none" stroke="black" points="2414,-82 2312,-82 2312,-46 2414,-46 2414,-82"/>
<text text-anchor="middle" x="2363" y="-60.9" font-family="Times,serif" font-size="12.00">DESPLIEGUE</text>
</g>
<!-- 139739015962576&#45;&gt;139739015959360 -->
<g id="edge22" class="edge">
<title>139739015962576&#45;&gt;139739015959360</title>
<path fill="none" stroke="black" d="M2276.26,-64C2283.96,-64 2292.73,-64 2301.64,-64"/>
<polygon fill="black" stroke="black" points="2301.71,-67.5 2311.71,-64 2301.71,-60.5 2301.71,-67.5"/>
</g>
<!-- 139739015962240 -->
<g id="node20" class="node">
<title>139739015962240</title>
<polygon fill="none" stroke="black" points="2477,-59 2450,-41 2477,-23 2504,-41 2477,-59"/>
<text text-anchor="middle" x="2477" y="-37.9" font-family="Times,serif" font-size="12.00">X</text>
</g>
<!-- 139739015959360&#45;&gt;139739015962240 -->
<g id="edge23" class="edge">
<title>139739015959360&#45;&gt;139739015962240</title>
<path fill="none" stroke="black" d="M2414.1,-53.71C2424.97,-51.48 2436.13,-49.19 2445.93,-47.17"/>
<polygon fill="black" stroke="black" points="2446.87,-50.56 2455.96,-45.12 2445.46,-43.7 2446.87,-50.56"/>
</g>
<!-- 139739015962240&#45;&gt;139739015958976 -->
<g id="edge24" class="edge">
<title>139739015962240&#45;&gt;139739015958976</title>
<path fill="none" stroke="black" d="M2455.2,-37.46C2415.45,-31 2325.92,-18 2250,-18 1668,-18 1668,-18 1668,-18 1596.14,-18 1512.32,-29.16 1468.06,-35.93"/>
<polygon fill="black" stroke="black" points="1467.29,-32.51 1457.95,-37.51 1468.37,-39.42 1467.29,-32.51"/>
</g>
<!-- 139739016018960 -->
<g id="node21" class="node">
<title>139739016018960</title>
<ellipse fill="orange" stroke="black" cx="2558" cy="-41" rx="18" ry="18"/>
</g>
<!-- 139739015962240&#45;&gt;139739016018960 -->
<g id="edge25" class="edge">
<title>139739015962240&#45;&gt;139739016018960</title>
<path fill="none" stroke="black" d="M2504.31,-41C2512.42,-41 2521.37,-41 2529.56,-41"/>
<polygon fill="black" stroke="black" points="2529.75,-44.5 2539.75,-41 2529.75,-37.5 2529.75,-44.5"/>
</g>
</g>
</svg>
