<?xml version="1.0" encoding="UTF-8" standalone="no"?>
<!DOCTYPE svg PUBLIC "-//W3C//DTD SVG 1.1//EN"
 "http://www.w3.org/Graphics/SVG/1.1/DTD/svg11.dtd">
<!-- Generated by graphviz version 2.43.0 (0)
 -->
<!-- Title: %3 Pages: 1 -->
<svg width="2584pt" height="132pt"
 viewBox="0.00 0.00 2584.00 132.00" xmlns="http://www.w3.org/2000/svg" xmlns:xlink="http://www.w3.org/1999/xlink">
<g id="graph0" class="graph" transform="scale(1 1) rotate(0) translate(4 128)">
<title>%3</title>
<!-- 140066692046704 -->
<g id="node1" class="node">
<title>140066692046704</title>
<ellipse fill="green" stroke="black" cx="18" cy="-41" rx="18" ry="18"/>
</g>
<!-- 140066692046512 -->
<g id="node2" class="node">
<title>140066692046512</title>
<polygon fill="none" stroke="black" points="99,-59 72,-41 99,-23 126,-41 99,-59"/>
<text text-anchor="middle" x="99" y="-37.9" font-family="Times,serif" font-size="12.00">X</text>
</g>
<!-- 140066692046704&#45;&gt;140066692046512 -->
<g id="edge1" class="edge">
<title>140066692046704&#45;&gt;140066692046512</title>
<path fill="none" stroke="black" d="M36.14,-41C43.64,-41 52.75,-41 61.64,-41"/>
<polygon fill="black" stroke="black" points="61.87,-44.5 71.87,-41 61.87,-37.5 61.87,-44.5"/>
</g>
<!-- 140065926675520 -->
<g id="node3" class="node">
<title>140065926675520</title>
<polygon fill="none" stroke="black" points="189,-82 162,-64 189,-46 216,-64 189,-82"/>
<text text-anchor="middle" x="189" y="-60.9" font-family="Times,serif" font-size="12.00">X</text>
</g>
<!-- 140066692046512&#45;&gt;140065926675520 -->
<g id="edge2" class="edge">
<title>140066692046512&#45;&gt;140065926675520</title>
<path fill="none" stroke="black" d="M119.09,-45.99C130.82,-49.06 146.07,-53.04 159.24,-56.48"/>
<polygon fill="black" stroke="black" points="158.68,-59.96 169.24,-59.1 160.45,-53.18 158.68,-59.96"/>
</g>
<!-- 140066692044496 -->
<g id="node4" class="node">
<title>140066692044496</title>
<polygon fill="none" stroke="black" points="527,-59 500,-41 527,-23 554,-41 527,-59"/>
<text text-anchor="middle" x="527" y="-37.9" font-family="Times,serif" font-size="12.00">X</text>
</g>
<!-- 140066692046512&#45;&gt;140066692044496 -->
<g id="edge3" class="edge">
<title>140066692046512&#45;&gt;140066692044496</title>
<path fill="none" stroke="black" d="M123.24,-39.14C134.87,-38.31 149.17,-37.41 162,-37 296.15,-32.68 329.85,-32.68 464,-37 473.32,-37.3 483.42,-37.85 492.7,-38.46"/>
<polygon fill="black" stroke="black" points="492.54,-41.95 502.76,-39.14 493.02,-34.97 492.54,-41.95"/>
</g>
<!-- 140066692046224 -->
<g id="node6" class="node">
<title>140066692046224</title>
<polygon fill="none" stroke="black" points="374,-124 252,-124 252,-88 374,-88 374,-124"/>
<text text-anchor="middle" x="313" y="-102.9" font-family="Times,serif" font-size="12.00">PLANIFICACION</text>
</g>
<!-- 140065926675520&#45;&gt;140066692046224 -->
<g id="edge5" class="edge">
<title>140065926675520&#45;&gt;140066692046224</title>
<path fill="none" stroke="black" d="M207.22,-69.93C218.53,-73.82 234.1,-79.18 249.76,-84.57"/>
<polygon fill="black" stroke="black" points="248.9,-87.98 259.5,-87.93 251.18,-81.36 248.9,-87.98"/>
</g>
<!-- 140065926783904 -->
<g id="node5" class="node">
<title>140065926783904</title>
<polygon fill="none" stroke="black" points="778,-59 590,-59 590,-23 778,-23 778,-59"/>
<text text-anchor="middle" x="684" y="-37.9" font-family="Times,serif" font-size="12.00">SEGUIMIENTO_In Progress</text>
</g>
<!-- 140066692044496&#45;&gt;140065926783904 -->
<g id="edge4" class="edge">
<title>140066692044496&#45;&gt;140065926783904</title>
<path fill="none" stroke="black" d="M554.29,-41C561.78,-41 570.42,-41 579.6,-41"/>
<polygon fill="black" stroke="black" points="579.76,-44.5 589.76,-41 579.76,-37.5 579.76,-44.5"/>
</g>
<!-- 140065926786544 -->
<g id="node7" class="node">
<title>140065926786544</title>
<polygon fill="none" stroke="black" points="841,-59 814,-41 841,-23 868,-41 841,-59"/>
<text text-anchor="middle" x="841" y="-37.9" font-family="Times,serif" font-size="12.00">X</text>
</g>
<!-- 140065926783904&#45;&gt;140065926786544 -->
<g id="edge7" class="edge">
<title>140065926783904&#45;&gt;140065926786544</title>
<path fill="none" stroke="black" d="M778.29,-41C787.2,-41 795.81,-41 803.64,-41"/>
<polygon fill="black" stroke="black" points="803.77,-44.5 813.77,-41 803.77,-37.5 803.77,-44.5"/>
</g>
<!-- 140066692045120 -->
<g id="node8" class="node">
<title>140066692045120</title>
<polygon fill="none" stroke="black" points="437,-82 410,-64 437,-46 464,-64 437,-82"/>
<text text-anchor="middle" x="437" y="-60.9" font-family="Times,serif" font-size="12.00">X</text>
</g>
<!-- 140066692046224&#45;&gt;140066692045120 -->
<g id="edge6" class="edge">
<title>140066692046224&#45;&gt;140066692045120</title>
<path fill="none" stroke="black" d="M366.45,-87.94C381.08,-82.91 396.38,-77.64 408.89,-73.33"/>
<polygon fill="black" stroke="black" points="410.36,-76.53 418.67,-69.96 408.08,-69.91 410.36,-76.53"/>
</g>
<!-- 140065926786304 -->
<g id="node9" class="node">
<title>140065926786304</title>
<polygon fill="none" stroke="black" points="1079,-82 904,-82 904,-46 1079,-46 1079,-82"/>
<text text-anchor="middle" x="991.5" y="-60.9" font-family="Times,serif" font-size="12.00">IMPLEMENTACION_code</text>
</g>
<!-- 140065926786544&#45;&gt;140065926786304 -->
<g id="edge10" class="edge">
<title>140065926786544&#45;&gt;140065926786304</title>
<path fill="none" stroke="black" d="M863.28,-44.3C871.84,-45.62 882.36,-47.25 893.65,-49"/>
<polygon fill="black" stroke="black" points="893.32,-52.49 903.74,-50.56 894.39,-45.57 893.32,-52.49"/>
</g>
<!-- 140066692045120&#45;&gt;140065926675520 -->
<g id="edge8" class="edge">
<title>140066692045120&#45;&gt;140065926675520</title>
<path fill="none" stroke="black" d="M409.86,-64C365.79,-64 276.59,-64 226.41,-64"/>
<polygon fill="black" stroke="black" points="226.33,-60.5 216.33,-64 226.33,-67.5 226.33,-60.5"/>
</g>
<!-- 140066692045120&#45;&gt;140066692044496 -->
<g id="edge9" class="edge">
<title>140066692045120&#45;&gt;140066692044496</title>
<path fill="none" stroke="black" d="M457.09,-59.01C468.82,-55.94 484.07,-51.96 497.24,-48.52"/>
<polygon fill="black" stroke="black" points="498.45,-51.82 507.24,-45.9 496.68,-45.04 498.45,-51.82"/>
</g>
<!-- 140065926784528 -->
<g id="node10" class="node">
<title>140065926784528</title>
<polygon fill="none" stroke="black" points="1142,-59 1115,-41 1142,-23 1169,-41 1142,-59"/>
<text text-anchor="middle" x="1142" y="-37.9" font-family="Times,serif" font-size="12.00">X</text>
</g>
<!-- 140065926786304&#45;&gt;140065926784528 -->
<g id="edge11" class="edge">
<title>140065926786304&#45;&gt;140065926784528</title>
<path fill="none" stroke="black" d="M1079.31,-50.55C1090.17,-48.87 1100.66,-47.25 1109.81,-45.83"/>
<polygon fill="black" stroke="black" points="1110.54,-49.26 1119.89,-44.27 1109.47,-42.34 1110.54,-49.26"/>
</g>
<!-- 140065926784528&#45;&gt;140065926786544 -->
<g id="edge12" class="edge">
<title>140065926784528&#45;&gt;140065926786544</title>
<path fill="none" stroke="black" d="M1117.76,-39.14C1106.13,-38.31 1091.83,-37.41 1079,-37 1001.26,-34.49 981.74,-34.49 904,-37 894.68,-37.3 884.58,-37.85 875.3,-38.46"/>
<polygon fill="black" stroke="black" points="874.98,-34.97 865.24,-39.14 875.46,-41.95 874.98,-34.97"/>
</g>
<!-- 140065926304480 -->
<g id="node11" class="node">
<title>140065926304480</title>
<polygon fill="none" stroke="black" points="1232,-59 1205,-41 1232,-23 1259,-41 1232,-59"/>
<text text-anchor="middle" x="1232" y="-37.9" font-family="Times,serif" font-size="12.00">X</text>
</g>
<!-- 140065926784528&#45;&gt;140065926304480 -->
<g id="edge13" class="edge">
<title>140065926784528&#45;&gt;140065926304480</title>
<path fill="none" stroke="black" d="M1169.4,-41C1177.39,-41 1186.31,-41 1194.82,-41"/>
<polygon fill="black" stroke="black" points="1194.92,-44.5 1204.92,-41 1194.92,-37.5 1194.92,-44.5"/>
</g>
<!-- 140065926303808 -->
<g id="node12" class="node">
<title>140065926303808</title>
<polygon fill="none" stroke="black" points="1526,-59 1499,-41 1526,-23 1553,-41 1526,-59"/>
<text text-anchor="middle" x="1526" y="-37.9" font-family="Times,serif" font-size="12.00">X</text>
</g>
<!-- 140065926304480&#45;&gt;140065926303808 -->
<g id="edge15" class="edge">
<title>140065926304480&#45;&gt;140065926303808</title>
<path fill="none" stroke="black" d="M1256.24,-42.86C1267.87,-43.69 1282.17,-44.59 1295,-45 1369.63,-47.4 1388.37,-47.4 1463,-45 1472.32,-44.7 1482.42,-44.15 1491.7,-43.54"/>
<polygon fill="black" stroke="black" points="1492.02,-47.03 1501.76,-42.86 1491.54,-40.05 1492.02,-47.03"/>
</g>
<!-- 140065926304336 -->
<g id="node13" class="node">
<title>140065926304336</title>
<polygon fill="none" stroke="black" points="1463,-36 1295,-36 1295,0 1463,0 1463,-36"/>
<text text-anchor="middle" x="1379" y="-14.9" font-family="Times,serif" font-size="12.00">IMPLEMENTACION_test</text>
</g>
<!-- 140065926304480&#45;&gt;140065926304336 -->
<g id="edge14" class="edge">
<title>140065926304480&#45;&gt;140065926304336</title>
<path fill="none" stroke="black" d="M1254.08,-37.66C1262.71,-36.29 1273.34,-34.6 1284.71,-32.8"/>
<polygon fill="black" stroke="black" points="1285.54,-36.21 1294.87,-31.19 1284.44,-29.3 1285.54,-36.21"/>
</g>
<!-- 140065926304912 -->
<g id="node14" class="node">
<title>140065926304912</title>
<polygon fill="none" stroke="black" points="1616,-59 1589,-41 1616,-23 1643,-41 1616,-59"/>
<text text-anchor="middle" x="1616" y="-37.9" font-family="Times,serif" font-size="12.00">X</text>
</g>
<!-- 140065926303808&#45;&gt;140065926304912 -->
<g id="edge17" class="edge">
<title>140065926303808&#45;&gt;140065926304912</title>
<path fill="none" stroke="black" d="M1553.4,-41C1561.39,-41 1570.31,-41 1578.82,-41"/>
<polygon fill="black" stroke="black" points="1578.92,-44.5 1588.92,-41 1578.92,-37.5 1578.92,-44.5"/>
</g>
<!-- 140065926304336&#45;&gt;140065926303808 -->
<g id="edge16" class="edge">
<title>140065926304336&#45;&gt;140065926303808</title>
<path fill="none" stroke="black" d="M1463.09,-31.18C1473.91,-32.9 1484.41,-34.56 1493.6,-36.02"/>
<polygon fill="black" stroke="black" points="1493.3,-39.52 1503.72,-37.62 1494.39,-32.6 1493.3,-39.52"/>
</g>
<!-- 140065926305584 -->
<g id="node15" class="node">
<title>140065926305584</title>
<polygon fill="none" stroke="black" points="1839,-82 1679,-82 1679,-46 1839,-46 1839,-82"/>
<text text-anchor="middle" x="1759" y="-60.9" font-family="Times,serif" font-size="12.00">EJECUCION_PIPELINE</text>
</g>
<!-- 140065926304912&#45;&gt;140065926305584 -->
<g id="edge18" class="edge">
<title>140065926304912&#45;&gt;140065926305584</title>
<path fill="none" stroke="black" d="M1638.11,-44.44C1646.78,-45.86 1657.46,-47.6 1668.84,-49.46"/>
<polygon fill="black" stroke="black" points="1668.56,-52.96 1678.99,-51.11 1669.68,-46.05 1668.56,-52.96"/>
</g>
<!-- 140065926303952 -->
<g id="node16" class="node">
<title>140065926303952</title>
<polygon fill="none" stroke="black" points="1970,-82 1875,-82 1875,-46 1970,-46 1970,-82"/>
<text text-anchor="middle" x="1922.5" y="-60.9" font-family="Times,serif" font-size="12.00">CONSTRUIR</text>
</g>
<!-- 140065926305584&#45;&gt;140065926303952 -->
<g id="edge19" class="edge">
<title>140065926305584&#45;&gt;140065926303952</title>
<path fill="none" stroke="black" d="M1839.33,-64C1847.86,-64 1856.4,-64 1864.59,-64"/>
<polygon fill="black" stroke="black" points="1864.74,-67.5 1874.74,-64 1864.74,-60.5 1864.74,-67.5"/>
</g>
<!-- 140065926458048 -->
<g id="node17" class="node">
<title>140065926458048</title>
<polygon fill="none" stroke="black" points="2085,-82 2006,-82 2006,-46 2085,-46 2085,-82"/>
<text text-anchor="middle" x="2045.5" y="-60.9" font-family="Times,serif" font-size="12.00">PRUEBAS</text>
</g>
<!-- 140065926303952&#45;&gt;140065926458048 -->
<g id="edge20" class="edge">
<title>140065926303952&#45;&gt;140065926458048</title>
<path fill="none" stroke="black" d="M1970.28,-64C1978.6,-64 1987.29,-64 1995.67,-64"/>
<polygon fill="black" stroke="black" points="1995.68,-67.5 2005.68,-64 1995.68,-60.5 1995.68,-67.5"/>
</g>
<!-- 140065926458192 -->
<g id="node18" class="node">
<title>140065926458192</title>
<polygon fill="none" stroke="black" points="2276,-82 2121,-82 2121,-46 2276,-46 2276,-82"/>
<text text-anchor="middle" x="2198.5" y="-60.9" font-family="Times,serif" font-size="12.00">CONSTRUIR_IMAGEN</text>
</g>
<!-- 140065926458048&#45;&gt;140065926458192 -->
<g id="edge21" class="edge">
<title>140065926458048&#45;&gt;140065926458192</title>
<path fill="none" stroke="black" d="M2085.39,-64C2093.32,-64 2101.97,-64 2110.83,-64"/>
<polygon fill="black" stroke="black" points="2110.89,-67.5 2120.89,-64 2110.89,-60.5 2110.89,-67.5"/>
</g>
<!-- 140065926305488 -->
<g id="node19" class="node">
<title>140065926305488</title>
<polygon fill="none" stroke="black" points="2339,-59 2312,-41 2339,-23 2366,-41 2339,-59"/>
<text text-anchor="middle" x="2339" y="-37.9" font-family="Times,serif" font-size="12.00">X</text>
</g>
<!-- 140065926458192&#45;&gt;140065926305488 -->
<g id="edge22" class="edge">
<title>140065926458192&#45;&gt;140065926305488</title>
<path fill="none" stroke="black" d="M2276.04,-51.29C2287.04,-49.46 2297.79,-47.68 2307.17,-46.12"/>
<polygon fill="black" stroke="black" points="2307.82,-49.56 2317.11,-44.47 2306.67,-42.65 2307.82,-49.56"/>
</g>
<!-- 140065926305488&#45;&gt;140065926304912 -->
<g id="edge23" class="edge">
<title>140065926305488&#45;&gt;140065926304912</title>
<path fill="none" stroke="black" d="M2316.11,-38.09C2267.63,-31.9 2147.52,-18 2046.5,-18 1921.5,-18 1921.5,-18 1921.5,-18 1822.1,-18 1704.96,-30.34 1649.39,-36.94"/>
<polygon fill="black" stroke="black" points="1648.63,-33.51 1639.12,-38.18 1649.46,-40.46 1648.63,-33.51"/>
</g>
<!-- 140065926458960 -->
<g id="node20" class="node">
<title>140065926458960</title>
<polygon fill="none" stroke="black" points="2504,-59 2402,-59 2402,-23 2504,-23 2504,-59"/>
<text text-anchor="middle" x="2453" y="-37.9" font-family="Times,serif" font-size="12.00">DESPLIEGUE</text>
</g>
<!-- 140065926305488&#45;&gt;140065926458960 -->
<g id="edge24" class="edge">
<title>140065926305488&#45;&gt;140065926458960</title>
<path fill="none" stroke="black" d="M2366.26,-41C2373.96,-41 2382.73,-41 2391.64,-41"/>
<polygon fill="black" stroke="black" points="2391.71,-44.5 2401.71,-41 2391.71,-37.5 2391.71,-44.5"/>
</g>
<!-- 140066692045024 -->
<g id="node21" class="node">
<title>140066692045024</title>
<ellipse fill="orange" stroke="black" cx="2558" cy="-41" rx="18" ry="18"/>
</g>
<!-- 140065926458960&#45;&gt;140066692045024 -->
<g id="edge25" class="edge">
<title>140065926458960&#45;&gt;140066692045024</title>
<path fill="none" stroke="black" d="M2504.29,-41C2513.14,-41 2522.04,-41 2529.93,-41"/>
<polygon fill="black" stroke="black" points="2529.98,-44.5 2539.98,-41 2529.98,-37.5 2529.98,-44.5"/>
</g>
</g>
</svg>
