<?xml version="1.0" encoding="UTF-8" standalone="no"?>
<!DOCTYPE svg PUBLIC "-//W3C//DTD SVG 1.1//EN"
 "http://www.w3.org/Graphics/SVG/1.1/DTD/svg11.dtd">
<!-- Generated by graphviz version 2.43.0 (0)
 -->
<!-- Title: %3 Pages: 1 -->
<svg width="1883pt" height="208pt"
 viewBox="0.00 0.00 1883.00 207.96" xmlns="http://www.w3.org/2000/svg" xmlns:xlink="http://www.w3.org/1999/xlink">
<g id="graph0" class="graph" transform="scale(1 1) rotate(0) translate(4 203.96)">
<title>%3</title>
<!-- 139947614755664 -->
<g id="node1" class="node">
<title>139947614755664</title>
<ellipse fill="green" stroke="black" cx="18" cy="-24.96" rx="18" ry="18"/>
</g>
<!-- 139947614753120 -->
<g id="node2" class="node">
<title>139947614753120</title>
<polygon fill="none" stroke="black" points="99,-42.96 72,-24.96 99,-6.96 126,-24.96 99,-42.96"/>
<text text-anchor="middle" x="99" y="-21.86" font-family="Times,serif" font-size="12.00">X</text>
</g>
<!-- 139947614755664&#45;&gt;139947614753120 -->
<g id="edge1" class="edge">
<title>139947614755664&#45;&gt;139947614753120</title>
<path fill="none" stroke="black" d="M36.14,-24.96C43.64,-24.96 52.75,-24.96 61.64,-24.96"/>
<polygon fill="black" stroke="black" points="61.87,-28.46 71.87,-24.96 61.87,-21.46 61.87,-28.46"/>
</g>
<!-- 139947614756480 -->
<g id="node3" class="node">
<title>139947614756480</title>
<polygon fill="none" stroke="black" points="189,-65.96 162,-47.96 189,-29.96 216,-47.96 189,-65.96"/>
<text text-anchor="middle" x="189" y="-44.86" font-family="Times,serif" font-size="12.00">X</text>
</g>
<!-- 139947614753120&#45;&gt;139947614756480 -->
<g id="edge2" class="edge">
<title>139947614753120&#45;&gt;139947614756480</title>
<path fill="none" stroke="black" d="M119.09,-29.95C130.82,-33.02 146.07,-37 159.24,-40.44"/>
<polygon fill="black" stroke="black" points="158.68,-43.92 169.24,-43.06 160.45,-37.14 158.68,-43.92"/>
</g>
<!-- 139947614754128 -->
<g id="node4" class="node">
<title>139947614754128</title>
<polygon fill="none" stroke="black" points="427,-107.96 252,-107.96 252,-71.96 427,-71.96 427,-107.96"/>
<text text-anchor="middle" x="339.5" y="-86.86" font-family="Times,serif" font-size="12.00">IMPLEMENTACION_code</text>
</g>
<!-- 139947614756480&#45;&gt;139947614754128 -->
<g id="edge3" class="edge">
<title>139947614756480&#45;&gt;139947614754128</title>
<path fill="none" stroke="black" d="M208.51,-53.2C222.87,-57.26 243.79,-63.18 264.67,-69.08"/>
<polygon fill="black" stroke="black" points="263.99,-72.52 274.56,-71.88 265.89,-65.79 263.99,-72.52"/>
</g>
<!-- 139947614753216 -->
<g id="node5" class="node">
<title>139947614753216</title>
<polygon fill="none" stroke="black" points="490,-86.96 463,-68.96 490,-50.96 517,-68.96 490,-86.96"/>
<text text-anchor="middle" x="490" y="-65.86" font-family="Times,serif" font-size="12.00">X</text>
</g>
<!-- 139947614754128&#45;&gt;139947614753216 -->
<g id="edge4" class="edge">
<title>139947614754128&#45;&gt;139947614753216</title>
<path fill="none" stroke="black" d="M427.31,-77.68C437.99,-76.17 448.31,-74.72 457.35,-73.44"/>
<polygon fill="black" stroke="black" points="457.91,-76.89 467.33,-72.03 456.93,-69.96 457.91,-76.89"/>
</g>
<!-- 139947614753216&#45;&gt;139947614756480 -->
<g id="edge5" class="edge">
<title>139947614753216&#45;&gt;139947614756480</title>
<path fill="none" stroke="black" d="M466.34,-66.59C454.61,-65.4 440.04,-64 427,-62.96 354.94,-57.2 270.41,-52.29 224.3,-49.77"/>
<polygon fill="black" stroke="black" points="224.42,-46.27 214.24,-49.23 224.04,-53.26 224.42,-46.27"/>
</g>
<!-- 139947614756288 -->
<g id="node6" class="node">
<title>139947614756288</title>
<polygon fill="none" stroke="black" points="580,-86.96 553,-68.96 580,-50.96 607,-68.96 580,-86.96"/>
<text text-anchor="middle" x="580" y="-65.86" font-family="Times,serif" font-size="12.00">X</text>
</g>
<!-- 139947614753216&#45;&gt;139947614756288 -->
<g id="edge6" class="edge">
<title>139947614753216&#45;&gt;139947614756288</title>
<path fill="none" stroke="black" d="M517.4,-68.96C525.39,-68.96 534.31,-68.96 542.82,-68.96"/>
<polygon fill="black" stroke="black" points="542.92,-72.46 552.92,-68.96 542.92,-65.46 542.92,-72.46"/>
</g>
<!-- 139947614754320 -->
<g id="node7" class="node">
<title>139947614754320</title>
<polygon fill="none" stroke="black" points="811,-119.96 643,-119.96 643,-83.96 811,-83.96 811,-119.96"/>
<text text-anchor="middle" x="727" y="-98.86" font-family="Times,serif" font-size="12.00">IMPLEMENTACION_test</text>
</g>
<!-- 139947614756288&#45;&gt;139947614754320 -->
<g id="edge8" class="edge">
<title>139947614756288&#45;&gt;139947614754320</title>
<path fill="none" stroke="black" d="M600.56,-73.41C610.45,-75.66 623.23,-78.57 636.84,-81.67"/>
<polygon fill="black" stroke="black" points="636.34,-85.14 646.86,-83.95 637.89,-78.32 636.34,-85.14"/>
</g>
<!-- 139947613640352 -->
<g id="node8" class="node">
<title>139947613640352</title>
<polygon fill="none" stroke="black" points="807,-65.96 647,-65.96 647,-29.96 807,-29.96 807,-65.96"/>
<text text-anchor="middle" x="727" y="-44.86" font-family="Times,serif" font-size="12.00">EJECUCION_PIPELINE</text>
</g>
<!-- 139947614756288&#45;&gt;139947613640352 -->
<g id="edge7" class="edge">
<title>139947614756288&#45;&gt;139947613640352</title>
<path fill="none" stroke="black" d="M602.4,-65.86C611.91,-64.48 623.8,-62.76 636.43,-60.93"/>
<polygon fill="black" stroke="black" points="637.29,-64.34 646.69,-59.45 636.29,-57.42 637.29,-64.34"/>
</g>
<!-- 139947614753312 -->
<g id="node9" class="node">
<title>139947614753312</title>
<polygon fill="none" stroke="black" points="894.5,-119.96 867.5,-101.96 894.5,-83.96 921.5,-101.96 894.5,-119.96"/>
<text text-anchor="middle" x="894.5" y="-98.86" font-family="Times,serif" font-size="12.00">X</text>
</g>
<!-- 139947614754320&#45;&gt;139947614753312 -->
<g id="edge9" class="edge">
<title>139947614754320&#45;&gt;139947614753312</title>
<path fill="none" stroke="black" d="M811.23,-101.96C827.37,-101.96 843.48,-101.96 857.11,-101.96"/>
<polygon fill="black" stroke="black" points="857.46,-105.46 867.46,-101.96 857.46,-98.46 857.46,-105.46"/>
</g>
<!-- 139947613639152 -->
<g id="node10" class="node">
<title>139947613639152</title>
<polygon fill="none" stroke="black" points="942,-65.96 847,-65.96 847,-29.96 942,-29.96 942,-65.96"/>
<text text-anchor="middle" x="894.5" y="-44.86" font-family="Times,serif" font-size="12.00">CONSTRUIR</text>
</g>
<!-- 139947613640352&#45;&gt;139947613639152 -->
<g id="edge10" class="edge">
<title>139947613640352&#45;&gt;139947613639152</title>
<path fill="none" stroke="black" d="M807.36,-47.96C817.23,-47.96 827.16,-47.96 836.6,-47.96"/>
<polygon fill="black" stroke="black" points="836.61,-51.46 846.61,-47.96 836.61,-44.46 836.61,-51.46"/>
</g>
<!-- 139947614754224 -->
<g id="node11" class="node">
<title>139947614754224</title>
<polygon fill="none" stroke="black" points="1055.5,-157.96 1028.5,-139.96 1055.5,-121.96 1082.5,-139.96 1055.5,-157.96"/>
<text text-anchor="middle" x="1055.5" y="-136.86" font-family="Times,serif" font-size="12.00">X</text>
</g>
<!-- 139947614753312&#45;&gt;139947614754224 -->
<g id="edge12" class="edge">
<title>139947614753312&#45;&gt;139947614754224</title>
<path fill="none" stroke="black" d="M914.68,-106.54C942.26,-113.13 993.32,-125.34 1025.52,-133.03"/>
<polygon fill="black" stroke="black" points="1024.71,-136.44 1035.25,-135.36 1026.34,-129.63 1024.71,-136.44"/>
</g>
<!-- 139947614754608 -->
<g id="node12" class="node">
<title>139947614754608</title>
<polygon fill="none" stroke="black" points="1444,-111.96 1417,-93.96 1444,-75.96 1471,-93.96 1444,-111.96"/>
<text text-anchor="middle" x="1444" y="-90.86" font-family="Times,serif" font-size="12.00">X</text>
</g>
<!-- 139947614753312&#45;&gt;139947614754608 -->
<g id="edge11" class="edge">
<title>139947614753312&#45;&gt;139947614754608</title>
<path fill="none" stroke="black" d="M921.17,-101.59C1009.99,-100.29 1304.41,-95.99 1407.21,-94.48"/>
<polygon fill="black" stroke="black" points="1407.44,-97.98 1417.38,-94.34 1407.33,-90.98 1407.44,-97.98"/>
</g>
<!-- 139947611351120 -->
<g id="node13" class="node">
<title>139947611351120</title>
<polygon fill="none" stroke="black" points="1133,-65.96 978,-65.96 978,-29.96 1133,-29.96 1133,-65.96"/>
<text text-anchor="middle" x="1055.5" y="-44.86" font-family="Times,serif" font-size="12.00">CONSTRUIR_IMAGEN</text>
</g>
<!-- 139947613639152&#45;&gt;139947611351120 -->
<g id="edge13" class="edge">
<title>139947613639152&#45;&gt;139947611351120</title>
<path fill="none" stroke="black" d="M942.35,-47.96C950.38,-47.96 958.95,-47.96 967.64,-47.96"/>
<polygon fill="black" stroke="black" points="967.87,-51.46 977.87,-47.96 967.87,-44.46 967.87,-51.46"/>
</g>
<!-- 139947614756192 -->
<g id="node15" class="node">
<title>139947614756192</title>
<polygon fill="none" stroke="black" points="1291,-199.96 1169,-199.96 1169,-163.96 1291,-163.96 1291,-199.96"/>
<text text-anchor="middle" x="1230" y="-178.86" font-family="Times,serif" font-size="12.00">PLANIFICACION</text>
</g>
<!-- 139947614754224&#45;&gt;139947614756192 -->
<g id="edge15" class="edge">
<title>139947614754224&#45;&gt;139947614756192</title>
<path fill="none" stroke="black" d="M1075.62,-144.62C1095.72,-149.51 1128.54,-157.5 1158.67,-164.84"/>
<polygon fill="black" stroke="black" points="1158.22,-168.33 1168.77,-167.3 1159.88,-161.53 1158.22,-168.33"/>
</g>
<!-- 139947614753696 -->
<g id="node14" class="node">
<title>139947614753696</title>
<polygon fill="none" stroke="black" points="1534,-111.96 1507,-93.96 1534,-75.96 1561,-93.96 1534,-111.96"/>
<text text-anchor="middle" x="1534" y="-90.86" font-family="Times,serif" font-size="12.00">X</text>
</g>
<!-- 139947614754608&#45;&gt;139947614753696 -->
<g id="edge14" class="edge">
<title>139947614754608&#45;&gt;139947614753696</title>
<path fill="none" stroke="black" d="M1471.4,-93.96C1479.39,-93.96 1488.31,-93.96 1496.82,-93.96"/>
<polygon fill="black" stroke="black" points="1496.92,-97.46 1506.92,-93.96 1496.92,-90.46 1496.92,-97.46"/>
</g>
<!-- 139947611352176 -->
<g id="node16" class="node">
<title>139947611352176</title>
<polygon fill="none" stroke="black" points="1281,-65.96 1179,-65.96 1179,-29.96 1281,-29.96 1281,-65.96"/>
<text text-anchor="middle" x="1230" y="-44.86" font-family="Times,serif" font-size="12.00">DESPLIEGUE</text>
</g>
<!-- 139947611351120&#45;&gt;139947611352176 -->
<g id="edge16" class="edge">
<title>139947611351120&#45;&gt;139947611352176</title>
<path fill="none" stroke="black" d="M1133.17,-47.96C1145.02,-47.96 1157.11,-47.96 1168.54,-47.96"/>
<polygon fill="black" stroke="black" points="1168.82,-51.46 1178.82,-47.96 1168.82,-44.46 1168.82,-51.46"/>
</g>
<!-- 139947614754416 -->
<g id="node17" class="node">
<title>139947614754416</title>
<polygon fill="none" stroke="black" points="1848,-65.96 1821,-47.96 1848,-29.96 1875,-47.96 1848,-65.96"/>
<text text-anchor="middle" x="1848" y="-44.86" font-family="Times,serif" font-size="12.00">X</text>
</g>
<!-- 139947614753696&#45;&gt;139947614754416 -->
<g id="edge19" class="edge">
<title>139947614753696&#45;&gt;139947614754416</title>
<path fill="none" stroke="black" d="M1559.92,-94.79C1605.38,-95.7 1704.52,-94.94 1785,-74.96 1798.22,-71.68 1812.19,-65.83 1823.52,-60.41"/>
<polygon fill="black" stroke="black" points="1825.31,-63.42 1832.7,-55.83 1822.19,-57.16 1825.31,-63.42"/>
</g>
<!-- 139947614754176 -->
<g id="node19" class="node">
<title>139947614754176</title>
<polygon fill="none" stroke="black" points="1785,-65.96 1597,-65.96 1597,-29.96 1785,-29.96 1785,-65.96"/>
<text text-anchor="middle" x="1691" y="-44.86" font-family="Times,serif" font-size="12.00">SEGUIMIENTO_In Progress</text>
</g>
<!-- 139947614753696&#45;&gt;139947614754176 -->
<g id="edge18" class="edge">
<title>139947614753696&#45;&gt;139947614754176</title>
<path fill="none" stroke="black" d="M1553.08,-88.59C1569.58,-83.7 1595.05,-76.14 1619.58,-68.86"/>
<polygon fill="black" stroke="black" points="1620.68,-72.19 1629.27,-65.98 1618.68,-65.47 1620.68,-72.19"/>
</g>
<!-- 139947614754944 -->
<g id="node18" class="node">
<title>139947614754944</title>
<polygon fill="none" stroke="black" points="1354,-157.96 1327,-139.96 1354,-121.96 1381,-139.96 1354,-157.96"/>
<text text-anchor="middle" x="1354" y="-136.86" font-family="Times,serif" font-size="12.00">X</text>
</g>
<!-- 139947614756192&#45;&gt;139947614754944 -->
<g id="edge17" class="edge">
<title>139947614756192&#45;&gt;139947614754944</title>
<path fill="none" stroke="black" d="M1283.45,-163.91C1298.08,-158.87 1313.38,-153.6 1325.89,-149.29"/>
<polygon fill="black" stroke="black" points="1327.36,-152.49 1335.67,-145.93 1325.08,-145.87 1327.36,-152.49"/>
</g>
<!-- 139947614752880 -->
<g id="node20" class="node">
<title>139947614752880</title>
<ellipse fill="orange" stroke="black" cx="1354" cy="-47.96" rx="18" ry="18"/>
</g>
<!-- 139947611352176&#45;&gt;139947614752880 -->
<g id="edge20" class="edge">
<title>139947611352176&#45;&gt;139947614752880</title>
<path fill="none" stroke="black" d="M1281.33,-47.96C1296.51,-47.96 1312.59,-47.96 1325.67,-47.96"/>
<polygon fill="black" stroke="black" points="1325.87,-51.46 1335.87,-47.96 1325.87,-44.46 1325.87,-51.46"/>
</g>
<!-- 139947614754416&#45;&gt;139947614753120 -->
<g id="edge21" class="edge">
<title>139947614754416&#45;&gt;139947614753120</title>
<path fill="none" stroke="black" d="M1832.7,-40.09C1820.44,-33.74 1802.09,-25.2 1785,-20.96 1676.85,5.88 1646.43,-1.96 1535,-1.96 338.5,-1.96 338.5,-1.96 338.5,-1.96 263.79,-1.96 176.52,-13.28 131.08,-20.04"/>
<polygon fill="black" stroke="black" points="130.35,-16.61 120.99,-21.57 131.4,-23.53 130.35,-16.61"/>
</g>
<!-- 139947614754944&#45;&gt;139947614754224 -->
<g id="edge22" class="edge">
<title>139947614754944&#45;&gt;139947614754224</title>
<path fill="none" stroke="black" d="M1326.69,-139.96C1273.55,-139.96 1153.33,-139.96 1092.79,-139.96"/>
<polygon fill="black" stroke="black" points="1092.55,-136.46 1082.55,-139.96 1092.55,-143.46 1092.55,-136.46"/>
</g>
<!-- 139947614754944&#45;&gt;139947614754608 -->
<g id="edge23" class="edge">
<title>139947614754944&#45;&gt;139947614754608</title>
<path fill="none" stroke="black" d="M1369.93,-132.16C1383.41,-125.11 1403.48,-114.62 1419.18,-106.41"/>
<polygon fill="black" stroke="black" points="1421.05,-109.38 1428.29,-101.65 1417.81,-103.18 1421.05,-109.38"/>
</g>
<!-- 139947614754176&#45;&gt;139947614754416 -->
<g id="edge24" class="edge">
<title>139947614754176&#45;&gt;139947614754416</title>
<path fill="none" stroke="black" d="M1785.29,-47.96C1794.2,-47.96 1802.81,-47.96 1810.64,-47.96"/>
<polygon fill="black" stroke="black" points="1810.77,-51.46 1820.77,-47.96 1810.77,-44.46 1810.77,-51.46"/>
</g>
</g>
</svg>
