<?xml version="1.0" encoding="UTF-8" standalone="no"?>
<!DOCTYPE svg PUBLIC "-//W3C//DTD SVG 1.1//EN"
 "http://www.w3.org/Graphics/SVG/1.1/DTD/svg11.dtd">
<!-- Generated by graphviz version 2.43.0 (0)
 -->
<!-- Title: %3 Pages: 1 -->
<svg width="2200pt" height="114pt"
 viewBox="0.00 0.00 2200.00 114.00" xmlns="http://www.w3.org/2000/svg" xmlns:xlink="http://www.w3.org/1999/xlink">
<g id="graph0" class="graph" transform="scale(1 1) rotate(0) translate(4 110)">
<title>%3</title>
<!-- 140141459894336 -->
<g id="node1" class="node">
<title>140141459894336</title>
<ellipse fill="green" stroke="black" cx="18" cy="-23" rx="18" ry="18"/>
</g>
<!-- 140141459894576 -->
<g id="node2" class="node">
<title>140141459894576</title>
<polygon fill="none" stroke="black" points="99,-41 72,-23 99,-5 126,-23 99,-41"/>
<text text-anchor="middle" x="99" y="-19.9" font-family="Times,serif" font-size="12.00">X</text>
</g>
<!-- 140141459894336&#45;&gt;140141459894576 -->
<g id="edge1" class="edge">
<title>140141459894336&#45;&gt;140141459894576</title>
<path fill="none" stroke="black" d="M36.14,-23C43.64,-23 52.75,-23 61.64,-23"/>
<polygon fill="black" stroke="black" points="61.87,-26.5 71.87,-23 61.87,-19.5 61.87,-26.5"/>
</g>
<!-- 140141459895056 -->
<g id="node3" class="node">
<title>140141459895056</title>
<polygon fill="none" stroke="black" points="189,-64 162,-46 189,-28 216,-46 189,-64"/>
<text text-anchor="middle" x="189" y="-42.9" font-family="Times,serif" font-size="12.00">X</text>
</g>
<!-- 140141459894576&#45;&gt;140141459895056 -->
<g id="edge2" class="edge">
<title>140141459894576&#45;&gt;140141459895056</title>
<path fill="none" stroke="black" d="M119.09,-27.99C130.82,-31.06 146.07,-35.04 159.24,-38.48"/>
<polygon fill="black" stroke="black" points="158.68,-41.96 169.24,-41.1 160.45,-35.18 158.68,-41.96"/>
</g>
<!-- 140141459894672 -->
<g id="node4" class="node">
<title>140141459894672</title>
<polygon fill="none" stroke="black" points="527,-41 500,-23 527,-5 554,-23 527,-41"/>
<text text-anchor="middle" x="527" y="-19.9" font-family="Times,serif" font-size="12.00">X</text>
</g>
<!-- 140141459894576&#45;&gt;140141459894672 -->
<g id="edge3" class="edge">
<title>140141459894576&#45;&gt;140141459894672</title>
<path fill="none" stroke="black" d="M123.24,-21.14C134.87,-20.31 149.17,-19.41 162,-19 296.15,-14.68 329.85,-14.68 464,-19 473.32,-19.3 483.42,-19.85 492.7,-20.46"/>
<polygon fill="black" stroke="black" points="492.54,-23.95 502.76,-21.14 493.02,-16.97 492.54,-23.95"/>
</g>
<!-- 140141459895104 -->
<g id="node6" class="node">
<title>140141459895104</title>
<polygon fill="none" stroke="black" points="374,-106 252,-106 252,-70 374,-70 374,-106"/>
<text text-anchor="middle" x="313" y="-84.9" font-family="Times,serif" font-size="12.00">PLANIFICACION</text>
</g>
<!-- 140141459895056&#45;&gt;140141459895104 -->
<g id="edge5" class="edge">
<title>140141459895056&#45;&gt;140141459895104</title>
<path fill="none" stroke="black" d="M207.22,-51.93C218.53,-55.82 234.1,-61.18 249.76,-66.57"/>
<polygon fill="black" stroke="black" points="248.9,-69.98 259.5,-69.93 251.18,-63.36 248.9,-69.98"/>
</g>
<!-- 140141460153392 -->
<g id="node5" class="node">
<title>140141460153392</title>
<polygon fill="none" stroke="black" points="778,-41 590,-41 590,-5 778,-5 778,-41"/>
<text text-anchor="middle" x="684" y="-19.9" font-family="Times,serif" font-size="12.00">SEGUIMIENTO_In Progress</text>
</g>
<!-- 140141459894672&#45;&gt;140141460153392 -->
<g id="edge4" class="edge">
<title>140141459894672&#45;&gt;140141460153392</title>
<path fill="none" stroke="black" d="M554.29,-23C561.78,-23 570.42,-23 579.6,-23"/>
<polygon fill="black" stroke="black" points="579.76,-26.5 589.76,-23 579.76,-19.5 579.76,-26.5"/>
</g>
<!-- 140141460153008 -->
<g id="node8" class="node">
<title>140141460153008</title>
<polygon fill="none" stroke="black" points="989,-41 814,-41 814,-5 989,-5 989,-41"/>
<text text-anchor="middle" x="901.5" y="-19.9" font-family="Times,serif" font-size="12.00">IMPLEMENTACION_code</text>
</g>
<!-- 140141460153392&#45;&gt;140141460153008 -->
<g id="edge7" class="edge">
<title>140141460153392&#45;&gt;140141460153008</title>
<path fill="none" stroke="black" d="M778.27,-23C786.68,-23 795.21,-23 803.65,-23"/>
<polygon fill="black" stroke="black" points="803.89,-26.5 813.89,-23 803.89,-19.5 803.89,-26.5"/>
</g>
<!-- 140141459894912 -->
<g id="node7" class="node">
<title>140141459894912</title>
<polygon fill="none" stroke="black" points="437,-64 410,-46 437,-28 464,-46 437,-64"/>
<text text-anchor="middle" x="437" y="-42.9" font-family="Times,serif" font-size="12.00">X</text>
</g>
<!-- 140141459895104&#45;&gt;140141459894912 -->
<g id="edge6" class="edge">
<title>140141459895104&#45;&gt;140141459894912</title>
<path fill="none" stroke="black" d="M366.45,-69.94C381.08,-64.91 396.38,-59.64 408.89,-55.33"/>
<polygon fill="black" stroke="black" points="410.36,-58.53 418.67,-51.96 408.08,-51.91 410.36,-58.53"/>
</g>
<!-- 140141459894912&#45;&gt;140141459895056 -->
<g id="edge8" class="edge">
<title>140141459894912&#45;&gt;140141459895056</title>
<path fill="none" stroke="black" d="M409.86,-46C365.79,-46 276.59,-46 226.41,-46"/>
<polygon fill="black" stroke="black" points="226.33,-42.5 216.33,-46 226.33,-49.5 226.33,-42.5"/>
</g>
<!-- 140141459894912&#45;&gt;140141459894672 -->
<g id="edge9" class="edge">
<title>140141459894912&#45;&gt;140141459894672</title>
<path fill="none" stroke="black" d="M457.09,-41.01C468.82,-37.94 484.07,-33.96 497.24,-30.52"/>
<polygon fill="black" stroke="black" points="498.45,-33.82 507.24,-27.9 496.68,-27.04 498.45,-33.82"/>
</g>
<!-- 140141460153968 -->
<g id="node9" class="node">
<title>140141460153968</title>
<polygon fill="none" stroke="black" points="1052,-41 1025,-23 1052,-5 1079,-23 1052,-41"/>
<text text-anchor="middle" x="1052" y="-19.9" font-family="Times,serif" font-size="12.00">X</text>
</g>
<!-- 140141460153008&#45;&gt;140141460153968 -->
<g id="edge10" class="edge">
<title>140141460153008&#45;&gt;140141460153968</title>
<path fill="none" stroke="black" d="M989.31,-23C998.21,-23 1006.87,-23 1014.74,-23"/>
<polygon fill="black" stroke="black" points="1014.94,-26.5 1024.94,-23 1014.94,-19.5 1014.94,-26.5"/>
</g>
<!-- 140141460153776 -->
<g id="node10" class="node">
<title>140141460153776</title>
<polygon fill="none" stroke="black" points="1142,-64 1115,-46 1142,-28 1169,-46 1142,-64"/>
<text text-anchor="middle" x="1142" y="-42.9" font-family="Times,serif" font-size="12.00">X</text>
</g>
<!-- 140141460153968&#45;&gt;140141460153776 -->
<g id="edge11" class="edge">
<title>140141460153968&#45;&gt;140141460153776</title>
<path fill="none" stroke="black" d="M1072.09,-27.99C1083.82,-31.06 1099.07,-35.04 1112.24,-38.48"/>
<polygon fill="black" stroke="black" points="1111.68,-41.96 1122.24,-41.1 1113.45,-35.18 1111.68,-41.96"/>
</g>
<!-- 140141460153824 -->
<g id="node11" class="node">
<title>140141460153824</title>
<polygon fill="none" stroke="black" points="1365,-106 1205,-106 1205,-70 1365,-70 1365,-106"/>
<text text-anchor="middle" x="1285" y="-84.9" font-family="Times,serif" font-size="12.00">EJECUCION_PIPELINE</text>
</g>
<!-- 140141460153776&#45;&gt;140141460153824 -->
<g id="edge12" class="edge">
<title>140141460153776&#45;&gt;140141460153824</title>
<path fill="none" stroke="black" d="M1161.14,-51.4C1174.7,-55.44 1194.16,-61.24 1213.62,-67.04"/>
<polygon fill="black" stroke="black" points="1212.87,-70.46 1223.45,-69.96 1214.87,-63.75 1212.87,-70.46"/>
</g>
<!-- 140141460153104 -->
<g id="node12" class="node">
<title>140141460153104</title>
<polygon fill="none" stroke="black" points="1496,-106 1401,-106 1401,-70 1496,-70 1496,-106"/>
<text text-anchor="middle" x="1448.5" y="-84.9" font-family="Times,serif" font-size="12.00">CONSTRUIR</text>
</g>
<!-- 140141460153824&#45;&gt;140141460153104 -->
<g id="edge13" class="edge">
<title>140141460153824&#45;&gt;140141460153104</title>
<path fill="none" stroke="black" d="M1365.33,-88C1373.86,-88 1382.4,-88 1390.59,-88"/>
<polygon fill="black" stroke="black" points="1390.74,-91.5 1400.74,-88 1390.74,-84.5 1390.74,-91.5"/>
</g>
<!-- 140141460153872 -->
<g id="node13" class="node">
<title>140141460153872</title>
<polygon fill="none" stroke="black" points="1611,-106 1532,-106 1532,-70 1611,-70 1611,-106"/>
<text text-anchor="middle" x="1571.5" y="-84.9" font-family="Times,serif" font-size="12.00">PRUEBAS</text>
</g>
<!-- 140141460153104&#45;&gt;140141460153872 -->
<g id="edge14" class="edge">
<title>140141460153104&#45;&gt;140141460153872</title>
<path fill="none" stroke="black" d="M1496.28,-88C1504.6,-88 1513.29,-88 1521.67,-88"/>
<polygon fill="black" stroke="black" points="1521.68,-91.5 1531.68,-88 1521.68,-84.5 1521.68,-91.5"/>
</g>
<!-- 140141460386336 -->
<g id="node14" class="node">
<title>140141460386336</title>
<polygon fill="none" stroke="black" points="1802,-106 1647,-106 1647,-70 1802,-70 1802,-106"/>
<text text-anchor="middle" x="1724.5" y="-84.9" font-family="Times,serif" font-size="12.00">CONSTRUIR_IMAGEN</text>
</g>
<!-- 140141460153872&#45;&gt;140141460386336 -->
<g id="edge15" class="edge">
<title>140141460153872&#45;&gt;140141460386336</title>
<path fill="none" stroke="black" d="M1611.39,-88C1619.32,-88 1627.97,-88 1636.83,-88"/>
<polygon fill="black" stroke="black" points="1636.89,-91.5 1646.89,-88 1636.89,-84.5 1636.89,-91.5"/>
</g>
<!-- 140141460154064 -->
<g id="node15" class="node">
<title>140141460154064</title>
<polygon fill="none" stroke="black" points="1865,-64 1838,-46 1865,-28 1892,-46 1865,-64"/>
<text text-anchor="middle" x="1865" y="-42.9" font-family="Times,serif" font-size="12.00">X</text>
</g>
<!-- 140141460386336&#45;&gt;140141460154064 -->
<g id="edge16" class="edge">
<title>140141460386336&#45;&gt;140141460154064</title>
<path fill="none" stroke="black" d="M1785.04,-69.94C1802.74,-64.58 1821.3,-58.95 1835.98,-54.5"/>
<polygon fill="black" stroke="black" points="1837.36,-57.74 1845.91,-51.49 1835.33,-51.04 1837.36,-57.74"/>
</g>
<!-- 140141460154064&#45;&gt;140141460153776 -->
<g id="edge17" class="edge">
<title>140141460154064&#45;&gt;140141460153776</title>
<path fill="none" stroke="black" d="M1838.66,-45.42C1788.06,-44.31 1670.94,-42 1572.5,-42 1447.5,-42 1447.5,-42 1447.5,-42 1350.15,-42 1235.31,-44.07 1178.5,-45.23"/>
<polygon fill="black" stroke="black" points="1178.19,-41.74 1168.26,-45.44 1178.33,-48.74 1178.19,-41.74"/>
</g>
<!-- 140141460387008 -->
<g id="node16" class="node">
<title>140141460387008</title>
<polygon fill="none" stroke="black" points="2030,-64 1928,-64 1928,-28 2030,-28 2030,-64"/>
<text text-anchor="middle" x="1979" y="-42.9" font-family="Times,serif" font-size="12.00">DESPLIEGUE</text>
</g>
<!-- 140141460154064&#45;&gt;140141460387008 -->
<g id="edge18" class="edge">
<title>140141460154064&#45;&gt;140141460387008</title>
<path fill="none" stroke="black" d="M1892.26,-46C1899.96,-46 1908.73,-46 1917.64,-46"/>
<polygon fill="black" stroke="black" points="1917.71,-49.5 1927.71,-46 1917.71,-42.5 1917.71,-49.5"/>
</g>
<!-- 140141460154304 -->
<g id="node17" class="node">
<title>140141460154304</title>
<polygon fill="none" stroke="black" points="2093,-41 2066,-23 2093,-5 2120,-23 2093,-41"/>
<text text-anchor="middle" x="2093" y="-19.9" font-family="Times,serif" font-size="12.00">X</text>
</g>
<!-- 140141460387008&#45;&gt;140141460154304 -->
<g id="edge19" class="edge">
<title>140141460387008&#45;&gt;140141460154304</title>
<path fill="none" stroke="black" d="M2030.1,-35.71C2040.97,-33.48 2052.13,-31.19 2061.93,-29.17"/>
<polygon fill="black" stroke="black" points="2062.87,-32.56 2071.96,-27.12 2061.46,-25.7 2062.87,-32.56"/>
</g>
<!-- 140141460154304&#45;&gt;140141460153968 -->
<g id="edge20" class="edge">
<title>140141460154304&#45;&gt;140141460153968</title>
<path fill="none" stroke="black" d="M2071.2,-19.46C2031.45,-13 1941.92,0 1866,0 1284,0 1284,0 1284,0 1212.14,0 1128.32,-11.16 1084.06,-17.93"/>
<polygon fill="black" stroke="black" points="1083.29,-14.51 1073.95,-19.51 1084.37,-21.42 1083.29,-14.51"/>
</g>
<!-- 140141459894480 -->
<g id="node18" class="node">
<title>140141459894480</title>
<ellipse fill="orange" stroke="black" cx="2174" cy="-23" rx="18" ry="18"/>
</g>
<!-- 140141460154304&#45;&gt;140141459894480 -->
<g id="edge21" class="edge">
<title>140141460154304&#45;&gt;140141459894480</title>
<path fill="none" stroke="black" d="M2120.31,-23C2128.42,-23 2137.37,-23 2145.56,-23"/>
<polygon fill="black" stroke="black" points="2145.75,-26.5 2155.75,-23 2145.75,-19.5 2145.75,-26.5"/>
</g>
</g>
</svg>
