<?xml version="1.0" encoding="UTF-8" standalone="no"?>
<!DOCTYPE svg PUBLIC "-//W3C//DTD SVG 1.1//EN"
 "http://www.w3.org/Graphics/SVG/1.1/DTD/svg11.dtd">
<!-- Generated by graphviz version 2.43.0 (0)
 -->
<!-- Title: %3 Pages: 1 -->
<svg width="466pt" height="384pt"
 viewBox="0.00 0.00 466.00 384.00" xmlns="http://www.w3.org/2000/svg" xmlns:xlink="http://www.w3.org/1999/xlink">
<g id="graph0" class="graph" transform="scale(1 1) rotate(0) translate(4 380)">
<title>%3</title>
<!-- 4783860985303961342 -->
<g id="node1" class="node">
<title>4783860985303961342</title>
<polygon fill="none" stroke="black" points="237.5,-376 116.5,-376 116.5,-340 237.5,-340 237.5,-376"/>
<text text-anchor="middle" x="177" y="-354.9" font-family="Times,serif" font-size="12.00">CONSTRUIR (0s)</text>
</g>
<!-- 8881260387225893496 -->
<g id="node7" class="node">
<title>8881260387225893496</title>
<polygon fill="none" stroke="black" points="178.5,-291 73.5,-291 73.5,-255 178.5,-255 178.5,-291"/>
<text text-anchor="middle" x="126" y="-269.9" font-family="Times,serif" font-size="12.00">PRUEBAS (0s)</text>
</g>
<!-- 4783860985303961342&#45;&gt;8881260387225893496 -->
<g id="edge1" class="edge">
<title>4783860985303961342&#45;&gt;8881260387225893496</title>
<path fill="none" stroke="black" stroke-width="2.6" d="M166.43,-339.8C159.32,-328.23 149.82,-312.76 141.81,-299.73"/>
<polygon fill="black" stroke="black" stroke-width="2.6" points="144.77,-297.86 136.55,-291.18 138.81,-301.53 144.77,-297.86"/>
<text text-anchor="middle" x="159" y="-312.4" font-family="Times,serif" font-size="12.00">5</text>
</g>
<!-- 7908105078187501605 -->
<g id="node2" class="node">
<title>7908105078187501605</title>
<polygon fill="none" stroke="black" points="182,-206 0,-206 0,-170 182,-170 182,-206"/>
<text text-anchor="middle" x="91" y="-184.9" font-family="Times,serif" font-size="12.00">CONSTRUIR_IMAGEN (0s)</text>
</g>
<!-- 3840256736270963487 -->
<g id="node3" class="node">
<title>3840256736270963487</title>
<polygon fill="none" stroke="black" points="146,-121 18,-121 18,-85 146,-85 146,-121"/>
<text text-anchor="middle" x="82" y="-99.9" font-family="Times,serif" font-size="12.00">DESPLIEGUE (0s)</text>
</g>
<!-- 7908105078187501605&#45;&gt;3840256736270963487 -->
<g id="edge2" class="edge">
<title>7908105078187501605&#45;&gt;3840256736270963487</title>
<path fill="none" stroke="black" stroke-width="2.2" d="M89.14,-169.8C87.93,-158.67 86.33,-143.94 84.95,-131.24"/>
<polygon fill="black" stroke="black" stroke-width="2.2" points="88.42,-130.74 83.86,-121.18 81.46,-131.49 88.42,-130.74"/>
<text text-anchor="middle" x="92" y="-142.4" font-family="Times,serif" font-size="12.00">4</text>
</g>
<!-- 8404427177316291747 -->
<g id="node4" class="node">
<title>8404427177316291747</title>
<polygon fill="none" stroke="black" points="293,-36 107,-36 107,0 293,0 293,-36"/>
<text text-anchor="middle" x="200" y="-14.9" font-family="Times,serif" font-size="12.00">EJECUCION_PIPELINE (0s)</text>
</g>
<!-- 7908105078187501605&#45;&gt;8404427177316291747 -->
<g id="edge3" class="edge">
<title>7908105078187501605&#45;&gt;8404427177316291747</title>
<path fill="none" stroke="black" d="M111.12,-169.77C124.8,-157.28 142.61,-139.4 155,-121 170.89,-97.41 183.37,-67.29 191.11,-45.91"/>
<polygon fill="black" stroke="black" points="194.51,-46.78 194.53,-36.19 187.91,-44.46 194.51,-46.78"/>
<text text-anchor="middle" x="179" y="-99.9" font-family="Times,serif" font-size="12.00">1</text>
</g>
<!-- 3840256736270963487&#45;&gt;8404427177316291747 -->
<g id="edge4" class="edge">
<title>3840256736270963487&#45;&gt;8404427177316291747</title>
<path fill="none" stroke="black" stroke-width="1.4" d="M106.45,-84.8C124.09,-72.39 148.09,-55.51 167.37,-41.95"/>
<polygon fill="black" stroke="black" stroke-width="1.4" points="169.42,-44.79 175.58,-36.18 165.39,-39.07 169.42,-44.79"/>
<text text-anchor="middle" x="153" y="-57.4" font-family="Times,serif" font-size="12.00">2</text>
</g>
<!-- 8404427177316291747&#45;&gt;4783860985303961342 -->
<g id="edge5" class="edge">
<title>8404427177316291747&#45;&gt;4783860985303961342</title>
<path fill="none" stroke="black" stroke-width="2.6" d="M205.99,-36.25C211.23,-52.88 218,-78.85 218,-102 218,-274 218,-274 218,-274 218,-294.69 207.63,-315.56 197.32,-331.2"/>
<polygon fill="black" stroke="black" stroke-width="2.6" points="194.2,-329.56 191.34,-339.76 199.94,-333.57 194.2,-329.56"/>
<text text-anchor="middle" x="222" y="-184.9" font-family="Times,serif" font-size="12.00">5</text>
</g>
<!-- &#45;7875228254299623197 -->
<g id="node5" class="node">
<title>&#45;7875228254299623197</title>
<polygon fill="none" stroke="black" points="449.5,-121 248.5,-121 248.5,-85 449.5,-85 449.5,-121"/>
<text text-anchor="middle" x="349" y="-99.9" font-family="Times,serif" font-size="12.00">IMPLEMENTACION_code (0s)</text>
</g>
<!-- &#45;7875228254299623197&#45;&gt;8404427177316291747 -->
<g id="edge6" class="edge">
<title>&#45;7875228254299623197&#45;&gt;8404427177316291747</title>
<path fill="none" stroke="black" stroke-width="1.4" d="M318.13,-84.8C295.28,-72.07 263.97,-54.63 239.33,-40.91"/>
<polygon fill="black" stroke="black" stroke-width="1.4" points="241.02,-37.84 230.58,-36.03 237.61,-43.96 241.02,-37.84"/>
<text text-anchor="middle" x="288" y="-57.4" font-family="Times,serif" font-size="12.00">2</text>
</g>
<!-- &#45;934686306392714557 -->
<g id="node6" class="node">
<title>&#45;934686306392714557</title>
<polygon fill="none" stroke="black" points="425,-291 277,-291 277,-255 425,-255 425,-291"/>
<text text-anchor="middle" x="351" y="-269.9" font-family="Times,serif" font-size="12.00">PLANIFICACION (0s)</text>
</g>
<!-- &#45;934686306392714557&#45;&gt;&#45;934686306392714557 -->
<g id="edge7" class="edge">
<title>&#45;934686306392714557&#45;&gt;&#45;934686306392714557</title>
<path fill="none" stroke="black" stroke-width="1.8" d="M425.36,-280.07C435.92,-278.92 443,-276.57 443,-273 443,-270.71 440.09,-268.93 435.23,-267.64"/>
<polygon fill="black" stroke="black" stroke-width="1.8" points="435.81,-264.18 425.36,-265.93 434.62,-271.08 435.81,-264.18"/>
<text text-anchor="middle" x="447" y="-269.9" font-family="Times,serif" font-size="12.00">3</text>
</g>
<!-- 6390684020458564172 -->
<g id="node8" class="node">
<title>6390684020458564172</title>
<polygon fill="none" stroke="black" points="458,-206 244,-206 244,-170 458,-170 458,-206"/>
<text text-anchor="middle" x="351" y="-184.9" font-family="Times,serif" font-size="12.00">SEGUIMIENTO_In Progress (0s)</text>
</g>
<!-- &#45;934686306392714557&#45;&gt;6390684020458564172 -->
<g id="edge8" class="edge">
<title>&#45;934686306392714557&#45;&gt;6390684020458564172</title>
<path fill="none" stroke="black" d="M351,-254.8C351,-243.67 351,-228.94 351,-216.24"/>
<polygon fill="black" stroke="black" points="354.5,-216.18 351,-206.18 347.5,-216.18 354.5,-216.18"/>
<text text-anchor="middle" x="355" y="-227.4" font-family="Times,serif" font-size="12.00">1</text>
</g>
<!-- 8881260387225893496&#45;&gt;7908105078187501605 -->
<g id="edge9" class="edge">
<title>8881260387225893496&#45;&gt;7908105078187501605</title>
<path fill="none" stroke="black" stroke-width="2.6" d="M118.75,-254.8C113.96,-243.45 107.6,-228.35 102.17,-215.48"/>
<polygon fill="black" stroke="black" stroke-width="2.6" points="105.35,-214.03 98.24,-206.18 98.9,-216.75 105.35,-214.03"/>
<text text-anchor="middle" x="115" y="-227.4" font-family="Times,serif" font-size="12.00">5</text>
</g>
<!-- 6390684020458564172&#45;&gt;&#45;7875228254299623197 -->
<g id="edge10" class="edge">
<title>6390684020458564172&#45;&gt;&#45;7875228254299623197</title>
<path fill="none" stroke="black" stroke-width="1.4" d="M350.59,-169.8C350.32,-158.67 349.96,-143.94 349.66,-131.24"/>
<polygon fill="black" stroke="black" stroke-width="1.4" points="353.15,-131.09 349.41,-121.18 346.16,-131.26 353.15,-131.09"/>
<text text-anchor="middle" x="354" y="-142.4" font-family="Times,serif" font-size="12.00">2</text>
</g>
</g>
</svg>
