<?xml version="1.0" encoding="UTF-8" standalone="no"?>
<!DOCTYPE svg PUBLIC "-//W3C//DTD SVG 1.1//EN"
 "http://www.w3.org/Graphics/SVG/1.1/DTD/svg11.dtd">
<!-- Generated by graphviz version 2.43.0 (0)
 -->
<!-- Title: %3 Pages: 1 -->
<svg width="443pt" height="469pt"
 viewBox="0.00 0.00 442.50 469.00" xmlns="http://www.w3.org/2000/svg" xmlns:xlink="http://www.w3.org/1999/xlink">
<g id="graph0" class="graph" transform="scale(1 1) rotate(0) translate(4 465)">
<title>%3</title>
<!-- 3585141418796701289 -->
<g id="node1" class="node">
<title>3585141418796701289</title>
<polygon fill="none" stroke="black" points="434.5,-461 313.5,-461 313.5,-425 434.5,-425 434.5,-461"/>
<text text-anchor="middle" x="374" y="-439.9" font-family="Times,serif" font-size="12.00">CONSTRUIR (0s)</text>
</g>
<!-- 3141649102493478583 -->
<g id="node7" class="node">
<title>3141649102493478583</title>
<polygon fill="none" stroke="black" points="325.5,-376 220.5,-376 220.5,-340 325.5,-340 325.5,-376"/>
<text text-anchor="middle" x="273" y="-354.9" font-family="Times,serif" font-size="12.00">PRUEBAS (0s)</text>
</g>
<!-- 3585141418796701289&#45;&gt;3141649102493478583 -->
<g id="edge1" class="edge">
<title>3585141418796701289&#45;&gt;3141649102493478583</title>
<path fill="none" stroke="black" stroke-width="2.6" d="M353.07,-424.8C338.31,-412.67 318.35,-396.26 302.04,-382.87"/>
<polygon fill="black" stroke="black" stroke-width="2.6" points="303.85,-379.82 293.9,-376.18 299.4,-385.23 303.85,-379.82"/>
<text text-anchor="middle" x="333" y="-397.4" font-family="Times,serif" font-size="12.00">5</text>
</g>
<!-- 4272811764518920529 -->
<g id="node2" class="node">
<title>4272811764518920529</title>
<polygon fill="none" stroke="black" points="182,-291 0,-291 0,-255 182,-255 182,-291"/>
<text text-anchor="middle" x="91" y="-269.9" font-family="Times,serif" font-size="12.00">CONSTRUIR_IMAGEN (0s)</text>
</g>
<!-- &#45;5385209317139528404 -->
<g id="node3" class="node">
<title>&#45;5385209317139528404</title>
<polygon fill="none" stroke="black" points="155,-206 27,-206 27,-170 155,-170 155,-206"/>
<text text-anchor="middle" x="91" y="-184.9" font-family="Times,serif" font-size="12.00">DESPLIEGUE (0s)</text>
</g>
<!-- 4272811764518920529&#45;&gt;&#45;5385209317139528404 -->
<g id="edge2" class="edge">
<title>4272811764518920529&#45;&gt;&#45;5385209317139528404</title>
<path fill="none" stroke="black" stroke-width="2.2" d="M91,-254.8C91,-243.67 91,-228.94 91,-216.24"/>
<polygon fill="black" stroke="black" stroke-width="2.2" points="94.5,-216.18 91,-206.18 87.5,-216.18 94.5,-216.18"/>
<text text-anchor="middle" x="95" y="-227.4" font-family="Times,serif" font-size="12.00">4</text>
</g>
<!-- &#45;1003034464487533105 -->
<g id="node4" class="node">
<title>&#45;1003034464487533105</title>
<polygon fill="none" stroke="black" points="291,-36 105,-36 105,0 291,0 291,-36"/>
<text text-anchor="middle" x="198" y="-14.9" font-family="Times,serif" font-size="12.00">EJECUCION_PIPELINE (0s)</text>
</g>
<!-- 4272811764518920529&#45;&gt;&#45;1003034464487533105 -->
<g id="edge3" class="edge">
<title>4272811764518920529&#45;&gt;&#45;1003034464487533105</title>
<path fill="none" stroke="black" d="M62.28,-254.79C45.99,-243.26 27.08,-226.46 18,-206 11.51,-191.38 13.8,-185.44 18,-170 34,-111.23 41.58,-89.61 91,-54 98.59,-48.53 107.09,-43.88 115.88,-39.94"/>
<polygon fill="black" stroke="black" points="117.24,-43.16 125.13,-36.08 114.55,-36.7 117.24,-43.16"/>
<text text-anchor="middle" x="31" y="-142.4" font-family="Times,serif" font-size="12.00">1</text>
</g>
<!-- &#45;5385209317139528404&#45;&gt;&#45;1003034464487533105 -->
<g id="edge4" class="edge">
<title>&#45;5385209317139528404&#45;&gt;&#45;1003034464487533105</title>
<path fill="none" stroke="black" stroke-width="1.4" d="M83.22,-169.8C74.8,-148.39 64.5,-111.43 80,-85 91.79,-64.89 112.19,-50.45 132.75,-40.31"/>
<polygon fill="black" stroke="black" stroke-width="1.4" points="134.26,-43.47 141.85,-36.09 131.31,-37.12 134.26,-43.47"/>
<text text-anchor="middle" x="84" y="-99.9" font-family="Times,serif" font-size="12.00">2</text>
</g>
<!-- 602590344285510824 -->
<g id="node5" class="node">
<title>602590344285510824</title>
<polygon fill="none" stroke="black" points="298.5,-121 97.5,-121 97.5,-85 298.5,-85 298.5,-121"/>
<text text-anchor="middle" x="198" y="-99.9" font-family="Times,serif" font-size="12.00">IMPLEMENTACION_code (0s)</text>
</g>
<!-- &#45;5385209317139528404&#45;&gt;602590344285510824 -->
<g id="edge5" class="edge">
<title>&#45;5385209317139528404&#45;&gt;602590344285510824</title>
<path fill="none" stroke="black" d="M113.17,-169.8C128.95,-157.56 150.35,-140.96 167.7,-127.5"/>
<polygon fill="black" stroke="black" points="170.1,-130.07 175.86,-121.18 165.81,-124.54 170.1,-130.07"/>
<text text-anchor="middle" x="155" y="-142.4" font-family="Times,serif" font-size="12.00">1</text>
</g>
<!-- &#45;1003034464487533105&#45;&gt;3585141418796701289 -->
<g id="edge6" class="edge">
<title>&#45;1003034464487533105&#45;&gt;3585141418796701289</title>
<path fill="none" stroke="black" stroke-width="2.6" d="M285.95,-36.01C346.1,-50.25 415,-72.91 415,-102 415,-359 415,-359 415,-359 415,-379.69 404.63,-400.56 394.32,-416.2"/>
<polygon fill="black" stroke="black" stroke-width="2.6" points="391.2,-414.56 388.34,-424.76 396.94,-418.57 391.2,-414.56"/>
<text text-anchor="middle" x="419" y="-227.4" font-family="Times,serif" font-size="12.00">5</text>
</g>
<!-- 602590344285510824&#45;&gt;&#45;1003034464487533105 -->
<g id="edge7" class="edge">
<title>602590344285510824&#45;&gt;&#45;1003034464487533105</title>
<path fill="none" stroke="black" d="M198,-84.8C198,-73.67 198,-58.94 198,-46.24"/>
<polygon fill="black" stroke="black" points="201.5,-46.18 198,-36.18 194.5,-46.18 201.5,-46.18"/>
<text text-anchor="middle" x="202" y="-57.4" font-family="Times,serif" font-size="12.00">1</text>
</g>
<!-- 6866437894726619633 -->
<g id="node6" class="node">
<title>6866437894726619633</title>
<polygon fill="none" stroke="black" points="354,-291 206,-291 206,-255 354,-255 354,-291"/>
<text text-anchor="middle" x="280" y="-269.9" font-family="Times,serif" font-size="12.00">PLANIFICACION (0s)</text>
</g>
<!-- 6866437894726619633&#45;&gt;6866437894726619633 -->
<g id="edge8" class="edge">
<title>6866437894726619633&#45;&gt;6866437894726619633</title>
<path fill="none" stroke="black" stroke-width="1.8" d="M354.36,-280.07C364.92,-278.92 372,-276.57 372,-273 372,-270.71 369.09,-268.93 364.23,-267.64"/>
<polygon fill="black" stroke="black" stroke-width="1.8" points="364.81,-264.18 354.36,-265.93 363.62,-271.08 364.81,-264.18"/>
<text text-anchor="middle" x="376" y="-269.9" font-family="Times,serif" font-size="12.00">3</text>
</g>
<!-- 2265516840784742312 -->
<g id="node8" class="node">
<title>2265516840784742312</title>
<polygon fill="none" stroke="black" points="387,-206 173,-206 173,-170 387,-170 387,-206"/>
<text text-anchor="middle" x="280" y="-184.9" font-family="Times,serif" font-size="12.00">SEGUIMIENTO_In Progress (0s)</text>
</g>
<!-- 6866437894726619633&#45;&gt;2265516840784742312 -->
<g id="edge9" class="edge">
<title>6866437894726619633&#45;&gt;2265516840784742312</title>
<path fill="none" stroke="black" d="M280,-254.8C280,-243.67 280,-228.94 280,-216.24"/>
<polygon fill="black" stroke="black" points="283.5,-216.18 280,-206.18 276.5,-216.18 283.5,-216.18"/>
<text text-anchor="middle" x="284" y="-227.4" font-family="Times,serif" font-size="12.00">1</text>
</g>
<!-- 3141649102493478583&#45;&gt;4272811764518920529 -->
<g id="edge10" class="edge">
<title>3141649102493478583&#45;&gt;4272811764518920529</title>
<path fill="none" stroke="black" stroke-width="2.6" d="M235.29,-339.8C206.89,-326.85 167.79,-309.02 137.46,-295.19"/>
<polygon fill="black" stroke="black" stroke-width="2.6" points="138.9,-292 128.35,-291.03 136,-298.37 138.9,-292"/>
<text text-anchor="middle" x="197" y="-312.4" font-family="Times,serif" font-size="12.00">5</text>
</g>
<!-- 2265516840784742312&#45;&gt;&#45;1003034464487533105 -->
<g id="edge11" class="edge">
<title>2265516840784742312&#45;&gt;&#45;1003034464487533105</title>
<path fill="none" stroke="black" d="M292.33,-169.77C305.78,-148.66 323.47,-112.33 308,-85 296.82,-65.25 277.11,-50.77 257.44,-40.49"/>
<polygon fill="black" stroke="black" points="258.95,-37.33 248.43,-36.06 255.86,-43.61 258.95,-37.33"/>
<text text-anchor="middle" x="318" y="-99.9" font-family="Times,serif" font-size="12.00">1</text>
</g>
<!-- 2265516840784742312&#45;&gt;602590344285510824 -->
<g id="edge12" class="edge">
<title>2265516840784742312&#45;&gt;602590344285510824</title>
<path fill="none" stroke="black" d="M263.01,-169.8C251.25,-157.89 235.41,-141.87 222.31,-128.61"/>
<polygon fill="black" stroke="black" points="224.49,-125.83 214.97,-121.18 219.51,-130.75 224.49,-125.83"/>
<text text-anchor="middle" x="248" y="-142.4" font-family="Times,serif" font-size="12.00">1</text>
</g>
</g>
</svg>
