<?xml version="1.0" encoding="UTF-8" standalone="no"?>
<!DOCTYPE svg PUBLIC "-//W3C//DTD SVG 1.1//EN"
 "http://www.w3.org/Graphics/SVG/1.1/DTD/svg11.dtd">
<!-- Generated by graphviz version 2.43.0 (0)
 -->
<!-- Title: %3 Pages: 1 -->
<svg width="624pt" height="469pt"
 viewBox="0.00 0.00 623.50 469.00" xmlns="http://www.w3.org/2000/svg" xmlns:xlink="http://www.w3.org/1999/xlink">
<g id="graph0" class="graph" transform="scale(1 1) rotate(0) translate(4 465)">
<title>%3</title>
<!-- 3585141418796701289 -->
<g id="node1" class="node">
<title>3585141418796701289</title>
<polygon fill="none" stroke="black" points="615.5,-461 494.5,-461 494.5,-425 615.5,-425 615.5,-461"/>
<text text-anchor="middle" x="555" y="-439.9" font-family="Times,serif" font-size="12.00">CONSTRUIR (0s)</text>
</g>
<!-- 3141649102493478583 -->
<g id="node7" class="node">
<title>3141649102493478583</title>
<polygon fill="none" stroke="black" points="461.5,-376 356.5,-376 356.5,-340 461.5,-340 461.5,-376"/>
<text text-anchor="middle" x="409" y="-354.9" font-family="Times,serif" font-size="12.00">PRUEBAS (0s)</text>
</g>
<!-- 3585141418796701289&#45;&gt;3141649102493478583 -->
<g id="edge1" class="edge">
<title>3585141418796701289&#45;&gt;3141649102493478583</title>
<path fill="none" stroke="black" stroke-width="2.6" d="M524.75,-424.8C502.53,-412.17 472.15,-394.9 448.09,-381.22"/>
<polygon fill="black" stroke="black" stroke-width="2.6" points="449.64,-378.08 439.21,-376.18 446.18,-384.16 449.64,-378.08"/>
<text text-anchor="middle" x="494" y="-397.4" font-family="Times,serif" font-size="12.00">5</text>
</g>
<!-- 4272811764518920529 -->
<g id="node2" class="node">
<title>4272811764518920529</title>
<polygon fill="none" stroke="black" points="182,-291 0,-291 0,-255 182,-255 182,-291"/>
<text text-anchor="middle" x="91" y="-269.9" font-family="Times,serif" font-size="12.00">CONSTRUIR_IMAGEN (0s)</text>
</g>
<!-- &#45;5385209317139528404 -->
<g id="node3" class="node">
<title>&#45;5385209317139528404</title>
<polygon fill="none" stroke="black" points="247,-206 119,-206 119,-170 247,-170 247,-206"/>
<text text-anchor="middle" x="183" y="-184.9" font-family="Times,serif" font-size="12.00">DESPLIEGUE (0s)</text>
</g>
<!-- 4272811764518920529&#45;&gt;&#45;5385209317139528404 -->
<g id="edge2" class="edge">
<title>4272811764518920529&#45;&gt;&#45;5385209317139528404</title>
<path fill="none" stroke="black" stroke-width="2.2" d="M110.06,-254.8C123.38,-242.78 141.36,-226.57 156.13,-213.24"/>
<polygon fill="black" stroke="black" stroke-width="2.2" points="158.88,-215.47 163.96,-206.18 154.19,-210.28 158.88,-215.47"/>
<text text-anchor="middle" x="147" y="-227.4" font-family="Times,serif" font-size="12.00">4</text>
</g>
<!-- &#45;1003034464487533105 -->
<g id="node4" class="node">
<title>&#45;1003034464487533105</title>
<polygon fill="none" stroke="black" points="383,-36 197,-36 197,0 383,0 383,-36"/>
<text text-anchor="middle" x="290" y="-14.9" font-family="Times,serif" font-size="12.00">EJECUCION_PIPELINE (0s)</text>
</g>
<!-- 4272811764518920529&#45;&gt;&#45;1003034464487533105 -->
<g id="edge3" class="edge">
<title>4272811764518920529&#45;&gt;&#45;1003034464487533105</title>
<path fill="none" stroke="black" d="M92.43,-254.73C96.96,-212.33 115.01,-102.99 183,-54 190.59,-48.53 199.09,-43.88 207.88,-39.94"/>
<polygon fill="black" stroke="black" points="209.24,-43.16 217.13,-36.08 206.55,-36.7 209.24,-43.16"/>
<text text-anchor="middle" x="125" y="-142.4" font-family="Times,serif" font-size="12.00">1</text>
</g>
<!-- &#45;5385209317139528404&#45;&gt;&#45;1003034464487533105 -->
<g id="edge4" class="edge">
<title>&#45;5385209317139528404&#45;&gt;&#45;1003034464487533105</title>
<path fill="none" stroke="black" stroke-width="1.4" d="M175.22,-169.8C166.8,-148.39 156.5,-111.43 172,-85 183.79,-64.89 204.19,-50.45 224.75,-40.31"/>
<polygon fill="black" stroke="black" stroke-width="1.4" points="226.26,-43.47 233.85,-36.09 223.31,-37.12 226.26,-43.47"/>
<text text-anchor="middle" x="176" y="-99.9" font-family="Times,serif" font-size="12.00">2</text>
</g>
<!-- 602590344285510824 -->
<g id="node5" class="node">
<title>602590344285510824</title>
<polygon fill="none" stroke="black" points="390.5,-121 189.5,-121 189.5,-85 390.5,-85 390.5,-121"/>
<text text-anchor="middle" x="290" y="-99.9" font-family="Times,serif" font-size="12.00">IMPLEMENTACION_code (0s)</text>
</g>
<!-- &#45;5385209317139528404&#45;&gt;602590344285510824 -->
<g id="edge5" class="edge">
<title>&#45;5385209317139528404&#45;&gt;602590344285510824</title>
<path fill="none" stroke="black" d="M205.17,-169.8C220.95,-157.56 242.35,-140.96 259.7,-127.5"/>
<polygon fill="black" stroke="black" points="262.1,-130.07 267.86,-121.18 257.81,-124.54 262.1,-130.07"/>
<text text-anchor="middle" x="247" y="-142.4" font-family="Times,serif" font-size="12.00">1</text>
</g>
<!-- &#45;1003034464487533105&#45;&gt;3585141418796701289 -->
<g id="edge6" class="edge">
<title>&#45;1003034464487533105&#45;&gt;3585141418796701289</title>
<path fill="none" stroke="black" stroke-width="2.6" d="M383.06,-26.27C473.08,-35.95 596,-57.35 596,-102 596,-359 596,-359 596,-359 596,-379.69 585.63,-400.56 575.32,-416.2"/>
<polygon fill="black" stroke="black" stroke-width="2.6" points="572.2,-414.56 569.34,-424.76 577.94,-418.57 572.2,-414.56"/>
<text text-anchor="middle" x="600" y="-227.4" font-family="Times,serif" font-size="12.00">5</text>
</g>
<!-- 602590344285510824&#45;&gt;&#45;1003034464487533105 -->
<g id="edge7" class="edge">
<title>602590344285510824&#45;&gt;&#45;1003034464487533105</title>
<path fill="none" stroke="black" d="M290,-84.8C290,-73.67 290,-58.94 290,-46.24"/>
<polygon fill="black" stroke="black" points="293.5,-46.18 290,-36.18 286.5,-46.18 293.5,-46.18"/>
<text text-anchor="middle" x="294" y="-57.4" font-family="Times,serif" font-size="12.00">1</text>
</g>
<!-- 6866437894726619633 -->
<g id="node6" class="node">
<title>6866437894726619633</title>
<polygon fill="none" stroke="black" points="348,-291 200,-291 200,-255 348,-255 348,-291"/>
<text text-anchor="middle" x="274" y="-269.9" font-family="Times,serif" font-size="12.00">PLANIFICACION (0s)</text>
</g>
<!-- 6866437894726619633&#45;&gt;6866437894726619633 -->
<g id="edge8" class="edge">
<title>6866437894726619633&#45;&gt;6866437894726619633</title>
<path fill="none" stroke="black" stroke-width="1.8" d="M348.36,-280.07C358.92,-278.92 366,-276.57 366,-273 366,-270.71 363.09,-268.93 358.23,-267.64"/>
<polygon fill="black" stroke="black" stroke-width="1.8" points="358.81,-264.18 348.36,-265.93 357.62,-271.08 358.81,-264.18"/>
<text text-anchor="middle" x="370" y="-269.9" font-family="Times,serif" font-size="12.00">3</text>
</g>
<!-- 2265516840784742312 -->
<g id="node9" class="node">
<title>2265516840784742312</title>
<polygon fill="none" stroke="black" points="507,-206 293,-206 293,-170 507,-170 507,-206"/>
<text text-anchor="middle" x="400" y="-184.9" font-family="Times,serif" font-size="12.00">SEGUIMIENTO_In Progress (0s)</text>
</g>
<!-- 6866437894726619633&#45;&gt;2265516840784742312 -->
<g id="edge9" class="edge">
<title>6866437894726619633&#45;&gt;2265516840784742312</title>
<path fill="none" stroke="black" d="M300.11,-254.8C319.03,-242.34 344.81,-225.36 365.44,-211.77"/>
<polygon fill="black" stroke="black" points="367.5,-214.6 373.93,-206.18 363.65,-208.75 367.5,-214.6"/>
<text text-anchor="middle" x="349" y="-227.4" font-family="Times,serif" font-size="12.00">1</text>
</g>
<!-- 3141649102493478583&#45;&gt;4272811764518920529 -->
<g id="edge10" class="edge">
<title>3141649102493478583&#45;&gt;4272811764518920529</title>
<path fill="none" stroke="black" stroke-width="2.6" d="M356.49,-343.29C304.63,-329.76 224.79,-308.92 166.2,-293.63"/>
<polygon fill="black" stroke="black" stroke-width="2.6" points="166.82,-290.17 156.26,-291.03 165.05,-296.94 166.82,-290.17"/>
<text text-anchor="middle" x="274" y="-312.4" font-family="Times,serif" font-size="12.00">5</text>
</g>
<!-- 7936510999749027243 -->
<g id="node8" class="node">
<title>7936510999749027243</title>
<polygon fill="none" stroke="black" points="568,-291 392,-291 392,-255 568,-255 568,-291"/>
<text text-anchor="middle" x="480" y="-269.9" font-family="Times,serif" font-size="12.00">SEGUIMIENTO_Done (0s)</text>
</g>
<!-- 7936510999749027243&#45;&gt;2265516840784742312 -->
<g id="edge11" class="edge">
<title>7936510999749027243&#45;&gt;2265516840784742312</title>
<path fill="none" stroke="black" d="M463.42,-254.8C451.95,-242.89 436.5,-226.87 423.72,-213.61"/>
<polygon fill="black" stroke="black" points="426.01,-210.95 416.55,-206.18 420.97,-215.8 426.01,-210.95"/>
<text text-anchor="middle" x="449" y="-227.4" font-family="Times,serif" font-size="12.00">1</text>
</g>
<!-- 2265516840784742312&#45;&gt;&#45;1003034464487533105 -->
<g id="edge12" class="edge">
<title>2265516840784742312&#45;&gt;&#45;1003034464487533105</title>
<path fill="none" stroke="black" d="M404.62,-169.81C409.35,-148.41 414.08,-111.46 399,-85 387.84,-65.42 368.3,-50.97 348.82,-40.67"/>
<polygon fill="black" stroke="black" points="350.12,-37.41 339.6,-36.09 347,-43.68 350.12,-37.41"/>
<text text-anchor="middle" x="413" y="-99.9" font-family="Times,serif" font-size="12.00">1</text>
</g>
<!-- 2265516840784742312&#45;&gt;602590344285510824 -->
<g id="edge13" class="edge">
<title>2265516840784742312&#45;&gt;602590344285510824</title>
<path fill="none" stroke="black" d="M377.21,-169.8C360.98,-157.56 338.99,-140.96 321.14,-127.5"/>
<polygon fill="black" stroke="black" points="322.85,-124.4 312.76,-121.18 318.64,-129.99 322.85,-124.4"/>
<text text-anchor="middle" x="356" y="-142.4" font-family="Times,serif" font-size="12.00">1</text>
</g>
</g>
</svg>
