<?xml version="1.0" encoding="UTF-8" standalone="no"?>
<!DOCTYPE svg PUBLIC "-//W3C//DTD SVG 1.1//EN"
 "http://www.w3.org/Graphics/SVG/1.1/DTD/svg11.dtd">
<!-- Generated by graphviz version 2.43.0 (0)
 -->
<!-- Title: %3 Pages: 1 -->
<svg width="2767pt" height="174pt"
 viewBox="0.00 0.00 2767.00 174.00" xmlns="http://www.w3.org/2000/svg" xmlns:xlink="http://www.w3.org/1999/xlink">
<g id="graph0" class="graph" transform="scale(1 1) rotate(0) translate(4 170)">
<title>%3</title>
<!-- 139823166274192 -->
<g id="node1" class="node">
<title>139823166274192</title>
<ellipse fill="green" stroke="black" cx="18" cy="-41" rx="18" ry="18"/>
</g>
<!-- 139823166332304 -->
<g id="node2" class="node">
<title>139823166332304</title>
<polygon fill="none" stroke="black" points="99,-59 72,-41 99,-23 126,-41 99,-59"/>
<text text-anchor="middle" x="99" y="-37.9" font-family="Times,serif" font-size="12.00">X</text>
</g>
<!-- 139823166274192&#45;&gt;139823166332304 -->
<g id="edge1" class="edge">
<title>139823166274192&#45;&gt;139823166332304</title>
<path fill="none" stroke="black" d="M36.14,-41C43.64,-41 52.75,-41 61.64,-41"/>
<polygon fill="black" stroke="black" points="61.87,-44.5 71.87,-41 61.87,-37.5 61.87,-44.5"/>
</g>
<!-- 139824065149248 -->
<g id="node3" class="node">
<title>139824065149248</title>
<polygon fill="none" stroke="black" points="189,-82 162,-64 189,-46 216,-64 189,-82"/>
<text text-anchor="middle" x="189" y="-60.9" font-family="Times,serif" font-size="12.00">X</text>
</g>
<!-- 139823166332304&#45;&gt;139824065149248 -->
<g id="edge3" class="edge">
<title>139823166332304&#45;&gt;139824065149248</title>
<path fill="none" stroke="black" d="M119.09,-45.99C130.82,-49.06 146.07,-53.04 159.24,-56.48"/>
<polygon fill="black" stroke="black" points="158.68,-59.96 169.24,-59.1 160.45,-53.18 158.68,-59.96"/>
</g>
<!-- 139823166377504 -->
<g id="node4" class="node">
<title>139823166377504</title>
<polygon fill="none" stroke="black" points="401,-36 252,-36 252,0 401,0 401,-36"/>
<text text-anchor="middle" x="326.5" y="-14.9" font-family="Times,serif" font-size="12.00">SEGUIMIENTO_Done</text>
</g>
<!-- 139823166332304&#45;&gt;139823166377504 -->
<g id="edge2" class="edge">
<title>139823166332304&#45;&gt;139823166377504</title>
<path fill="none" stroke="black" d="M122.86,-38.67C150.64,-35.83 199.08,-30.89 241.64,-26.55"/>
<polygon fill="black" stroke="black" points="242.15,-30.02 251.75,-25.52 241.44,-23.06 242.15,-30.02"/>
</g>
<!-- 139823166377936 -->
<g id="node6" class="node">
<title>139823166377936</title>
<polygon fill="none" stroke="black" points="387.5,-128 265.5,-128 265.5,-92 387.5,-92 387.5,-128"/>
<text text-anchor="middle" x="326.5" y="-106.9" font-family="Times,serif" font-size="12.00">PLANIFICACION</text>
</g>
<!-- 139824065149248&#45;&gt;139823166377936 -->
<g id="edge5" class="edge">
<title>139824065149248&#45;&gt;139823166377936</title>
<path fill="none" stroke="black" d="M207.44,-69.92C221.63,-74.74 242.57,-81.85 262.89,-88.74"/>
<polygon fill="black" stroke="black" points="261.87,-92.1 272.47,-92 264.12,-85.47 261.87,-92.1"/>
</g>
<!-- 139823166332448 -->
<g id="node5" class="node">
<title>139823166332448</title>
<polygon fill="none" stroke="black" points="554,-59 527,-41 554,-23 581,-41 554,-59"/>
<text text-anchor="middle" x="554" y="-37.9" font-family="Times,serif" font-size="12.00">X</text>
</g>
<!-- 139823166377504&#45;&gt;139823166332448 -->
<g id="edge4" class="edge">
<title>139823166377504&#45;&gt;139823166332448</title>
<path fill="none" stroke="black" d="M401.03,-25.5C441.15,-29.59 488.85,-34.46 519.96,-37.63"/>
<polygon fill="black" stroke="black" points="519.93,-41.15 530.24,-38.68 520.64,-34.18 519.93,-41.15"/>
</g>
<!-- 139823166374960 -->
<g id="node7" class="node">
<title>139823166374960</title>
<polygon fill="none" stroke="black" points="644,-59 617,-41 644,-23 671,-41 644,-59"/>
<text text-anchor="middle" x="644" y="-37.9" font-family="Times,serif" font-size="12.00">X</text>
</g>
<!-- 139823166332448&#45;&gt;139823166374960 -->
<g id="edge6" class="edge">
<title>139823166332448&#45;&gt;139823166374960</title>
<path fill="none" stroke="black" d="M581.4,-41C589.39,-41 598.31,-41 606.82,-41"/>
<polygon fill="black" stroke="black" points="606.92,-44.5 616.92,-41 606.92,-37.5 606.92,-44.5"/>
</g>
<!-- 139823166377888 -->
<g id="node8" class="node">
<title>139823166377888</title>
<polygon fill="none" stroke="black" points="464,-82 437,-64 464,-46 491,-64 464,-82"/>
<text text-anchor="middle" x="464" y="-60.9" font-family="Times,serif" font-size="12.00">X</text>
</g>
<!-- 139823166377936&#45;&gt;139823166377888 -->
<g id="edge7" class="edge">
<title>139823166377936&#45;&gt;139823166377888</title>
<path fill="none" stroke="black" d="M380.66,-91.95C399.64,-85.51 420.22,-78.52 436.06,-73.15"/>
<polygon fill="black" stroke="black" points="437.37,-76.4 445.71,-69.87 435.12,-69.77 437.37,-76.4"/>
</g>
<!-- 139823166375104 -->
<g id="node9" class="node">
<title>139823166375104</title>
<polygon fill="none" stroke="black" points="958,-59 931,-41 958,-23 985,-41 958,-59"/>
<text text-anchor="middle" x="958" y="-37.9" font-family="Times,serif" font-size="12.00">X</text>
</g>
<!-- 139823166374960&#45;&gt;139823166375104 -->
<g id="edge11" class="edge">
<title>139823166374960&#45;&gt;139823166375104</title>
<path fill="none" stroke="black" d="M668.24,-42.86C679.87,-43.69 694.17,-44.59 707,-45 790.51,-47.69 811.49,-47.69 895,-45 904.32,-44.7 914.42,-44.15 923.7,-43.54"/>
<polygon fill="black" stroke="black" points="924.02,-47.03 933.76,-42.86 923.54,-40.05 924.02,-47.03"/>
</g>
<!-- 139823166377264 -->
<g id="node10" class="node">
<title>139823166377264</title>
<polygon fill="none" stroke="black" points="895,-36 707,-36 707,0 895,0 895,-36"/>
<text text-anchor="middle" x="801" y="-14.9" font-family="Times,serif" font-size="12.00">SEGUIMIENTO_In Progress</text>
</g>
<!-- 139823166374960&#45;&gt;139823166377264 -->
<g id="edge10" class="edge">
<title>139823166374960&#45;&gt;139823166377264</title>
<path fill="none" stroke="black" d="M666.55,-37.8C675.04,-36.54 685.46,-35 696.68,-33.33"/>
<polygon fill="black" stroke="black" points="697.36,-36.77 706.73,-31.84 696.33,-29.85 697.36,-36.77"/>
</g>
<!-- 139823166377888&#45;&gt;139824065149248 -->
<g id="edge8" class="edge">
<title>139823166377888&#45;&gt;139824065149248</title>
<path fill="none" stroke="black" d="M436.9,-64C387.94,-64 282.22,-64 226.33,-64"/>
<polygon fill="black" stroke="black" points="226.18,-60.5 216.18,-64 226.18,-67.5 226.18,-60.5"/>
</g>
<!-- 139823166377888&#45;&gt;139823166332448 -->
<g id="edge9" class="edge">
<title>139823166377888&#45;&gt;139823166332448</title>
<path fill="none" stroke="black" d="M484.09,-59.01C495.82,-55.94 511.07,-51.96 524.24,-48.52"/>
<polygon fill="black" stroke="black" points="525.45,-51.82 534.24,-45.9 523.68,-45.04 525.45,-51.82"/>
</g>
<!-- 139823166376304 -->
<g id="node11" class="node">
<title>139823166376304</title>
<polygon fill="none" stroke="black" points="1048,-59 1021,-41 1048,-23 1075,-41 1048,-59"/>
<text text-anchor="middle" x="1048" y="-37.9" font-family="Times,serif" font-size="12.00">X</text>
</g>
<!-- 139823166375104&#45;&gt;139823166376304 -->
<g id="edge13" class="edge">
<title>139823166375104&#45;&gt;139823166376304</title>
<path fill="none" stroke="black" d="M985.4,-41C993.39,-41 1002.31,-41 1010.82,-41"/>
<polygon fill="black" stroke="black" points="1010.92,-44.5 1020.92,-41 1010.92,-37.5 1010.92,-44.5"/>
</g>
<!-- 139823166377264&#45;&gt;139823166375104 -->
<g id="edge12" class="edge">
<title>139823166377264&#45;&gt;139823166375104</title>
<path fill="none" stroke="black" d="M895.29,-31.84C906.17,-33.46 916.61,-35.01 925.71,-36.36"/>
<polygon fill="black" stroke="black" points="925.32,-39.84 935.73,-37.84 926.35,-32.91 925.32,-39.84"/>
</g>
<!-- 139823166376112 -->
<g id="node12" class="node">
<title>139823166376112</title>
<polygon fill="none" stroke="black" points="1349,-59 1322,-41 1349,-23 1376,-41 1349,-59"/>
<text text-anchor="middle" x="1349" y="-37.9" font-family="Times,serif" font-size="12.00">X</text>
</g>
<!-- 139823166376304&#45;&gt;139823166376112 -->
<g id="edge15" class="edge">
<title>139823166376304&#45;&gt;139823166376112</title>
<path fill="none" stroke="black" d="M1072.24,-42.86C1083.87,-43.69 1098.17,-44.59 1111,-45 1188.74,-47.51 1208.26,-47.51 1286,-45 1295.32,-44.7 1305.42,-44.15 1314.7,-43.54"/>
<polygon fill="black" stroke="black" points="1315.02,-47.03 1324.76,-42.86 1314.54,-40.05 1315.02,-47.03"/>
</g>
<!-- 139823166376592 -->
<g id="node13" class="node">
<title>139823166376592</title>
<polygon fill="none" stroke="black" points="1286,-36 1111,-36 1111,0 1286,0 1286,-36"/>
<text text-anchor="middle" x="1198.5" y="-14.9" font-family="Times,serif" font-size="12.00">IMPLEMENTACION_code</text>
</g>
<!-- 139823166376304&#45;&gt;139823166376592 -->
<g id="edge14" class="edge">
<title>139823166376304&#45;&gt;139823166376592</title>
<path fill="none" stroke="black" d="M1070.28,-37.7C1078.84,-36.38 1089.36,-34.75 1100.65,-33"/>
<polygon fill="black" stroke="black" points="1101.39,-36.43 1110.74,-31.44 1100.32,-29.51 1101.39,-36.43"/>
</g>
<!-- 139823166376448 -->
<g id="node14" class="node">
<title>139823166376448</title>
<polygon fill="none" stroke="black" points="1439,-59 1412,-41 1439,-23 1466,-41 1439,-59"/>
<text text-anchor="middle" x="1439" y="-37.9" font-family="Times,serif" font-size="12.00">X</text>
</g>
<!-- 139823166376112&#45;&gt;139823166376448 -->
<g id="edge17" class="edge">
<title>139823166376112&#45;&gt;139823166376448</title>
<path fill="none" stroke="black" d="M1376.4,-41C1384.39,-41 1393.31,-41 1401.82,-41"/>
<polygon fill="black" stroke="black" points="1401.92,-44.5 1411.92,-41 1401.92,-37.5 1401.92,-44.5"/>
</g>
<!-- 139823166376592&#45;&gt;139823166376112 -->
<g id="edge16" class="edge">
<title>139823166376592&#45;&gt;139823166376112</title>
<path fill="none" stroke="black" d="M1286.31,-31.45C1297.17,-33.13 1307.66,-34.75 1316.81,-36.17"/>
<polygon fill="black" stroke="black" points="1316.47,-39.66 1326.89,-37.73 1317.54,-32.74 1316.47,-39.66"/>
</g>
<!-- 139823166375824 -->
<g id="node15" class="node">
<title>139823166375824</title>
<polygon fill="none" stroke="black" points="1529,-82 1502,-64 1529,-46 1556,-64 1529,-82"/>
<text text-anchor="middle" x="1529" y="-60.9" font-family="Times,serif" font-size="12.00">X</text>
</g>
<!-- 139823166376448&#45;&gt;139823166375824 -->
<g id="edge18" class="edge">
<title>139823166376448&#45;&gt;139823166375824</title>
<path fill="none" stroke="black" d="M1459.09,-45.99C1470.82,-49.06 1486.07,-53.04 1499.24,-56.48"/>
<polygon fill="black" stroke="black" points="1498.68,-59.96 1509.24,-59.1 1500.45,-53.18 1498.68,-59.96"/>
</g>
<!-- 139823166375632 -->
<g id="node16" class="node">
<title>139823166375632</title>
<polygon fill="none" stroke="black" points="2660,-59 2633,-41 2660,-23 2687,-41 2660,-59"/>
<text text-anchor="middle" x="2660" y="-37.9" font-family="Times,serif" font-size="12.00">X</text>
</g>
<!-- 139823166376448&#45;&gt;139823166375632 -->
<g id="edge19" class="edge">
<title>139823166376448&#45;&gt;139823166375632</title>
<path fill="none" stroke="black" d="M1459.91,-36.73C1492.7,-30.08 1560.2,-18 1618,-18 1618,-18 1618,-18 2457,-18 2518.27,-18 2589.32,-28.57 2628.72,-35.38"/>
<polygon fill="black" stroke="black" points="2628.27,-38.86 2638.73,-37.15 2629.49,-31.96 2628.27,-38.86"/>
</g>
<!-- 139824066002560 -->
<g id="node17" class="node">
<title>139824066002560</title>
<polygon fill="none" stroke="black" points="1619,-124 1592,-106 1619,-88 1646,-106 1619,-124"/>
<text text-anchor="middle" x="1619" y="-102.9" font-family="Times,serif" font-size="12.00">X</text>
</g>
<!-- 139823166375824&#45;&gt;139824066002560 -->
<g id="edge20" class="edge">
<title>139823166375824&#45;&gt;139824066002560</title>
<path fill="none" stroke="black" d="M1545.33,-71.32C1558.58,-77.64 1577.97,-86.9 1593.39,-94.26"/>
<polygon fill="black" stroke="black" points="1592.31,-97.62 1602.85,-98.77 1595.33,-91.3 1592.31,-97.62"/>
</g>
<!-- 139823166273856 -->
<g id="node25" class="node">
<title>139823166273856</title>
<ellipse fill="orange" stroke="black" cx="2741" cy="-41" rx="18" ry="18"/>
</g>
<!-- 139823166375632&#45;&gt;139823166273856 -->
<g id="edge21" class="edge">
<title>139823166375632&#45;&gt;139823166273856</title>
<path fill="none" stroke="black" d="M2687.31,-41C2695.42,-41 2704.37,-41 2712.56,-41"/>
<polygon fill="black" stroke="black" points="2712.75,-44.5 2722.75,-41 2712.75,-37.5 2712.75,-44.5"/>
</g>
<!-- 139824066001504 -->
<g id="node18" class="node">
<title>139824066001504</title>
<polygon fill="none" stroke="black" points="1842,-166 1682,-166 1682,-130 1842,-130 1842,-166"/>
<text text-anchor="middle" x="1762" y="-144.9" font-family="Times,serif" font-size="12.00">EJECUCION_PIPELINE</text>
</g>
<!-- 139824066002560&#45;&gt;139824066001504 -->
<g id="edge22" class="edge">
<title>139824066002560&#45;&gt;139824066001504</title>
<path fill="none" stroke="black" d="M1638.14,-111.4C1651.7,-115.44 1671.16,-121.24 1690.62,-127.04"/>
<polygon fill="black" stroke="black" points="1689.87,-130.46 1700.45,-129.96 1691.87,-123.75 1689.87,-130.46"/>
</g>
<!-- 139824065885328 -->
<g id="node19" class="node">
<title>139824065885328</title>
<polygon fill="none" stroke="black" points="1973,-166 1878,-166 1878,-130 1973,-130 1973,-166"/>
<text text-anchor="middle" x="1925.5" y="-144.9" font-family="Times,serif" font-size="12.00">CONSTRUIR</text>
</g>
<!-- 139824066001504&#45;&gt;139824065885328 -->
<g id="edge23" class="edge">
<title>139824066001504&#45;&gt;139824065885328</title>
<path fill="none" stroke="black" d="M1842.33,-148C1850.86,-148 1859.4,-148 1867.59,-148"/>
<polygon fill="black" stroke="black" points="1867.74,-151.5 1877.74,-148 1867.74,-144.5 1867.74,-151.5"/>
</g>
<!-- 139824065770064 -->
<g id="node20" class="node">
<title>139824065770064</title>
<polygon fill="none" stroke="black" points="2088,-166 2009,-166 2009,-130 2088,-130 2088,-166"/>
<text text-anchor="middle" x="2048.5" y="-144.9" font-family="Times,serif" font-size="12.00">PRUEBAS</text>
</g>
<!-- 139824065885328&#45;&gt;139824065770064 -->
<g id="edge24" class="edge">
<title>139824065885328&#45;&gt;139824065770064</title>
<path fill="none" stroke="black" d="M1973.28,-148C1981.6,-148 1990.29,-148 1998.67,-148"/>
<polygon fill="black" stroke="black" points="1998.68,-151.5 2008.68,-148 1998.68,-144.5 1998.68,-151.5"/>
</g>
<!-- 139824065772080 -->
<g id="node21" class="node">
<title>139824065772080</title>
<polygon fill="none" stroke="black" points="2279,-166 2124,-166 2124,-130 2279,-130 2279,-166"/>
<text text-anchor="middle" x="2201.5" y="-144.9" font-family="Times,serif" font-size="12.00">CONSTRUIR_IMAGEN</text>
</g>
<!-- 139824065770064&#45;&gt;139824065772080 -->
<g id="edge25" class="edge">
<title>139824065770064&#45;&gt;139824065772080</title>
<path fill="none" stroke="black" d="M2088.39,-148C2096.32,-148 2104.97,-148 2113.83,-148"/>
<polygon fill="black" stroke="black" points="2113.89,-151.5 2123.89,-148 2113.89,-144.5 2113.89,-151.5"/>
</g>
<!-- 139824066000832 -->
<g id="node22" class="node">
<title>139824066000832</title>
<polygon fill="none" stroke="black" points="2342,-124 2315,-106 2342,-88 2369,-106 2342,-124"/>
<text text-anchor="middle" x="2342" y="-102.9" font-family="Times,serif" font-size="12.00">X</text>
</g>
<!-- 139824065772080&#45;&gt;139824066000832 -->
<g id="edge26" class="edge">
<title>139824065772080&#45;&gt;139824066000832</title>
<path fill="none" stroke="black" d="M2262.04,-129.94C2279.74,-124.58 2298.3,-118.95 2312.98,-114.5"/>
<polygon fill="black" stroke="black" points="2314.36,-117.74 2322.91,-111.49 2312.33,-111.04 2314.36,-117.74"/>
</g>
<!-- 139824066000832&#45;&gt;139824066002560 -->
<g id="edge27" class="edge">
<title>139824066000832&#45;&gt;139824066002560</title>
<path fill="none" stroke="black" d="M2315.66,-105.42C2265.06,-104.31 2147.94,-102 2049.5,-102 1924.5,-102 1924.5,-102 1924.5,-102 1827.15,-102 1712.31,-104.07 1655.5,-105.23"/>
<polygon fill="black" stroke="black" points="1655.19,-101.74 1645.26,-105.44 1655.33,-108.74 1655.19,-101.74"/>
</g>
<!-- 139824065633632 -->
<g id="node23" class="node">
<title>139824065633632</title>
<polygon fill="none" stroke="black" points="2507,-124 2405,-124 2405,-88 2507,-88 2507,-124"/>
<text text-anchor="middle" x="2456" y="-102.9" font-family="Times,serif" font-size="12.00">DESPLIEGUE</text>
</g>
<!-- 139824066000832&#45;&gt;139824065633632 -->
<g id="edge28" class="edge">
<title>139824066000832&#45;&gt;139824065633632</title>
<path fill="none" stroke="black" d="M2369.26,-106C2376.96,-106 2385.73,-106 2394.64,-106"/>
<polygon fill="black" stroke="black" points="2394.71,-109.5 2404.71,-106 2394.71,-102.5 2394.71,-109.5"/>
</g>
<!-- 139823166374576 -->
<g id="node24" class="node">
<title>139823166374576</title>
<polygon fill="none" stroke="black" points="2570,-82 2543,-64 2570,-46 2597,-64 2570,-82"/>
<text text-anchor="middle" x="2570" y="-60.9" font-family="Times,serif" font-size="12.00">X</text>
</g>
<!-- 139824065633632&#45;&gt;139823166374576 -->
<g id="edge29" class="edge">
<title>139824065633632&#45;&gt;139823166374576</title>
<path fill="none" stroke="black" d="M2505.15,-87.94C2518.04,-83.11 2531.5,-78.06 2542.72,-73.86"/>
<polygon fill="black" stroke="black" points="2544.17,-77.05 2552.31,-70.26 2541.72,-70.49 2544.17,-77.05"/>
</g>
<!-- 139823166374576&#45;&gt;139823166375824 -->
<g id="edge30" class="edge">
<title>139823166374576&#45;&gt;139823166375824</title>
<path fill="none" stroke="black" d="M2543.92,-63.27C2502.22,-62.11 2415.99,-60 2343,-60 1761,-60 1761,-60 1761,-60 1691.56,-60 1610.4,-61.83 1565.12,-63.01"/>
<polygon fill="black" stroke="black" points="1564.85,-59.52 1554.95,-63.28 1565.04,-66.52 1564.85,-59.52"/>
</g>
<!-- 139823166374576&#45;&gt;139823166375632 -->
<g id="edge31" class="edge">
<title>139823166374576&#45;&gt;139823166375632</title>
<path fill="none" stroke="black" d="M2590.09,-59.01C2601.82,-55.94 2617.07,-51.96 2630.24,-48.52"/>
<polygon fill="black" stroke="black" points="2631.45,-51.82 2640.24,-45.9 2629.68,-45.04 2631.45,-51.82"/>
</g>
</g>
</svg>
